<svg xmlns="http://www.w3.org/2000/svg" viewBox="0 0 150 150"><defs><style>.a{fill:#fff;}</style></defs><path class="a" d="M47.80726,56.34477a1.79535,1.79535,0,0,0,2.53031-.00071L73.76528,32.92034a1.79389,1.79389,0,0,1,2.52943.00011L99.71827,56.344a1.79509,1.79509,0,0,0,2.53014.00082l1.00912-1.00785a1.79247,1.79247,0,0,0,.00076-2.52862L79.83036,29.38043c-.69553-.69559-1.8334-1.83417-2.52856-2.5302L76.294,25.84117a1.79247,1.79247,0,0,0-2.52862-.00076l-1.01064,1.01064-2.52938,2.52938L46.79744,52.8083a1.79246,1.79246,0,0,0,.00076,2.52862Z"/><path class="a" d="M75.146,61.84849h3.8a.76047.76047,0,0,0,0-1.52093H75.90641V55.3183a.76046.76046,0,0,0-1.52092,0v5.76975A.76034.76034,0,0,0,75.146,61.84849Z"/><path class="a" d="M127.01725,74.66448H97.27666V57.94561L75.03005,35.699,52.78344,57.94561V74.66448H22.98275a3.58759,3.58759,0,0,0-3.57709,3.57709V121.104a3.58762,3.58762,0,0,0,3.57709,3.57708H68.07691V102.43446H81.97882v22.24661h45.03843a3.58762,3.58762,0,0,0,3.57709-3.57708V78.24157A3.58759,3.58759,0,0,0,127.01725,74.66448ZM75.00816,50.28793a10.432,10.432,0,0,1,10.4407,10.42318v.03062A10.4232,10.4232,0,0,1,75.03005,71.15181h-.00437a10.43194,10.43194,0,0,1-.01752-20.86388ZM34.70258,110.77911h-9.723v-9.7318h9.73179Zm0-13.90633h-9.723V87.14972h9.73179ZM48.6089,110.77911H38.87711v-9.7318H48.6089Zm0-13.90633H38.87711V87.14972H48.6089Zm13.902,13.90633H52.78344v-9.7318h9.73179Zm0-13.90633H52.78344V87.14972h9.73179Zm34.76143,13.90633H87.5536v-9.7318h9.73616Zm0-13.90633H87.5536V87.14972h9.73616ZM111.183,110.77911H101.4424v-9.7318H111.183Zm0-13.90633H101.4424V87.14972H111.183Zm4.16575,13.90633v-9.7318h9.73179l.00437,9.7318Zm0-13.90633V87.14972h9.73179l.00437,9.72306Z"/></svg>