<svg xmlns="http://www.w3.org/2000/svg" viewBox="0 0 150 150"><defs><style>.a{fill:#fff;}</style></defs><path class="a" d="M120.40771,39.09552H29.59229a3.00871,3.00871,0,0,0-3,3v54.5097a3.0087,3.0087,0,0,0,3,3H59.72186L56.84711,112.854l-6.051,6.051H99.20392l-6.051-6.051L90.27814,99.60522h30.12957a3.0087,3.0087,0,0,0,3-3V42.09552A3.00871,3.00871,0,0,0,120.40771,39.09552Zm-3,54.5097H32.59229V45.09552h84.81542Z"/><path class="a" d="M65.7134,63.40674a.61314.61314,0,0,0,.86413-.00024l8.0008-7.99944a.61263.61263,0,0,1,.86383,0l7.99938,7.99937a.61305.61305,0,0,0,.86407.00028l.34463-.34419a.61215.61215,0,0,0,.00026-.86355l-8.00088-8.00086c-.23753-.23755-.62613-.62639-.86353-.86409l-.34419-.3446a.61214.61214,0,0,0-.86355-.00026l-.34515.34514-.86381.86381L65.36854,62.199a.61214.61214,0,0,0,.00026.86355Z"/><path class="a" d="M75.04985,65.28631h1.29774a.25971.25971,0,0,0,0-.51941h-1.038V63.05619a.25971.25971,0,0,0-.51941,0v1.97043A.25966.25966,0,0,0,75.04985,65.28631Z"/><path class="a" d="M92.76443,69.66311H82.60771V63.95344L75.01026,56.356l-7.59744,7.59745v5.70967H57.23557A1.2252,1.2252,0,0,0,56.014,70.88472v14.638a1.22521,1.22521,0,0,0,1.22161,1.22161H72.63569V79.14684h4.74765v7.59745H92.76443A1.22521,1.22521,0,0,0,93.986,85.52268v-14.638A1.2252,1.2252,0,0,0,92.76443,69.66311ZM75.00279,61.33826a3.56263,3.56263,0,0,1,3.5656,3.55963v.01045a3.55964,3.55964,0,0,1-3.55813,3.55516h-.00149a3.56262,3.56262,0,1,1-.006-7.12524ZM61.238,81.99662H57.91751v-3.3235H61.241Zm0-4.74915H57.91751V73.92694H61.241Zm4.74915,4.74915H62.66366v-3.3235h3.32351Zm0-4.74915H62.66366V73.92694h3.32351Zm4.74766,4.74915h-3.322v-3.3235h3.3235Zm0-4.74915h-3.322V73.92694h3.3235Zm11.87139,4.74915h-3.319v-3.3235h3.325Zm0-4.74915h-3.319V73.92694h3.325Zm4.75064,4.74915H84.03035v-3.3235h3.32651Zm0-4.74915H84.03035V73.92694h3.32651Zm1.42265,4.74915v-3.3235H92.103l.00149,3.3235Zm0-4.74915V73.92694H92.103l.00149,3.32053Z"/></svg>