<svg xmlns="http://www.w3.org/2000/svg" viewBox="0 0 150 150"><defs><style>.a{fill:#fff;}</style></defs><path class="a" d="M120.3324,24.79645H28.49725a3.00883,3.00883,0,0,0-3,3V67.24731a3.00883,3.00883,0,0,0,3,3H120.3324a3.00886,3.00886,0,0,0,3-3V27.79645A3.00886,3.00886,0,0,0,120.3324,24.79645Zm-67.017,33.82269H38.124a1.5,1.5,0,0,1,0-3H53.31543a1.5,1.5,0,1,1,0,3ZM68.50586,48.61865H38.124a1.5,1.5,0,0,1,0-3H68.50586a1.5,1.5,0,0,1,0,3Zm0-10.001H38.124a1.5,1.5,0,0,1,0-3H68.50586a1.5,1.5,0,0,1,0,3Z"/><ellipse class="a" cx="74.98785" cy="91.26599" rx="10.99847" ry="11.14447"/><path class="a" d="M86.33752,117.68463c0-6.84222,1.42389-12.072,4.056-15.41333a7.9291,7.9291,0,0,0-4.88891-1.70074,13.846,13.846,0,0,1-21.03345,0,7.88689,7.88689,0,0,0-4.87158,1.70166c2.63653,3.34137,4.06293,8.5708,4.06293,15.41241a10.65666,10.65666,0,0,1-2.34925,6.97,10.35492,10.35492,0,0,0,1.14313.06909H87.54364a10.35492,10.35492,0,0,0,1.14313-.06909A10.65666,10.65666,0,0,1,86.33752,117.68463Z"/><path class="a" d="M27.9104,125.20349H52.99762c4.59894,0,7.66486-2.82257,7.66486-7.51886,0-6.52771-1.5066-16.435-9.70392-16.63428a13.84588,13.84588,0,0,1-21.03339,0c-8.17309.20026-9.67963,10.1308-9.67963,16.63428C20.24554,122.38092,23.31146,125.20349,27.9104,125.20349Z"/><ellipse class="a" cx="40.44183" cy="91.74577" rx="10.99847" ry="11.14449"/><path class="a" d="M97.00238,125.20349H122.0896c4.59894,0,7.66486-2.82257,7.66486-7.51886,0-6.52771-1.5066-16.435-9.70392-16.63428a13.84588,13.84588,0,0,1-21.03339,0c-8.17309.20026-9.67963,10.1308-9.67963,16.63428C89.33752,122.38092,92.40344,125.20349,97.00238,125.20349Z"/><ellipse class="a" cx="109.53381" cy="91.74577" rx="10.99847" ry="11.14449"/></svg>