<?xml version="1.0" encoding="UTF-8" standalone="no"?>
<!-- Created with Inkscape (http://www.inkscape.org/) -->

<svg
   xmlns:dc="http://purl.org/dc/elements/1.1/"
   xmlns:cc="http://creativecommons.org/ns#"
   xmlns:rdf="http://www.w3.org/1999/02/22-rdf-syntax-ns#"
   xmlns:svg="http://www.w3.org/2000/svg"
   xmlns="http://www.w3.org/2000/svg"
   xmlns:sodipodi="http://sodipodi.sourceforge.net/DTD/sodipodi-0.dtd"
   xmlns:inkscape="http://www.inkscape.org/namespaces/inkscape"
   width="426.48001"
   height="426.48001"
   id="svg2"
   version="1.1"
   inkscape:version="0.48.3.1 r9886"
   sodipodi:docname="logo ucs school.svgz">
  <defs
     id="defs4" />
  <sodipodi:namedview
     id="base"
     pagecolor="#ffffff"
     bordercolor="#666666"
     borderopacity="1.0"
     inkscape:pageopacity="0.0"
     inkscape:pageshadow="2"
     inkscape:zoom="0.98994949"
     inkscape:cx="97.954132"
     inkscape:cy="205.05947"
     inkscape:document-units="px"
     inkscape:current-layer="layer1"
     showgrid="false"
     fit-margin-top="0"
     fit-margin-left="0"
     fit-margin-right="0"
     fit-margin-bottom="0"
     inkscape:window-width="1257"
     inkscape:window-height="878"
     inkscape:window-x="0"
     inkscape:window-y="0"
     inkscape:window-maximized="0" />
  <metadata
     id="metadata7">
    <rdf:RDF>
      <cc:Work
         rdf:about="">
        <dc:format>image/svg+xml</dc:format>
        <dc:type
           rdf:resource="http://purl.org/dc/dcmitype/StillImage" />
        <dc:title></dc:title>
      </cc:Work>
    </rdf:RDF>
  </metadata>
  <g
     inkscape:label="Layer 1"
     inkscape:groupmode="layer"
     id="layer1"
     transform="translate(-196.71868,-134.44085)">
    <g
       id="g3068"
       transform="matrix(3.485924,0,0,3.485924,-281.35751,-1401.0751)">
      <path
         style="fill:#79b51c;fill-opacity:1"
         d="m 156.25717,560.05119 c -7.60362,-1.14763 -13.69428,-6.44055 -16.04903,-13.94696 l -0.55097,-1.75637 -0.0632,-32.1 c -0.0479,-24.31055 -0.005,-32.43947 0.1769,-33.49894 1.46645,-8.54444 8.83576,-15.34065 17.38628,-16.03417 0.825,-0.0669 1.6125,-0.21036 1.75,-0.31876 0.1375,-0.10841 0.25,-0.58115 0.25,-1.05053 0,-1.33769 0.57832,-4.05342 1.21332,-5.6976 0.90754,-2.34988 2.2796,-4.49773 4.05624,-6.34971 2.74384,-2.86021 5.6244,-4.60245 9.27681,-5.61089 l 1.95363,-0.5394 32.4,0 32.4,0 1.78799,0.45527 c 7.11838,1.81254 12.60283,7.34021 14.46009,14.57404 0.32878,1.28057 0.35192,3.49433 0.35192,33.67069 l 0,32.3 -0.43443,1.6265 c -0.98999,3.70653 -2.62753,6.6032 -5.17046,9.14614 -3.20253,3.20252 -7.48953,5.27288 -11.67205,5.63688 -2.30189,0.20034 -2.11077,0.0123 -2.37206,2.33394 -0.51897,4.61132 -2.61057,8.78506 -6.00625,11.98537 -2.39036,2.25282 -5.32625,3.88265 -8.64475,4.79904 l -1.7,0.46945 -31.9,0.0285 c -17.545,0.0157 -32.35,-0.0394 -32.9,-0.12246 z m 15.29673,-31.19455 c 5.59925,-1.63138 8.45907,-5.32849 9.75324,-12.60878 0.24945,-1.40326 0.31749,-4.76896 0.38979,-19.28191 0.0482,-9.67005 0.0342,-17.79482 -0.0312,-18.05505 l -0.11875,-0.47315 -3.14492,0.0551 -3.14492,0.055 -0.11175,18.4 c -0.10086,16.60736 -0.14601,18.54614 -0.46342,19.9 -0.78556,3.35069 -2.26102,5.43718 -4.62483,6.5401 -1.1466,0.53498 -1.33351,0.5599 -4.2,0.5599 -2.86649,0 -3.0534,-0.0249 -4.2,-0.5599 -2.36381,-1.10292 -3.83927,-3.18941 -4.62483,-6.5401 -0.31741,-1.35386 -0.36256,-3.29264 -0.46342,-19.9 l -0.11175,-18.4 -3.08486,-0.0554 c -2.33391,-0.0419 -3.12432,0.007 -3.24694,0.2 -0.23003,0.36249 -0.19907,31.73913 0.0343,34.7554 0.74726,9.65816 4.31855,14.45698 11.76367,15.80713 0.51361,0.0931 2.55383,0.13974 4.53383,0.10354 2.97362,-0.0544 3.86042,-0.14168 5.09673,-0.50189 z m 34.8121,-0.12972 c 3.89993,-1.37624 6.25687,-3.901 7.54814,-8.0856 0.47426,-1.53693 0.90323,-4.71416 0.80919,-5.99346 l -0.0662,-0.9 -3.07308,-0.0553 c -2.0961,-0.0377 -3.16112,0.0177 -3.35,0.17449 -0.17115,0.14203 -0.27692,0.62841 -0.27692,1.27334 0,1.25686 -0.61293,3.75676 -1.20624,4.91972 -0.64889,1.27193 -2.10844,2.71662 -3.36634,3.33205 -0.94958,0.46459 -1.43699,0.56079 -3.16551,0.62477 -3.83089,0.14181 -5.95275,-0.9636 -7.35582,-3.8321 -1.47417,-3.01388 -1.79796,-6.77963 -1.64545,-19.13694 0.11779,-9.54372 0.31546,-11.70541 1.26355,-13.81804 1.71492,-3.82135 7.10246,-5.46409 11.42698,-3.48426 0.63121,0.28898 1.35897,0.72271 1.61724,0.96386 1.02087,0.95315 1.55158,2.64262 1.75418,5.58433 l 0.13459,1.95411 3.27141,0 3.27141,0 -0.003,-2.35 c -0.004,-2.93646 -0.36586,-4.69661 -1.39246,-6.7795 -1.27575,-2.58843 -3.26871,-4.16788 -6.40472,-5.07586 -2.11106,-0.61122 -7.13062,-0.77237 -9.76711,-0.31357 -7.36331,1.28136 -10.86508,5.74463 -11.63861,14.83425 -0.36097,4.24168 -0.15361,20.91019 0.29441,23.66614 1.0561,6.49657 3.68095,10.54299 7.93313,12.22955 2.03355,0.80658 3.43332,0.97451 7.67883,0.92126 3.8748,-0.0486 4.05349,-0.0691 5.70884,-0.65321 z m 30.49117,0.12681 c 4.83569,-1.30421 8.0176,-4.34117 9.24126,-8.82032 0.4497,-1.64609 0.49845,-6.58467 0.0798,-8.08555 -0.45307,-1.62434 -1.76261,-3.96724 -2.95221,-5.28179 -1.98501,-2.19351 -3.7686,-3.39384 -9.67057,-6.5082 -5.66103,-2.98722 -7.50965,-4.41392 -8.73578,-6.74197 -0.51786,-0.98326 -0.56251,-1.24267 -0.56251,-3.26804 0,-2.00582 0.0495,-2.30088 0.56123,-3.34289 0.68711,-1.39923 1.99905,-2.59257 3.50935,-3.19212 0.94313,-0.37439 1.52529,-0.44971 3.52942,-0.45667 2.22076,-0.008 2.48962,0.0336 3.6,0.55299 1.38053,0.64575 2.13865,1.30463 2.80913,2.4414 0.57142,0.96881 1.08275,3.02976 1.09098,4.39729 0.003,0.55 0.0789,1.11487 0.168,1.25526 0.12278,0.19347 0.93292,0.24188 3.34694,0.2 l 3.18495,-0.0553 -0.0153,-2.2 c -0.0432,-6.19801 -3.10149,-10.35216 -8.68468,-11.79649 -2.0112,-0.52028 -6.71888,-0.63722 -8.78654,-0.21826 -6.57912,1.3331 -10.35872,5.31364 -11.01078,11.59616 -0.44097,4.24865 0.70853,7.58217 3.62998,10.52686 1.71647,1.73012 3.78596,3.09112 8.36734,5.50278 6.37104,3.35375 8.54564,5.01375 9.72999,7.42744 0.51281,1.04511 0.5694,1.36194 0.56468,3.16151 -0.006,2.31409 -0.24762,3.28772 -1.14739,4.62482 -0.80236,1.19233 -1.98221,2.10338 -3.49082,2.69553 -0.99146,0.38916 -1.5417,0.45574 -3.85646,0.46662 -2.37831,0.0112 -2.83694,-0.0426 -3.84933,-0.45126 -2.96819,-1.19817 -4.74245,-4.12983 -4.7483,-7.84571 -10e-4,-0.90472 -0.0986,-1.6062 -0.24237,-1.75 -0.16336,-0.16336 -1.11683,-0.24 -2.98571,-0.24 -3.70196,0 -3.52232,-0.2108 -3.17393,3.72455 0.6142,6.93789 4.08509,10.91827 10.53159,12.07753 0.53243,0.0957 2.63305,0.14286 4.66805,0.1047 3.00703,-0.0564 3.99966,-0.1502 5.3,-0.50091 z"
         id="path3072"
         inkscape:connector-curvature="0"
         sodipodi:nodetypes="cscscccsssscccssscsssssscscccssccccssssssscscscccccsccscsssssssscsccccssssssscccsssssscscsscccccsssssscssssccsscscc" />
    </g>
  </g>
</svg>
