<svg xmlns="http://www.w3.org/2000/svg" viewBox="0 0 150 150"><defs><style>.a{fill:#fff;}</style></defs><path class="a" d="M51.97853,43.58065a1.52,1.52,0,0,0,2.14216-.0006l19.834-19.83061a1.51872,1.51872,0,0,1,2.14143.00009L95.92658,43.58a1.51974,1.51974,0,0,0,2.142.00069l.85431-.85325a1.5175,1.5175,0,0,0,.00065-2.14074L79.0894,20.75254c-.58884-.58889-1.55217-1.55282-2.14069-2.14208l-.85325-.85427a1.5175,1.5175,0,0,0-2.14074-.00064l-.85561.85561-2.14138,2.14138L51.12361,40.58666a1.51749,1.51749,0,0,0,.00065,2.14074Z"/><path class="a" d="M75.12359,48.24012h3.21709a.64382.64382,0,0,0,0-1.28763H75.76737V42.71164a.64381.64381,0,0,0-1.28762,0v4.88469A.64371.64371,0,0,0,75.12359,48.24012Z"/><path class="a" d="M119.038,59.09019H93.8595V44.93592L75.02544,26.10186,56.19138,44.93592V59.09019H30.962a3.03726,3.03726,0,0,0-3.02837,3.02837V98.406a3.0373,3.0373,0,0,0,3.02837,3.02837H69.13889V82.60035h11.7694v18.83406H119.038a3.0373,3.0373,0,0,0,3.02837-3.02837V62.11856A3.03726,3.03726,0,0,0,119.038,59.09019ZM75.00691,38.4529a8.83178,8.83178,0,0,1,8.83914,8.82431v.02592a8.82432,8.82432,0,0,1-8.82061,8.81321h-.0037a8.83172,8.83172,0,1,1-.01483-17.66344ZM40.88405,89.665H32.65252V81.426h8.239Zm0-11.77315H32.65252V69.66023h8.239ZM52.6572,89.665h-8.239V81.426h8.239Zm0-11.77315h-8.239V69.66023h8.239ZM64.42665,89.665H56.19138V81.426h8.239Zm0-11.77315H56.19138V69.66023h8.239ZM93.8558,89.665H85.62792V81.426h8.24267Zm0-11.77315H85.62792V69.66023h8.24267ZM105.63265,89.665H97.38624V81.426h8.24641Zm0-11.77315H97.38624V69.66023h8.24641ZM109.15938,89.665V81.426h8.239l.00369,8.239Zm0-11.77315V69.66023h8.239l.00369,8.23158Z"/><path class="a" d="M111.12646,113.44336a10.38576,10.38576,0,0,0-10.31854,9.32422H85.31805a10.371,10.371,0,0,0-20.6361,0H49.19208a10.37132,10.37132,0,0,0-20.68964,1.04687c0,.10175.01233.20038.01526.30146a1.47929,1.47929,0,0,0-.01526.15167,1.496,1.496,0,0,0,.0398.33246,10.36276,10.36276,0,0,0,20.51233,1.16754H64.8194a10.365,10.365,0,0,0,20.3612,0h15.76483a10.36906,10.36906,0,1,0,10.181-12.32422ZM44.356,122.5918l-5.88135,5.88134-.01148.00763a1.49532,1.49532,0,0,1-2.093.08124l-2.9253-2.65039a1.50028,1.50028,0,0,1,2.01465-2.22363l1.86676,1.69134,4.90863-4.90863a1.49984,1.49984,0,1,1,2.1211,2.1211ZM75,131.186a7.37134,7.37134,0,1,1,7.37109-7.37159A7.37953,7.37953,0,0,1,75,131.186Zm36.12646,0a7.37134,7.37134,0,1,1,7.3711-7.37159A7.37963,7.37963,0,0,1,111.12646,131.186Z"/></svg>