<?xml version="1.0" encoding="utf-8"?>
<!-- Generator: Adobe Illustrator 15.0.2, SVG Export Plug-In . SVG Version: 6.00 Build 0)  -->
<!DOCTYPE svg PUBLIC "-//W3C//DTD SVG 1.1//EN" "http://www.w3.org/Graphics/SVG/1.1/DTD/svg11.dtd">
<svg version="1.1" id="Ebene_1" xmlns="http://www.w3.org/2000/svg" xmlns:xlink="http://www.w3.org/1999/xlink" x="0px" y="0px"
	 width="50px" height="50px" viewBox="0 0 50 50" enable-background="new 0 0 50 50" xml:space="preserve">
<rect y="32.816" fill="#FFFFFF" width="49.982" height="1.743"/>
<path fill="#7AB51D" d="M49.982,32.816V8.331c0-4.601-3.729-8.331-8.33-8.331h-25.62c-4.598,0-7.695,3.096-7.701,7.692H8.324v0.011
	C3.725,7.71,0,11.433,0,16.031v16.785H49.982z"/>
<path fill="#878781" d="M0,34.56v7.092c0,4.603,3.731,8.331,8.331,8.331H33.32c4.604,0,8.332-3.729,8.332-8.331
	c4.176,0,7.622-3.079,8.22-7.092H0z"/>
<g>
	<path fill="#FFFFFF" d="M5.78,10.336h2.543v12.356c0,4.228,1.328,5.296,3.736,5.296c2.404,0,3.734-1.068,3.734-5.296V10.336h2.545
		v12.252c0,5.347-2.046,7.458-6.279,7.458c-4.233,0-6.28-2.111-6.28-7.458V10.336z"/>
	<path fill="#FFFFFF" d="M28.56,15.659c0.029-1.098-0.056-2.193-0.582-2.808c-0.523-0.615-1.716-0.829-2.239-0.829
		c-2.103,0-2.933,1.23-3.015,1.497c-0.084,0.215-0.583,0.696-0.583,4.013v5.16c0,4.736,1.605,5.296,3.57,5.296
		c0.775,0,3.126-0.268,3.154-4.037h2.627c0.111,6.095-4.343,6.095-5.644,6.095c-2.488,0-6.307-0.16-6.307-7.645v-5.458
		c0-5.455,2.489-7.007,6.417-7.007c3.957,0,5.479,1.979,5.229,5.723H28.56z"/>
	<path fill="#FFFFFF" d="M34.654,23.897v0.562c0,2.62,1.716,3.448,3.349,3.448c2.018,0,3.566-0.828,3.566-3.128
		c0-4.281-8.963-3.798-8.963-9.6c0-3.425,2.52-5.244,5.864-5.244c3.655,0,5.701,1.713,5.534,5.643H41.35
		c0.029-2.113-0.664-3.503-3.073-3.503c-1.522,0-3.068,0.747-3.068,2.835c0,4.252,8.963,3.638,8.963,9.763
		c0,4.062-2.905,5.372-6.199,5.372c-5.891,0.057-5.891-4.303-5.835-6.148H34.654z"/>
</g>
<g>
	<path fill="#FFFFFF" d="M9.474,39.355h0.629l-1.201,3.592c-0.069,0.195-0.16,0.48-0.16,0.676c0,0.186,0.251,0.264,0.605,0.264
		c1.362,0,1.991-1.717,1.991-2.414c0-3.034-2.551-3.239-3.626-3.239c-2.026,0-3.627,1.647-3.627,3.743
		c0,2.081,1.601,3.739,3.627,3.739c1.453,0,2.723-0.594,3.478-1.622h0.606c-0.755,1.385-2.299,2.173-4.084,2.173
		c-2.3,0-4.176-1.923-4.176-4.29c0-2.357,1.876-4.291,4.176-4.291c2.219,0,4.176,0.938,4.176,3.616c0,1.897-1.453,3.133-2.666,3.133
		c-0.526,0-0.88-0.091-1.018-0.572c-0.469,0.425-0.916,0.572-1.42,0.572c-0.959,0-1.44-0.801-1.44-1.763
		c0-1.588,1.041-3.546,2.735-3.546c0.56,0,0.983,0.263,1.222,0.79L9.474,39.355z M8.238,42.914c0.332-0.744,0.732-2.026,0.732-2.403
		c0-0.398-0.344-0.836-0.904-0.836c-1.203,0-2.038,1.774-2.038,2.862c0,0.868,0.332,1.35,0.916,1.35
		C7.654,43.887,8.008,43.416,8.238,42.914z"/>
	<path fill="#FFFFFF" d="M14.462,45.268c-1.247,0-1.74-0.606-1.728-1.831h0.697c0,0.788,0.183,1.314,1.064,1.314
		c0.664,0,0.983-0.377,0.983-1.018c0-1.51-2.597-1.122-2.597-3.033c0-1.062,0.732-1.439,1.739-1.439c1.144,0,1.509,0.789,1.509,1.67
		h-0.673c-0.035-0.732-0.229-1.121-1.007-1.121c-0.492,0-0.881,0.32-0.881,0.835c0,1.441,2.597,1.054,2.597,2.986
		C16.166,44.72,15.537,45.268,14.462,45.268z"/>
	<path fill="#FFFFFF" d="M19.897,41.034c0.033-0.723-0.229-1.225-1.02-1.225c-0.423,0-0.778,0.24-0.927,0.664
		c-0.09,0.263-0.159,1.053-0.159,1.818c0,1.042,0,2.428,1.064,2.428c0.904,0,1.018-0.572,1.051-1.271h0.688
		c0.057,1.556-1.042,1.819-1.577,1.819c-1.958,0-1.958-1.545-1.958-2.976c0-0.572,0.023-1.475,0.171-1.909
		c0.298-0.825,0.951-1.122,1.741-1.122c0.994,0,1.669,0.56,1.612,1.773H19.897z"/>
	<path fill="#FFFFFF" d="M21.715,45.153v-8.262h0.686v3.191h0.023c0.333-0.479,0.777-0.822,1.396-0.822
		c1.43,0,1.579,1.065,1.579,1.82v4.072h-0.688v-4.039c0-0.675-0.26-1.305-1.063-1.305c-0.618,0-1.248,0.424-1.248,1.717v3.627
		H21.715z"/>
	<path fill="#FFFFFF" d="M26.587,42.887v-1.371c0-0.734,0.013-2.255,1.992-2.255c1.98,0,1.99,1.521,1.99,2.255v1.371
		c0,1.499-0.514,2.381-1.99,2.381C27.102,45.268,26.587,44.386,26.587,42.887z M29.748,43.951c0.112-0.285,0.138-1.325,0.138-1.692
		c0-1.705-0.174-2.449-1.306-2.449c-1.134,0-1.304,0.744-1.304,2.449c0,0.367,0.022,1.407,0.137,1.692
		c0.058,0.139,0.22,0.769,1.167,0.769C29.53,44.72,29.69,44.09,29.748,43.951z"/>
	<path fill="#FFFFFF" d="M31.611,42.887v-1.371c0-0.734,0.012-2.255,1.991-2.255s1.989,1.521,1.989,2.255v1.371
		c0,1.499-0.515,2.381-1.989,2.381S31.611,44.386,31.611,42.887z M34.769,43.951c0.114-0.285,0.138-1.325,0.138-1.692
		c0-1.705-0.172-2.449-1.305-2.449c-1.132,0-1.304,0.744-1.304,2.449c0,0.367,0.023,1.407,0.136,1.692
		c0.058,0.139,0.218,0.769,1.168,0.769C34.551,44.72,34.711,44.09,34.769,43.951z"/>
	<path fill="#FFFFFF" d="M37.012,45.153v-8.262h0.685v8.262H37.012z"/>
</g>
</svg>
