<?xml version="1.0" encoding="UTF-8" standalone="no"?>
<!-- Created with Inkscape (http://www.inkscape.org/) -->

<svg
   xmlns:dc="http://purl.org/dc/elements/1.1/"
   xmlns:cc="http://creativecommons.org/ns#"
   xmlns:rdf="http://www.w3.org/1999/02/22-rdf-syntax-ns#"
   xmlns:svg="http://www.w3.org/2000/svg"
   xmlns="http://www.w3.org/2000/svg"
   version="1.1"
   width="70"
   height="70"
   id="svg5028">
  <defs
     id="defs8" />
  <metadata
     id="metadata5033">
    <rdf:RDF>
      <cc:Work
         rdf:about="">
        <dc:format>image/svg+xml</dc:format>
        <dc:type
           rdf:resource="http://purl.org/dc/dcmitype/StillImage" />
        <dc:title></dc:title>
      </cc:Work>
    </rdf:RDF>
  </metadata>
  <path
     d="m 34.312,37.808678 0,3.277 c 0,0.633 -0.513,1.147 -1.147,1.147 -0.633,0 -1.147,-0.514 -1.147,-1.147 l 0,-3.277 c 0,-0.633 0.514,-1.147 1.147,-1.147 0.634,0 1.147,0.514 1.147,1.147 m -5.079,-1.147 c -0.633,0 -1.147,0.514 -1.147,1.147 l 0,3.277 c 0,0.633 0.514,1.147 1.147,1.147 0.633,0 1.147,-0.514 1.147,-1.147 l 0,-3.277 c 0,-0.633 -0.514,-1.147 -1.147,-1.147 m 12.943,-8.071 c 0,-0.634 -0.513,-1.147 -1.147,-1.147 -0.633,0 -1.147,0.513 -1.147,1.147 l 0,3.276 c 0,0.634 0.514,1.147 1.147,1.147 0.634,0 1.147,-0.513 1.147,-1.147 l 0,-3.276 z m -5.079,-1.147 c -0.633,0 -1.147,0.513 -1.147,1.147 l 0,3.276 c 0,0.634 0.514,1.147 1.147,1.147 0.634,0 1.147,-0.513 1.147,-1.147 l 0,-3.276 c 0,-0.634 -0.513,-1.147 -1.147,-1.147 m 1.147,10.365 c 0,-0.633 -0.513,-1.147 -1.147,-1.147 -0.633,0 -1.147,0.514 -1.147,1.147 l 0,3.277 c 0,0.633 0.514,1.147 1.147,1.147 0.634,0 1.147,-0.514 1.147,-1.147 l 0,-3.277 z m 10.256,-11.578 0,17.17 c 0,2.715 -2.2,4.915 -4.915,4.915 l -17.17,0 c -2.714,0 -4.915,-2.2 -4.915,-4.915 l 0,-17.17 c 0,-2.714 2.201,-4.915 4.915,-4.915 l 17.17,0 c 2.715,0 4.915,2.201 4.915,4.915 m -2.621,0.328 c 0,-1.448 -1.174,-2.621 -2.622,-2.621 l -16.514,0 c -1.448,0 -2.622,1.173 -2.622,2.621 l 0,2.687 10.191,0 0,1.966 -10.191,0 0,7.252 2.261,0 0,1.966 -2.261,0 0,2.644 c 0,1.447 1.174,2.621 2.622,2.621 l 16.514,0 c 1.448,0 2.622,-1.174 2.622,-2.621 l 0,-2.644 -5.931,0 0,-1.966 5.931,0 0,-7.252 -2.065,0 0,-1.966 2.065,0 0,-2.687 z"
     id="path1434"
     style="fill:#ffffff;fill-opacity:1;fill-rule:nonzero;stroke:none" />
</svg>
