<svg xmlns="http://www.w3.org/2000/svg" viewBox="0 0 150 150"><defs><style>.a{fill:#fff;}</style></defs><path class="a" d="M65.84668,100.49194v8.85718a3,3,0,0,0,6,0v-8.85718Z"/><path class="a" d="M24.25684,100.49194v8.85718a3,3,0,0,0,6,0v-8.85718Z"/><path class="a" d="M120.15039,100.49194v8.85718a3,3,0,0,0,6,0v-8.85718Z"/><path class="a" d="M78.56055,100.49194v8.85718a3,3,0,0,0,6,0v-8.85718Z"/><path class="a" d="M123.15582,84.24219H111.75348l.16864.77722,2.10522,2.10522a3,3,0,0,1-2.12127,5.12134H90.07629A3,3,0,0,1,87.955,87.12463l2.10522-2.10522.16864-.77722H76.87329l-.0155,13.24975h50.91778Z"/><path class="a" d="M59.90851,84.24219l.16864.77722,2.10522,2.10522A3,3,0,0,1,60.0611,92.246H38.23132A3,3,0,0,1,36.11,87.12463l2.10522-2.10522.16864-.77722H26.84418L22.22449,97.49194H73.143l-.01624-13.24975Z"/><path class="a" d="M111.34351,40.65063H79.32605a1.06075,1.06075,0,0,0-1.05768,1.05768v8.64118c.29621.04211.58917.09149.88111.14386a4.18082,4.18082,0,0,1,1.3648-.23792h1.57929v-5.7796H108.576v5.7796h3.82519V41.70831A1.06075,1.06075,0,0,0,111.34351,40.65063Z"/><path class="a" d="M75,58.544A6.45508,6.45508,0,1,0,81.45508,64.999,6.46209,6.46209,0,0,0,75,58.544Zm0,9.91015A3.45508,3.45508,0,1,1,75,61.544a3.40678,3.40678,0,0,1,.98877.16156,2.13109,2.13109,0,0,0,2.45544,3.18609c.00116.0365.01087.07062.01087.10742A3.45882,3.45882,0,0,1,75,68.4541Z"/><path class="a" d="M68.04376,50.25543h1.57929a4.17773,4.17773,0,0,1,1.3208.22168q.45932-.08066.92511-.145V41.70831a1.06075,1.06075,0,0,0-1.05768-1.05768H38.79376a1.06073,1.06073,0,0,0-1.05761,1.05768v8.54712h3.82513v-5.7796H68.04376Z"/><path class="a" d="M121.468,53.25543H87.15491a39.85,39.85,0,0,1,7.77966,5.27051h22.61578V75.27209H89.76416A30.74919,30.74919,0,0,1,79.2,79.49652a1.35585,1.35585,0,0,0,1.31433,1.04608h13.5871L92.805,86.51721,90.07629,89.246h21.82978l-2.72876-2.72876-1.29639-5.97461H121.468a1.35676,1.35676,0,0,0,1.35284-1.35284V54.60828A1.35676,1.35676,0,0,0,121.468,53.25543Z"/><path class="a" d="M60.23633,75.27209H32.587V58.52594H55.06549a39.85932,39.85932,0,0,1,7.78027-5.27051H28.66931a1.35676,1.35676,0,0,0-1.35284,1.35285V79.18976a1.35676,1.35676,0,0,0,1.35284,1.35284h13.5871L40.96,86.51721,38.23132,89.246H60.0611l-2.72876-2.72876L56.036,80.5426h13.5871a1.35474,1.35474,0,0,0,1.30725-1.02337A30.669,30.669,0,0,1,60.23633,75.27209Z"/><path class="a" d="M95.52344,63.23047l-.002-.00195C95.15137,62.81543,86.33105,53.11133,75,53.11133s-20.15137,9.7041-20.52148,10.11719a2.65155,2.65155,0,0,0,.001,3.543c.3711.41309,9.21094,10.11524,20.52051,10.11524s20.14941-9.70215,20.52344-10.11817A2.65479,2.65479,0,0,0,95.52344,63.23047ZM75,73.88672c-9.083,0-16.70508-7.46973-18.07031-8.8877C58.293,63.5791,65.90039,56.11133,75,56.11133S91.70605,63.5791,93.07031,64.999C91.70117,66.4209,84.08105,73.88672,75,73.88672Z"/></svg>