<?xml version="1.0" encoding="UTF-8" standalone="no"?>
<!-- Created with Inkscape (http://www.inkscape.org/) -->

<svg
   xmlns:dc="http://purl.org/dc/elements/1.1/"
   xmlns:cc="http://creativecommons.org/ns#"
   xmlns:rdf="http://www.w3.org/1999/02/22-rdf-syntax-ns#"
   xmlns:svg="http://www.w3.org/2000/svg"
   xmlns="http://www.w3.org/2000/svg"
   version="1.1"
   width="70"
   height="70"
   id="svg5028">
  <defs
     id="defs8" />
  <metadata
     id="metadata5033">
    <rdf:RDF>
      <cc:Work
         rdf:about="">
        <dc:format>image/svg+xml</dc:format>
        <dc:type
           rdf:resource="http://purl.org/dc/dcmitype/StillImage" />
        <dc:title></dc:title>
      </cc:Work>
    </rdf:RDF>
  </metadata>
  <path
     d="m 51.339,26.4045 0,17.198 -1.097,0.176 0,-17.374 0,-3.479 c -5.891,0.179 -11.468,1.126 -15.244,3.477 -3.777,-2.351 -9.353,-3.298 -15.245,-3.477 l 0,3.479 0,17.374 -1.096,-0.176 0,-17.198 -1.807,0 0,19.298 13.698,0 c 2.236,0 2.482,1.372 4.45,1.372 1.972,0 2.209,-1.372 4.45,-1.372 l 13.702,0 0,-19.298 -1.811,0 z m -17.838,17.133 c -2.944,-1.167 -6.512,-1.919 -10.842,-2.244 l 0,-15.202 c 3.556,0.298 7.811,1.021 10.842,2.906 l 0,14.54 z m 13.835,-2.244 c -4.33,0.325 -7.898,1.077 -10.841,2.244 l 0,-14.54 c 3.031,-1.885 7.285,-2.608 10.841,-2.906 l 0,15.202 z"
     id="path1388"
     style="fill:#ffffff;fill-opacity:1;fill-rule:nonzero;stroke:none" />
</svg>
