<?xml version="1.0" encoding="UTF-8" standalone="no"?>
<svg
   xmlns:dc="http://purl.org/dc/elements/1.1/"
   xmlns:cc="http://creativecommons.org/ns#"
   xmlns:rdf="http://www.w3.org/1999/02/22-rdf-syntax-ns#"
   xmlns:svg="http://www.w3.org/2000/svg"
   xmlns="http://www.w3.org/2000/svg"
   xmlns:xlink="http://www.w3.org/1999/xlink"
   xmlns:sodipodi="http://sodipodi.sourceforge.net/DTD/sodipodi-0.dtd"
   xmlns:inkscape="http://www.inkscape.org/namespaces/inkscape"
   width="70"
   viewBox="0 0 70 52"
   height="52"
   id="svg2"
   version="1.1"
   inkscape:version="0.91 r13725"
   sodipodi:docname="media.svg">
  <metadata
     id="metadata36">
    <rdf:RDF>
      <cc:Work
         rdf:about="">
        <dc:format>image/svg+xml</dc:format>
        <dc:type
           rdf:resource="http://purl.org/dc/dcmitype/StillImage" />
        <dc:title></dc:title>
      </cc:Work>
    </rdf:RDF>
  </metadata>
  <sodipodi:namedview
     pagecolor="#ffffff"
     bordercolor="#666666"
     borderopacity="1"
     objecttolerance="10"
     gridtolerance="10"
     guidetolerance="10"
     inkscape:pageopacity="0"
     inkscape:pageshadow="2"
     inkscape:window-width="944"
     inkscape:window-height="1045"
     id="namedview34"
     showgrid="false"
     fit-margin-top="0"
     fit-margin-left="0"
     fit-margin-right="0"
     fit-margin-bottom="0"
     inkscape:zoom="3.6875"
     inkscape:cx="36.796311"
     inkscape:cy="1.2659267"
     inkscape:window-x="2326"
     inkscape:window-y="0"
     inkscape:window-maximized="0"
     inkscape:current-layer="svg2" />
  <defs
     id="defs4">
    <linearGradient
       id="a"
       y1="392.35999"
       y2="324.66"
       gradientUnits="userSpaceOnUse"
       x2="0"
       gradientTransform="matrix(1,0,0,0.84587,-1,-272.73)">
      <stop
         stop-color="#ffffff"
         stop-opacity="0"
         id="stop7" />
      <stop
         offset="1"
         stop-color="#ffffff"
         stop-opacity=".2"
         id="stop9" />
    </linearGradient>
    <path
       id="b"
       d="m 3,17 0,44 58,0 0,-44 -18.455,0 z"
       inkscape:connector-curvature="0"
       style="color:#000000;color-interpolation:sRGB;color-interpolation-filters:linearRGB;color-rendering:auto;image-rendering:auto;shape-rendering:auto;text-rendering:auto" />
  </defs>
  <use
     xlink:href="#b"
     id="use12"
     style="fill:#dd042d;fill-opacity:1"
     x="0"
     y="0"
     width="100%"
     height="100%"
     transform="translate(3,-13)" />
  <g
     id="g14"
     style="color:#000000;color-interpolation:sRGB;color-interpolation-filters:linearRGB;color-rendering:auto;image-rendering:auto;shape-rendering:auto;text-rendering:auto"
     transform="translate(3,-13)">
    <rect
       x="3"
       y="60"
       width="58"
       height="1"
       id="rect16"
       style="opacity:0.35" />
    <rect
       x="3"
       y="17"
       width="58"
       height="1"
       id="rect18"
       style="opacity:0.4;fill:#ffffff" />
  </g>
  <g
     id="g20"
     style="fill:#ffffff"
     transform="translate(3,-13)">
    <path
       d="m 32,28.00002 a 11,11 0 0 0 -11,11 11,11 0 0 0 11,11 11,11 0 0 0 11,-11 11,11 0 0 0 -11,-11 m 0.14453,0.95117 a 10,10 0 0 1 10,10 10,10 0 0 1 -10,10 10,10 0 0 1 -10,-10 10,10 0 0 1 10,-10"
       id="path22"
       inkscape:connector-curvature="0"
       style="opacity:0.75" />
    <g
       id="g24"
       style="color:#000000;color-interpolation:sRGB;color-interpolation-filters:linearRGB;color-rendering:auto;image-rendering:auto;shape-rendering:auto;text-rendering:auto">
      <path
         d="m 38.38,38.962 -10,5.538 0,-11 z"
         id="path26"
         inkscape:connector-curvature="0"
         style="opacity:0.75" />
      <path
         d="m 55,19 0,4 4,0 0,-4 z m 0,6 0,4 4,0 0,-4 z m 0,6 0,4 4,0 0,-4 z m 0,6 0,4 4,0 0,-4 z m 0,6 0,4 4,0 0,-4 z m 0,6 0,4 4,0 0,-4 z m 0,6 0,4 4,0 0,-4 z"
         id="path28"
         inkscape:connector-curvature="0"
         style="opacity:0.75" />
      <path
         d="m 5,19 0,4 4,0 0,-4 z m 0,6 0,4 4,0 0,-4 z m 0,6 0,4 4,0 0,-4 z m 0,6 0,4 4,0 0,-4 z m 0,6 0,4 4,0 0,-4 z m 0,6 0,4 4,0 0,-4 z m 0,6 0,4 4,0 0,-4 z"
         id="path30"
         inkscape:connector-curvature="0"
         style="opacity:0.75" />
    </g>
  </g>
  <use
     xlink:href="#b"
     id="use32"
     style="fill:url(#a)"
     x="0"
     y="0"
     width="100%"
     height="100%"
     transform="translate(3,-13)" />
</svg>
