<svg xmlns="http://www.w3.org/2000/svg" viewBox="0 0 150 150"><defs><style>.a{fill:#fff;}</style></defs><ellipse class="a" cx="74.97647" cy="53.45355" rx="21.24106" ry="21.52295"/><path class="a" d="M90.648,106.27551A23.745,23.745,0,0,1,110.57642,82.871c-2.67566-6.3117-7.27478-11.13476-15.00177-11.437a27.00254,27.00254,0,0,1-41.19623.00018c-15.53125.61261-18.40637,19.63135-18.40637,32.11432,0,9.0697,5.92114,14.52094,14.80285,14.52094H93.80261A23.55535,23.55535,0,0,1,90.648,106.27551Z"/><path class="a" d="M119.946,107.07385h-4.08856V98.333a1.5,1.5,0,0,0-3,0v8.74084H109.213c-2.2,0-2.72723,1.27277-1.17157,2.82843l3.48773,3.4878a4.01183,4.01183,0,0,0,5.65686,0l3.4878-3.4878C122.22943,108.34662,121.90192,107.07385,119.946,107.07385Z"/><path class="a" d="M114.35742,85.56592a20.70947,20.70947,0,1,0,20.71,20.70947A20.73268,20.73268,0,0,0,114.35742,85.56592Zm0,38.41894a17.70947,17.70947,0,1,1,17.71-17.70947A17.7294,17.7294,0,0,1,114.35742,123.98486Z"/></svg>