<svg xmlns="http://www.w3.org/2000/svg" viewBox="0 0 150 150"><defs><style>.a{fill:#fff;}</style></defs><path class="a" d="M71.949,94.83746l-.87866-.87866V79.3208H85.70813l.87866.87872,11.9906,11.99073,8.1034,8.10321V38.67682a3.00887,3.00887,0,0,0-3-3H46.31927a3.00883,3.00883,0,0,0-3,3v72.6463a3.00879,3.00879,0,0,0,3,3H91.43439Zm.50025-44.33941H93.53613a1.5,1.5,0,0,1,0,3H72.44922a1.5,1.5,0,0,1,0-3ZM53.08936,47.40527a1.50007,1.50007,0,0,1,1.5-1.5h8.60693a1.50008,1.50008,0,0,1,1.5,1.5v8.60645a1.50008,1.50008,0,0,1-1.5,1.5H54.58936a1.50007,1.50007,0,0,1-1.5-1.5Zm0,16.001a1.50007,1.50007,0,0,1,1.5-1.5h8.60693a1.50007,1.50007,0,0,1,1.5,1.5V72.0127a1.50008,1.50008,0,0,1-1.5,1.5H54.58936a1.50007,1.50007,0,0,1-1.5-1.5ZM66.7998,79.832l-7.66552,7.665-.00189.00122a1.49841,1.49841,0,0,1-2.11335.09937l-3.8125-3.45411a1.49992,1.49992,0,1,1,2.01465-2.22265l2.753,2.49414,6.70453-6.7041A1.49984,1.49984,0,0,1,66.7998,79.832Zm5.64942-13.333H93.53613a1.5,1.5,0,0,1,0,3H72.44922a1.5,1.5,0,0,1,0-3Z"/><rect class="a" x="56.08936" y="64.90625" width="5.60693" height="5.60645"/><path class="a" d="M114.19489,112.05017l-4.1485-4.1485L99.65106,118.297l4.14856,4.12292a3.1351,3.1351,0,0,0,2.2486.95,3.239,3.239,0,0,0,2.27417-.95l5.8725-5.847a3.327,3.327,0,0,0,.92437-2.27417A3.2186,3.2186,0,0,0,114.19489,112.05017Z"/><path class="a" d="M87.65649,85.51178l-3.191-3.19092H74.07025V92.71613l3.19092,3.191,8.79987,8.79981,8.7998,8.79986,3.191,3.19092,10.39526-10.39532ZM77.07025,91.47351V85.32086H83.2229l2.31226,2.31226-6.15265,6.15265Zm22.55133,20.27258a1.49943,1.49943,0,0,1-2.12109,0L82.94189,97.1875a1.49984,1.49984,0,0,1,2.1211-2.12109L99.62158,109.625A1.49944,1.49944,0,0,1,99.62158,111.74609Zm2.89893-3.708a1.49515,1.49515,0,0,1-1.06055-.43946L86.90137,93.04A1.49984,1.49984,0,0,1,89.02246,90.919l14.55859,14.55859a1.5,1.5,0,0,1-1.06054,2.56055Z"/><rect class="a" x="56.08936" y="48.90527" width="5.60693" height="5.60645"/></svg>