<svg xmlns="http://www.w3.org/2000/svg" viewBox="0 0 150 150"><defs><style>.a{fill:#fff;}</style></defs><ellipse class="a" cx="74.97718" cy="41.95111" rx="20.60061" ry="20.874"/><path class="a" d="M40.4021,72.52325l7.051,2.12861q12.779,3.85794,25.56019,7.70922c.04663.00312.09332.00544.13964.00843l.09009.0058c.35291.023.712.03466,1.06745.03466a20.74948,20.74948,0,0,0,6.2055-1.04516c7.72443-2.40924,15.596-4.76929,23.20825-7.05164q3.25077-.97467,6.50067-1.9527c-2.45629-7.01959-7.027-12.64862-15.27063-12.97107a26.18836,26.18836,0,0,1-39.9541.00019c-8.20312.32354-12.76074,5.9447-15.21533,12.94983C39.989,72.40045,40.19855,72.46179,40.4021,72.52325Z"/><path class="a" d="M90.648,106.27551a23.73645,23.73645,0,0,1,23.70959-23.70959c.03815,0,.07569.00268.11377.00287-.00964-2.37268-.00378-2.47-.00647-5.6377-.00012-.18732-.03277-.37457-.05322-.5935-.23041.063-.38977.10284-.54645.15008-10.62494,3.20361-21.27166,6.34772-31.86041,9.65039A25.634,25.634,0,0,1,74.31049,87.41q-.69215,0-1.393-.04528a5.10808,5.10808,0,0,1-1.128-.1504Q55.37,82.27173,38.95728,77.31c-1.08539-.32758-2.17383-.64661-3.32831-.98963,0,1.27851.00073,2.47394-.00012,3.66944-.00159,2.24579-.01026,1.5661.00158,2.93567a12.48975,12.48975,0,0,1,1.9574.30474c1.83807.45533,3.63885.98377,5.35236,1.57068,6.70758,2.29749,10.81127,9.65778,8.96118,16.07239a12.3191,12.3191,0,0,1-11.9046,8.68958c-.3487,0-.702-.01447-1.0503-.043l-.22967-.0188c-1.01013-.08258-2.04285-.17218-3.09363-.29749.00268,1.45783.0119.58606-.01434,2.81867-.006.51642.18035.71222.70477.86956q15.73855,4.72266,31.4638,9.48328c3.81684,1.15192,4.51819,1.36475,7.3454,1.36475.63623,0,1.38019-.01081,2.29163-.02405a3.38536,3.38536,0,0,0,.91235-.14667q7.95-2.3941,15.89966-4.78869A23.56152,23.56152,0,0,1,90.648,106.27551Z"/><path class="a" d="M122.81323,106.85413l-5.15985-5.15986c-.77777-.77783-1.41418-.51422-1.41418.58576v4.52c-2.5727.38751-4.5661.02771-5.92719-1.072-1.41943-1.14649-2.21924-3.17139-2.37793-6.01807a1.49989,1.49989,0,0,0-2.99512.167c.20752,3.729,1.38086,6.48243,3.4878,8.18457a9.14616,9.14616,0,0,0,5.92529,1.89209,15.46752,15.46752,0,0,0,1.88715-.134v4.43695c0,1.1.63641,1.36359,1.41418.58576l5.15985-5.15979A2.00586,2.00586,0,0,0,122.81323,106.85413Z"/><path class="a" d="M41.32,89.53107c-1.61664-.55371-3.2688-1.035-4.93433-1.44751a7.33547,7.33547,0,0,0-1.765-.221,5.57325,5.57325,0,0,0-5.71851,4.76074c-.21039,1.33692-.33075,2.68592-.49206,4.02936a7.09,7.09,0,0,0,5.87786,7.30078,49.26747,49.26747,0,0,0,5.06726.58307q.32281.02646.64155.02631a7.31706,7.31706,0,0,0,7.1004-5.07514C48.21289,95.61932,45.54828,90.97937,41.32,89.53107Z"/><path class="a" d="M114.35742,85.56592a20.70947,20.70947,0,1,0,20.71,20.70947A20.73268,20.73268,0,0,0,114.35742,85.56592Zm0,38.41894a17.70947,17.70947,0,1,1,17.71-17.70947A17.7294,17.7294,0,0,1,114.35742,123.98486Z"/></svg>