<?xml version="1.0" encoding="UTF-8" standalone="no"?>
<!-- Generator: Adobe Illustrator 15.0.2, SVG Export Plug-In . SVG Version: 6.00 Build 0)  -->

<svg
   xmlns:dc="http://purl.org/dc/elements/1.1/"
   xmlns:cc="http://creativecommons.org/ns#"
   xmlns:rdf="http://www.w3.org/1999/02/22-rdf-syntax-ns#"
   xmlns:svg="http://www.w3.org/2000/svg"
   xmlns="http://www.w3.org/2000/svg"
   xmlns:xlink="http://www.w3.org/1999/xlink"
   xmlns:sodipodi="http://sodipodi.sourceforge.net/DTD/sodipodi-0.dtd"
   xmlns:inkscape="http://www.inkscape.org/namespaces/inkscape"
   version="1.1"
   id="Ebene_1"
   x="0px"
   y="0px"
   width="99"
   height="99"
   viewBox="0 0 99.000003 99.000003"
   xml:space="preserve"
   inkscape:version="0.48.3.1 r9886"
   sodipodi:docname="Icon_Klassen.svg"><metadata
   id="metadata409"><rdf:RDF><cc:Work
       rdf:about=""><dc:format>image/svg+xml</dc:format><dc:type
         rdf:resource="http://purl.org/dc/dcmitype/StillImage" /></cc:Work></rdf:RDF></metadata><defs
   id="defs407" /><sodipodi:namedview
   pagecolor="#ffffff"
   bordercolor="#666666"
   borderopacity="1"
   objecttolerance="10"
   gridtolerance="10"
   guidetolerance="10"
   inkscape:pageopacity="0"
   inkscape:pageshadow="2"
   inkscape:window-width="950"
   inkscape:window-height="615"
   id="namedview405"
   showgrid="false"
   fit-margin-top="0"
   fit-margin-left="0"
   fit-margin-right="0"
   fit-margin-bottom="0"
   inkscape:zoom="1.1774304"
   inkscape:cx="-88.605976"
   inkscape:cy="35.982168"
   inkscape:window-x="0"
   inkscape:window-y="0"
   inkscape:window-maximized="0"
   inkscape:current-layer="Ebene_1" />
<g
   id="g3"
   transform="translate(-92.552998,-92.178999)">
	<g
   id="g5">
		<g
   id="g7">
			<path
   style="fill:#58595b"
   d="m 96.763,163.425 c 0,0.291 0.235,0.525 0.525,0.525 H 187.4 c 0.289,0 0.523,-0.234 0.523,-0.525 V 98.521 c 0,-0.291 -0.234,-0.525 -0.523,-0.525 H 97.288 c -0.29,0 -0.525,0.234 -0.525,0.525 v 64.904 z"
   id="path9"
   inkscape:connector-curvature="0" />
		</g>
		<g
   id="g11">
			<path
   style="fill:#7bb51d"
   d="m 99.704,160.694 c 0,0.289 0.235,0.525 0.525,0.525 h 84.23 c 0.289,0 0.525,-0.236 0.525,-0.525 v -59.443 c 0,-0.291 -0.236,-0.525 -0.525,-0.525 h -84.23 c -0.29,0 -0.525,0.234 -0.525,0.525 v 59.443 z"
   id="path13"
   inkscape:connector-curvature="0" />
		</g>
		<path
   style="fill:#5e8f28"
   d="m 130.63,139.983 c -10.886,-0.533 -20.852,-2.357 -31.031,-5.965 l 0.105,26.676 c 0,0.289 0.235,0.525 0.526,0.525 h 50.269 23.574 10.387 c 0.289,0 0.525,-0.236 0.525,-0.525 v -30.131 c -1.396,0.764 -9.732,3.719 -17.266,5.604 -9.385,2.346 -26.202,4.35 -37.089,3.816 z"
   id="path15"
   inkscape:connector-curvature="0" />
	</g>
	<g
   id="g17">
		<path
   style="fill:#ffffff"
   d="m 123.003,119.103 c 0.225,-0.01 0.427,0.029 0.605,0.117 0.179,0.089 0.329,0.203 0.45,0.34 0.12,0.139 0.2,0.304 0.238,0.495 0.039,0.191 0.018,0.392 -0.062,0.601 -0.028,0.09 -0.096,0.202 -0.202,0.332 -0.106,0.13 -0.208,0.212 -0.305,0.248 -0.771,0.318 -1.576,0.546 -2.409,0.689 -0.834,0.142 -1.666,0.21 -2.497,0.207 -0.239,-0.001 -0.499,10e-4 -0.782,0.004 -0.282,0.003 -0.537,-0.052 -0.762,-0.167 -0.411,-0.209 -0.64,-0.544 -0.687,-1.004 l -0.81,-7.95 c -0.146,-0.086 -0.271,-0.199 -0.374,-0.34 -0.102,-0.14 -0.171,-0.293 -0.207,-0.459 -0.035,-0.166 -0.031,-0.33 0.017,-0.492 0.046,-0.161 0.139,-0.306 0.276,-0.433 0.228,-0.226 0.501,-0.387 0.817,-0.489 0.316,-0.101 0.627,-0.193 0.934,-0.273 0.637,-0.166 1.279,-0.282 1.926,-0.348 0.646,-0.065 1.306,-0.139 1.976,-0.22 0.199,-0.02 0.428,-0.059 0.686,-0.117 0.257,-0.058 0.49,-0.06 0.697,-0.004 0.245,0.063 0.445,0.18 0.602,0.354 0.155,0.172 0.256,0.363 0.303,0.572 0.046,0.209 0.027,0.418 -0.059,0.627 -0.086,0.211 -0.253,0.384 -0.503,0.523 -0.298,0.157 -0.625,0.246 -0.98,0.27 -0.356,0.024 -0.696,0.052 -1.02,0.085 -0.473,0.048 -0.945,0.103 -1.417,0.163 -0.471,0.06 -0.94,0.147 -1.407,0.256 l 0.265,2.595 c 0.45,-0.021 0.898,-0.067 1.343,-0.137 0.446,-0.071 0.891,-0.148 1.335,-0.231 0.197,-0.032 0.395,-0.071 0.591,-0.116 0.196,-0.046 0.402,-0.067 0.616,-0.062 0.277,0.009 0.5,0.1 0.669,0.271 0.168,0.171 0.28,0.371 0.334,0.597 0.054,0.227 0.037,0.458 -0.052,0.694 -0.089,0.236 -0.253,0.415 -0.492,0.54 -0.203,0.108 -0.482,0.204 -0.838,0.283 -0.356,0.081 -0.733,0.15 -1.129,0.209 -0.396,0.061 -0.787,0.109 -1.173,0.148 -0.386,0.039 -0.71,0.066 -0.972,0.081 l 0.233,2.295 c 0.693,0.018 1.385,-0.04 2.076,-0.173 0.69,-0.134 1.363,-0.321 2.017,-0.564 l 0.133,-0.017 z"
   id="path19"
   inkscape:connector-curvature="0" />
		<path
   style="fill:#ffffff"
   d="m 135.742,114.45 c 0.044,0.435 -0.06,0.776 -0.311,1.021 -0.251,0.246 -0.576,0.39 -0.974,0.43 l -4.927,0.502 c -0.187,0.019 -0.379,0.01 -0.578,-0.027 -0.199,-0.037 -0.375,-0.103 -0.53,-0.201 -0.154,-0.097 -0.277,-0.223 -0.369,-0.377 -0.09,-0.154 -0.135,-0.345 -0.133,-0.57 0.01,-0.391 0.16,-0.673 0.45,-0.849 0.291,-0.174 0.61,-0.279 0.958,-0.314 l 4.927,-0.501 c 0.136,-0.014 0.288,-0.007 0.455,0.021 0.165,0.027 0.321,0.073 0.466,0.141 0.145,0.067 0.271,0.162 0.377,0.282 0.109,0.12 0.172,0.267 0.189,0.442 z m 0.38,3.355 c 0.046,0.459 -0.034,0.839 -0.242,1.137 -0.209,0.298 -0.556,0.471 -1.041,0.521 l -4.964,0.506 c -0.386,0.039 -0.716,-0.025 -0.991,-0.191 -0.275,-0.168 -0.456,-0.375 -0.544,-0.624 -0.089,-0.248 -0.08,-0.503 0.025,-0.766 0.105,-0.263 0.339,-0.469 0.701,-0.619 0.181,-0.068 0.385,-0.115 0.608,-0.137 l 4.964,-0.506 c 0.273,-0.028 0.546,-0.004 0.817,0.067 0.272,0.074 0.477,0.241 0.617,0.502 l 0.05,0.11 z"
   id="path21"
   inkscape:connector-curvature="0" />
		<path
   style="fill:#ffffff"
   d="m 144.053,113.903 -0.026,-0.261 c -0.14,-0.274 -0.342,-0.457 -0.603,-0.551 -0.262,-0.092 -0.536,-0.137 -0.825,-0.133 -0.156,0.066 -0.281,0.136 -0.375,0.208 -0.092,0.072 -0.173,0.15 -0.239,0.231 -0.066,0.083 -0.127,0.173 -0.18,0.273 -0.053,0.1 -0.118,0.203 -0.194,0.312 l 0.498,4.89 c 0.039,0.386 -0.046,0.7 -0.253,0.94 -0.208,0.241 -0.451,0.392 -0.728,0.452 -0.276,0.059 -0.543,0.017 -0.796,-0.127 -0.253,-0.144 -0.406,-0.415 -0.46,-0.811 -0.122,-0.955 -0.242,-2.044 -0.359,-3.263 -0.118,-1.221 -0.254,-2.583 -0.407,-4.089 -0.027,-0.261 0.029,-0.485 0.166,-0.677 0.138,-0.189 0.313,-0.327 0.524,-0.412 0.212,-0.084 0.436,-0.104 0.673,-0.059 0.236,0.045 0.44,0.166 0.611,0.362 0.662,-0.419 1.345,-0.6 2.048,-0.538 0.704,0.06 1.363,0.322 1.976,0.788 0.224,-0.275 0.469,-0.525 0.733,-0.753 0.267,-0.229 0.564,-0.39 0.894,-0.488 0.379,-0.101 0.77,-0.126 1.172,-0.072 0.401,0.054 0.78,0.169 1.138,0.347 0.357,0.177 0.68,0.408 0.967,0.693 0.286,0.285 0.511,0.602 0.671,0.949 0.088,0.242 0.143,0.464 0.162,0.662 l 0.517,5.076 c 0.016,0.15 0.012,0.294 -0.012,0.436 -0.079,0.335 -0.233,0.58 -0.463,0.735 -0.229,0.156 -0.473,0.228 -0.731,0.216 -0.26,-0.01 -0.492,-0.107 -0.699,-0.287 -0.207,-0.18 -0.327,-0.438 -0.362,-0.774 l -0.511,-5.021 c -0.142,-0.287 -0.325,-0.488 -0.552,-0.603 -0.226,-0.116 -0.449,-0.156 -0.672,-0.121 -0.222,0.036 -0.429,0.139 -0.62,0.309 -0.188,0.17 -0.333,0.392 -0.431,0.666 l 0.498,4.89 c 0.034,0.336 -0.046,0.627 -0.241,0.873 -0.194,0.247 -0.419,0.414 -0.676,0.503 -0.254,0.089 -0.502,0.09 -0.744,0 -0.242,-0.088 -0.398,-0.299 -0.469,-0.63 l -0.62,-5.141 z"
   id="path23"
   inkscape:connector-curvature="0" />
		<path
   style="fill:#ffffff"
   d="m 160.236,115.292 c 0.29,-0.23 0.577,-0.348 0.859,-0.352 0.283,-0.003 0.522,0.07 0.72,0.22 0.197,0.149 0.321,0.363 0.367,0.641 0.048,0.278 -0.019,0.583 -0.199,0.916 -0.114,0.226 -0.291,0.438 -0.528,0.638 -0.238,0.2 -0.469,0.361 -0.695,0.486 -0.522,0.305 -1.064,0.473 -1.626,0.505 -0.563,0.033 -1.098,-0.052 -1.601,-0.252 -0.505,-0.2 -0.954,-0.503 -1.348,-0.909 -0.393,-0.407 -0.682,-0.896 -0.865,-1.468 -0.362,-1.094 -0.423,-2.176 -0.18,-3.243 0.1,-0.388 0.227,-0.766 0.385,-1.133 0.157,-0.369 0.358,-0.708 0.603,-1.023 0.244,-0.313 0.523,-0.598 0.838,-0.85 0.313,-0.251 0.665,-0.435 1.057,-0.55 0.268,-0.078 0.617,-0.11 1.046,-0.098 0.428,0.014 0.854,0.08 1.273,0.201 0.421,0.12 0.797,0.295 1.129,0.525 0.332,0.23 0.534,0.523 0.608,0.881 0.045,0.196 0.039,0.383 -0.019,0.558 -0.058,0.176 -0.148,0.326 -0.274,0.452 -0.125,0.125 -0.277,0.219 -0.452,0.282 -0.176,0.062 -0.36,0.078 -0.552,0.046 -0.229,-0.039 -0.416,-0.105 -0.558,-0.197 -0.141,-0.092 -0.326,-0.215 -0.556,-0.368 -0.103,-0.016 -0.2,-0.045 -0.293,-0.093 -0.093,-0.047 -0.188,-0.059 -0.286,-0.037 l -0.498,0.108 c -0.082,0.058 -0.158,0.109 -0.23,0.154 -0.07,0.044 -0.141,0.09 -0.212,0.135 -0.38,0.466 -0.643,0.968 -0.79,1.503 -0.146,0.537 -0.139,1.099 0.021,1.687 0.102,0.379 0.255,0.684 0.461,0.914 0.205,0.231 0.435,0.38 0.688,0.449 0.252,0.069 0.52,0.05 0.805,-0.054 0.285,-0.104 0.557,-0.301 0.816,-0.592 l 0.086,-0.082 z"
   id="path25"
   inkscape:connector-curvature="0" />
		<path
   style="fill:#ffffff"
   d="m 168.281,105.98 c -0.149,-0.242 -0.318,-0.357 -0.508,-0.349 -0.189,0.008 -0.396,0.103 -0.619,0.287 -0.109,0.085 -0.224,0.199 -0.345,0.344 -0.12,0.143 -0.25,0.267 -0.386,0.369 -0.136,0.102 -0.277,0.16 -0.427,0.175 -0.15,0.015 -0.305,-0.06 -0.469,-0.227 -0.14,-0.139 -0.2,-0.291 -0.184,-0.453 0.017,-0.163 0.071,-0.32 0.166,-0.474 0.095,-0.153 0.21,-0.294 0.348,-0.425 0.136,-0.132 0.252,-0.239 0.346,-0.322 0.223,-0.199 0.47,-0.357 0.743,-0.477 0.273,-0.12 0.551,-0.186 0.831,-0.201 0.281,-0.014 0.55,0.037 0.808,0.155 0.257,0.116 0.481,0.314 0.671,0.596 0.182,0.267 0.308,0.544 0.382,0.83 0.072,0.287 0.091,0.57 0.054,0.853 -0.038,0.281 -0.126,0.555 -0.264,0.818 -0.138,0.264 -0.327,0.502 -0.569,0.717 -0.148,0.132 -0.312,0.263 -0.494,0.391 -0.181,0.129 -0.354,0.267 -0.519,0.416 -0.164,0.15 -0.305,0.31 -0.423,0.482 -0.118,0.175 -0.188,0.375 -0.207,0.604 0.08,-0.008 0.197,-0.013 0.354,-0.015 0.158,-0.001 0.33,-0.007 0.515,-0.019 0.187,-0.012 0.379,-0.035 0.576,-0.07 0.198,-0.035 0.374,-0.085 0.529,-0.152 -0.026,0.032 -0.047,0.053 -0.061,0.061 0.098,-0.12 0.191,-0.23 0.28,-0.33 0.089,-0.101 0.221,-0.152 0.396,-0.156 0.124,-0.005 0.238,0.026 0.345,0.09 0.105,0.067 0.189,0.152 0.251,0.257 0.062,0.103 0.097,0.218 0.106,0.346 0.009,0.126 -0.025,0.246 -0.102,0.356 -0.146,0.221 -0.314,0.41 -0.502,0.568 -0.189,0.159 -0.422,0.252 -0.697,0.281 l -2.589,0.264 c -0.168,0.017 -0.318,-0.022 -0.453,-0.119 -0.134,-0.096 -0.227,-0.222 -0.28,-0.378 -0.042,-0.121 -0.056,-0.243 -0.043,-0.37 0.013,-0.125 0.021,-0.25 0.022,-0.375 0.014,-0.301 0.052,-0.577 0.114,-0.825 0.062,-0.248 0.152,-0.477 0.271,-0.688 0.117,-0.209 0.264,-0.405 0.44,-0.589 0.175,-0.182 0.382,-0.364 0.62,-0.541 0.109,-0.079 0.242,-0.18 0.397,-0.305 0.156,-0.126 0.296,-0.266 0.42,-0.417 0.123,-0.152 0.208,-0.312 0.253,-0.482 0.05,-0.169 0.016,-0.336 -0.097,-0.501 z"
   id="path27"
   inkscape:connector-curvature="0" />
	</g>
	<g
   id="g29">
		<g
   id="g31">
			<path
   id="path3845"
   sodipodi:nodetypes="cccc"
   style="fill:#ddc2a4"
   d="m 124.324,140.25 c 0.863,-0.074 1.705,-0.684 2.673,-5.224 0.094,-0.946 -1.167,-1.035 -1.237,-0.2 -0.937,1.809 -1.348,3.616 -1.436,5.424 z"
   inkscape:connector-curvature="0" />
			<path
   id="path3715"
   sodipodi:nodetypes="cccc"
   style="fill:#ddc2a4"
   d="m 107.532,140.888 c -0.862,-0.072 -1.705,-0.684 -2.673,-5.224 -0.094,-0.944 1.168,-1.033 1.237,-0.2 0.938,1.808 1.348,3.616 1.436,5.424 z"
   inkscape:connector-curvature="0" />
			<path
   id="path3629"
   sodipodi:nodetypes="cccccccc"
   style="fill:#ccb8a3"
   d="m 108.854,141.694 c 0.683,3.25 2.591,10.555 0.226,12.293 0.292,3.158 3.195,4.351 6.771,5.047 h 0.677 c 3.575,-0.696 6.478,-1.889 6.771,-5.047 -2.366,-1.738 -0.458,-9.043 0.226,-12.293 l -7.335,3.343 -7.336,-3.343 z"
   inkscape:connector-curvature="0" />
			
				<radialGradient
   id="path3634_2_"
   cx="684.19141"
   cy="-527.11432"
   r="13.0272"
   fx="683.61243"
   fy="-525.25018"
   gradientTransform="matrix(0.3898,0,0,-0.6655,-156.377,-199.0762)"
   gradientUnits="userSpaceOnUse">
				<stop
   offset="0"
   style="stop-color:#FAEDE0"
   id="stop37" />
				<stop
   offset="0.5"
   style="stop-color:#FAEDE0;stop-opacity:0.8058"
   id="stop39" />
				<stop
   offset="1"
   style="stop-color:#FAEDE0;stop-opacity:0"
   id="stop41" />
			</radialGradient>
			<path
   id="path3634"
   sodipodi:nodetypes="cccccccc"
   style="fill:url(#path3634_2_)"
   d="m 108.854,141.694 c 0.683,3.25 2.591,10.555 0.226,12.293 0.292,3.158 3.195,4.351 6.771,5.047 h 0.677 c 3.575,-0.696 6.478,-1.889 6.771,-5.047 -2.366,-1.738 -0.458,-9.043 0.226,-12.293 l -7.335,3.343 -7.336,-3.343 z"
   inkscape:connector-curvature="0" />
			
				<linearGradient
   id="path3672_2_"
   gradientUnits="userSpaceOnUse"
   x1="-1187.6211"
   y1="-525.07959"
   x2="-1149.9863"
   y2="-525.07959"
   gradientTransform="matrix(-0.3898,0,0,-0.6655,-339.4111,-199.0762)">
				<stop
   offset="0"
   style="stop-color:#EBC69F"
   id="stop45" />
				<stop
   offset="1"
   style="stop-color:#EBC59E"
   id="stop47" />
			</linearGradient>
			<path
   id="path3672"
   sodipodi:nodetypes="cccccccc"
   style="opacity:0.74910003;fill:url(#path3672_2_);enable-background:new"
   d="m 123.524,141.694 c -0.684,3.25 -2.592,10.555 -0.226,12.293 -0.292,3.158 -3.196,4.351 -6.771,5.047 h -0.677 c -3.576,-0.696 -6.479,-1.889 -6.771,-5.047 2.366,-1.738 0.458,-9.043 -0.226,-12.293 l 7.335,3.343 7.336,-3.343 z"
   inkscape:connector-curvature="0" />
			
				<radialGradient
   id="path2169_2_"
   cx="404.71191"
   cy="-429.4043"
   r="17.991699"
   fx="409.2381"
   fy="-432.0806"
   gradientTransform="matrix(0.5631,0,0,-0.8101,-111.8784,-212.2847)"
   gradientUnits="userSpaceOnUse">
				<stop
   offset="0"
   style="stop-color:#FBF1E5"
   id="stop51" />
				<stop
   offset="0.5911"
   style="stop-color:#F8E7D4"
   id="stop53" />
				<stop
   offset="1"
   style="stop-color:#F1CFAA"
   id="stop55" />
			</radialGradient>
			<path
   id="path2169"
   sodipodi:nodetypes="csssssssscc"
   style="fill:url(#path2169_2_)"
   d="m 115.917,121.001 c -3.51,0.093 -7.573,2.645 -8.985,5.78 -1.439,3.193 -1.229,7.008 -0.368,11.419 0.863,4.408 3.697,8.996 5.135,10.656 1.363,1.572 3.11,1.289 4.218,1.254 0.057,0 0.137,-0.002 0.198,0 1.108,0.035 2.854,0.318 4.217,-1.254 1.438,-1.66 4.272,-6.248 5.134,-10.656 0.862,-4.411 1.072,-8.226 -0.367,-11.419 -1.412,-3.136 -5.475,-5.688 -8.984,-5.78 h -0.198 z"
   inkscape:connector-curvature="0" />
			<path
   id="path3347"
   sodipodi:nodetypes="cscccssssccsc"
   style="fill:#b19379"
   d="m 115.962,120.832 c -5.667,0 -10.268,4.598 -10.268,10.264 0,1.577 -0.155,3.142 0.482,4.478 l 0.534,0.389 c 1.161,-2.05 0.416,-3.88 0.903,-5.656 0.451,-1.128 1.168,-2.104 2.256,-2.481 1.94,-0.674 4.883,1.885 6.093,1.917 1.311,0.035 4.09,-0.958 6.08,-0.373 1.1,0.323 2.004,1.356 2.257,2.481 0.473,2.104 0.72,1.594 0.904,3.86 l 0.533,-0.272 c 0.621,-1.322 0.495,-2.788 0.495,-4.342 0.001,-5.667 -4.6,-10.265 -10.269,-10.265 l 0,0 z"
   inkscape:connector-curvature="0" />
			
				<radialGradient
   id="path3358_2_"
   cx="-1236.9277"
   cy="577.55957"
   r="18.2591"
   gradientTransform="matrix(-0.393,-0.062,-0.0469,0.2974,-339.4553,-123.5547)"
   gradientUnits="userSpaceOnUse">
				<stop
   offset="0"
   style="stop-color:#E6D4C3"
   id="stop60" />
				<stop
   offset="1"
   style="stop-color:#E6D4C3;stop-opacity:0"
   id="stop62" />
			</radialGradient>
			<path
   id="path3358"
   sodipodi:nodetypes="ccsssccsc"
   style="fill:url(#path3358_2_)"
   d="m 115.962,120.832 c -3.622,1.968 -4.382,3.137 -6.093,6.992 1.94,-0.674 4.883,1.885 6.093,1.917 1.311,0.035 4.355,-1.128 6.346,-0.543 1.1,0.324 2.004,1.357 2.257,2.482 0.473,2.104 0.455,1.763 0.639,4.029 l 0.533,-0.272 c 0.621,-1.322 0.495,-2.788 0.495,-4.342 0,-5.665 -4.601,-10.263 -10.27,-10.263 l 0,0 z"
   inkscape:connector-curvature="0" />
			
				<linearGradient
   id="path3441_2_"
   gradientUnits="userSpaceOnUse"
   x1="389.2207"
   y1="-560.21088"
   x2="421.87289"
   y2="-559.21899"
   gradientTransform="matrix(0.5631,0,0,-0.5627,-112.2876,-184.2051)">
				<stop
   offset="0"
   style="stop-color:#765C44"
   id="stop66" />
				<stop
   offset="1"
   style="stop-color:#765C44;stop-opacity:0"
   id="stop68" />
			</linearGradient>
			<path
   id="path3441"
   sodipodi:nodetypes="cscccsssccssc"
   style="fill:url(#path3441_2_)"
   d="m 110.335,127.04 c -0.269,-0.012 -0.533,0.021 -0.775,0.098 -1.089,0.353 -2.005,1.627 -2.456,2.745 -0.418,1.885 0.178,2.681 -0.224,5.031 0.383,-1.368 0.315,-4.292 0.422,-4.702 0.452,-1.129 1.168,-2.104 2.257,-2.481 1.94,-0.674 4.882,1.886 6.094,1.918 1.309,0.033 4.089,-0.959 6.079,-0.374 1.1,0.323 2.004,1.356 2.257,2.482 v -0.255 c -0.253,-1.131 -1.158,-2.189 -2.257,-2.538 -1.99,-0.632 -4.571,-0.301 -5.879,-0.365 -1.06,-0.053 -3.638,-1.476 -5.518,-1.559 z"
   inkscape:connector-curvature="0" />
			
				<linearGradient
   id="path3497_2_"
   gradientUnits="userSpaceOnUse"
   x1="408.70901"
   y1="-577.53027"
   x2="400.90991"
   y2="-545.46692"
   gradientTransform="matrix(0.5631,0,0,-0.5627,-112.002,-184.2051)">
				<stop
   offset="0"
   style="stop-color:#FFFFFF"
   id="stop72" />
				<stop
   offset="1"
   style="stop-color:#FFFFFF;stop-opacity:0"
   id="stop74" />
			</linearGradient>
			<path
   id="path3497"
   sodipodi:nodetypes="csscccc"
   style="opacity:0.88010003;fill:url(#path3497_2_);enable-background:new"
   d="m 119.714,128.657 c 2.479,-0.09 -2.425,-0.776 -4.071,-1.037 -2.659,-0.424 -6.206,-1.832 -6.699,-3.145 -0.323,-0.856 2.208,-2.147 2.053,-1.732 -0.296,0.841 -0.666,1.61 1.411,3.439 1.039,0.802 2.203,1.732 3.78,1.862 1.129,0.121 2.398,0.826 3.526,0.613 l 0,0 z"
   inkscape:connector-curvature="0" />
		</g>
		<g
   id="g77">
			
				<linearGradient
   id="path3875_2_"
   gradientUnits="userSpaceOnUse"
   x1="138.13921"
   y1="-283.2222"
   x2="144.6328"
   y2="-250.75391"
   gradientTransform="matrix(0.5597,0,0,-0.5597,37.6768,16.8584)">
				<stop
   offset="0"
   style="stop-color:#BE0C1D"
   id="stop80" />
				<stop
   offset="1"
   style="stop-color:#EE8683"
   id="stop82" />
			</linearGradient>
			<path
   id="path3875"
   sodipodi:nodetypes="cccssccsccssccz"
   style="fill:url(#path3875_2_)"
   d="m 116.186,156.533 c -4.624,0.13 -6.034,-1.783 -6.432,-3.47 -0.577,0.095 -0.918,0.552 -0.903,0.901 -3.197,1.28 -7.062,2.568 -10.494,4.285 -1.274,0.639 -2.725,2.58 -3.104,3.609 -1.154,3.137 -2.426,7.555 -2.426,7.555 l 0.677,0.79 c 7.062,4.021 16.646,3.835 22.682,3.835 6.035,0 15.621,0.186 22.683,-3.835 l 0.677,-0.79 c 0,0 -1.272,-4.418 -2.427,-7.555 -0.378,-1.029 -1.829,-2.971 -3.103,-3.609 -3.432,-1.717 -7.297,-3.005 -10.495,-4.285 0.016,-0.35 -0.326,-0.807 -0.902,-0.901 -1.09,1.688 -1.809,3.342 -6.433,3.47 l 0,0 z"
   inkscape:connector-curvature="0" />
			
				<linearGradient
   id="path3451_2_"
   gradientUnits="userSpaceOnUse"
   x1="373.3154"
   y1="-623.8667"
   x2="396.7843"
   y2="-607.83459"
   gradientTransform="matrix(0.5631,0,0,-0.5627,-112.002,-184.2051)">
				<stop
   offset="0"
   style="stop-color:#F8CCCA"
   id="stop86" />
				<stop
   offset="1"
   style="stop-color:#C9CDDC;stop-opacity:0"
   id="stop88" />
			</linearGradient>
			<path
   id="path3451"
   sodipodi:nodetypes="ccccccscc"
   style="opacity:0.32210005;fill:url(#path3451_2_);enable-background:new"
   d="m 102.13,172.06 c -1.768,-5.873 -2.481,-8.946 1.596,-12.12 l 8.618,-2.552 -3.83,-2.873 -8.936,3.512 -4.789,5.741 c 0,0 -1.915,4.464 -0.639,5.102 1.278,0.641 4.469,2.553 4.469,2.553 l 3.511,0.637 0,0 z"
   inkscape:connector-curvature="0" />
			<path
   style="fill:none"
   d="m 116.19,156.535 c -4.624,0.13 -6.034,-1.784 -6.432,-3.471 -0.577,0.096 -0.918,0.553 -0.903,0.901 -3.198,1.28 -7.063,2.569 -10.495,4.285 -1.273,0.639 -2.725,2.582 -3.103,3.61 -1.154,3.136 -2.426,7.555 -2.426,7.555 l 0.678,0.79 c 7.062,4.02 16.646,3.834 22.682,3.834 6.035,0 15.62,0.186 22.682,-3.834 l 0.677,-0.79 c 0,0 -1.272,-4.419 -2.426,-7.555 -0.379,-1.028 -1.83,-2.972 -3.103,-3.61 -3.432,-1.716 -7.298,-3.005 -10.495,-4.285 0.015,-0.349 -0.326,-0.806 -0.903,-0.901 -1.09,1.689 -1.809,3.342 -6.433,3.471 z"
   id="path91"
   inkscape:connector-curvature="0" />
			
				<linearGradient
   id="path3885_3_"
   gradientUnits="userSpaceOnUse"
   x1="493.50589"
   y1="-618.0166"
   x2="531.57471"
   y2="-618.0166"
   gradientTransform="matrix(0.5631,0,0,-0.5627,-159.7842,-184.2051)">
				<stop
   offset="0"
   style="stop-color:#9C141B"
   id="stop94" />
				<stop
   offset="1"
   style="stop-color:#8D97B7;stop-opacity:0"
   id="stop96" />
			</linearGradient>
			<path
   id="path3885_1_"
   sodipodi:nodetypes="ccssccsccssccscsccssccsccssccc"
   style="fill:url(#path3885_3_)"
   d="m 123.521,153.966 c 0.016,-0.349 -0.326,-0.806 -0.902,-0.901 -1.09,1.688 -1.809,3.339 -6.433,3.469 -0.289,0.007 -0.568,0.006 -0.833,0 0.362,0.021 0.742,0.039 1.157,0.028 4.419,-0.125 5.109,-1.718 6.15,-3.342 0.552,0.091 0.875,0.538 0.86,0.873 3.056,1.231 6.75,2.466 10.029,4.116 1.218,0.614 2.615,2.493 2.977,3.483 1.103,3.016 2.312,7.26 2.312,7.26 l -0.648,0.76 c -6.751,3.868 -15.911,3.694 -21.681,3.694 -5.77,0 -15.608,0.731 -22.358,-3.136 l -0.689,-1.358 c 0,0 1.689,-6.755 3.111,-7.778 0.855,-0.615 1.679,-2.311 2.896,-2.925 3.281,-1.65 6.972,-2.885 10.028,-4.116 -0.008,-0.213 0.115,-0.479 0.354,-0.662 -0.04,-0.12 -0.07,-0.247 -0.099,-0.366 -0.577,0.096 -0.918,0.553 -0.903,0.901 -3.198,1.28 -7.062,2.569 -10.494,4.285 -1.274,0.639 -2.725,2.582 -3.104,3.61 -1.154,3.136 -2.426,7.555 -2.426,7.555 l 0.677,0.79 c 7.062,4.02 16.646,3.834 22.682,3.834 6.035,0 15.62,0.186 22.682,-3.834 l 0.677,-0.79 c 0,0 -1.272,-4.419 -2.426,-7.555 -0.378,-1.028 -1.829,-2.972 -3.103,-3.61"
   inkscape:connector-curvature="0" />
			
				<linearGradient
   id="path3880_2_"
   gradientUnits="userSpaceOnUse"
   x1="406.98831"
   y1="-631.87653"
   x2="394.58871"
   y2="-594.46527"
   gradientTransform="matrix(0.5631,0,0,-0.5627,-112.002,-184.2051)">
				<stop
   offset="0"
   style="stop-color:#FFFFFF"
   id="stop100" />
				<stop
   offset="1"
   style="stop-color:#FFFFFF;stop-opacity:0"
   id="stop102" />
			</linearGradient>
			<path
   id="path3880"
   sodipodi:nodetypes="cccccscccscc"
   style="fill:url(#path3880_2_)"
   d="m 99.521,159.38 -0.452,0.789 c 1.822,3.663 2.351,8.187 3.357,12.392 -3.152,-0.55 -6.197,-1.467 -8.943,-3.031 v 0.198 c 7.062,4.02 16.646,3.834 22.682,3.834 6.036,0 15.621,0.186 22.682,-3.834 l 0.677,-0.79 -0.827,0.669 c -7.062,4.021 -16.496,3.816 -22.532,3.816 -3.363,0 -7.825,-0.26 -12.343,-0.905 -1.434,-6.492 -2.867,-9.998 -4.301,-13.138 l 0,0 z"
   inkscape:connector-curvature="0" />
			<g
   id="g105">
				<defs
   id="defs107">
					<path
   id="SVGID_1_"
   d="m 109.754,153.066 c -0.577,0.096 -0.918,0.554 -0.903,0.903 -0.036,0.013 -0.396,0.505 -0.432,0.519 0.564,1.807 2.328,3.732 7.561,3.596 5.191,-0.135 7.182,-2.376 7.752,-4.031 -0.067,-0.026 -0.143,-0.057 -0.211,-0.083 0.016,-0.35 -0.326,-0.808 -0.902,-0.903 -1.09,1.688 -1.809,3.34 -6.433,3.469 -4.624,0.129 -6.034,-1.783 -6.432,-3.47 z m -2.088,1.368 c -2.457,0.946 -5.171,1.925 -7.771,3.101 2.661,-1.005 5.246,-1.428 7.607,-2.312 -0.005,-0.103 0.113,-0.679 0.164,-0.789 z m 17.308,0.099 c 0.024,0.075 0.046,0.14 0.042,0.211 1.899,0.711 3.99,1.425 6.123,2.199 -2.093,-0.882 -4.201,-1.658 -6.165,-2.41 z"
   inkscape:connector-curvature="0" />
				</defs>
				<clipPath
   id="SVGID_2_">
					<use
   xlink:href="#SVGID_1_"
   style="overflow:visible"
   id="use111"
   x="0"
   y="0"
   width="283.45999"
   height="283.45999" />
				</clipPath>
				<path
   id="path3261"
   sodipodi:nodetypes="cccscccsccccc"
   style="fill:#f8ccca"
   d="m 109.754,153.066 c -0.577,0.096 -0.918,0.554 -0.903,0.903 -0.036,0.013 -0.077,0.026 -0.113,0.042 0.565,1.804 2.328,3.73 7.561,3.594 5.191,-0.136 6.242,-1.785 7.434,-3.553 -0.067,-0.026 -0.143,-0.057 -0.211,-0.083 0.016,-0.35 -0.326,-0.808 -0.902,-0.903 -1.09,1.688 -1.809,3.34 -6.433,3.469 -4.624,0.129 -6.035,-1.782 -6.433,-3.469 l 0,0 z"
   clip-path="url(#SVGID_2_)"
   inkscape:connector-curvature="0" />
			</g>
			
				<linearGradient
   id="path3498_2_"
   gradientUnits="userSpaceOnUse"
   x1="-916.17188"
   y1="-622.40723"
   x2="-904.46503"
   y2="-607.11102"
   gradientTransform="matrix(-0.5631,0,0,-0.5627,-383.3408,-184.2051)">
				<stop
   offset="0"
   style="stop-color:#F8CCCA"
   id="stop115" />
				<stop
   offset="1"
   style="stop-color:#C9CDDC;stop-opacity:0"
   id="stop117" />
			</linearGradient>
			<path
   id="path3498"
   sodipodi:nodetypes="ccccccscc"
   style="opacity:0.5;fill:url(#path3498_2_);enable-background:new"
   d="m 130.332,172.06 c 1.768,-5.873 2.48,-8.946 -1.597,-12.12 l -8.617,-2.552 3.829,-2.873 8.938,3.512 4.787,5.741 c 0,0 1.915,4.464 0.638,5.102 -1.276,0.641 -4.468,2.553 -4.468,2.553 l -3.51,0.637 0,0 z"
   inkscape:connector-curvature="0" />
		</g>
	</g>
	<g
   id="g120">
		<g
   id="g122">
			<path
   id="path3845_1_"
   sodipodi:nodetypes="cccc"
   style="fill:#ddc2a4"
   d="m 176.055,140.089 c 0.863,-0.074 1.705,-0.683 2.674,-5.224 0.094,-0.945 -1.168,-1.035 -1.236,-0.198 -0.939,1.808 -1.35,3.614 -1.438,5.422 z"
   inkscape:connector-curvature="0" />
			<path
   id="path3715_1_"
   sodipodi:nodetypes="cccc"
   style="fill:#ddc2a4"
   d="m 159.264,140.727 c -0.863,-0.072 -1.705,-0.683 -2.673,-5.224 -0.095,-0.944 1.167,-1.033 1.235,-0.198 0.94,1.808 1.35,3.614 1.438,5.422 z"
   inkscape:connector-curvature="0" />
			<path
   id="path3629_1_"
   sodipodi:nodetypes="cccccccc"
   style="fill:#ccb8a3"
   d="m 160.584,141.534 c 0.684,3.25 2.592,10.555 0.227,12.292 0.292,3.158 3.195,4.353 6.77,5.047 h 0.678 c 3.576,-0.694 6.479,-1.889 6.771,-5.047 -2.366,-1.737 -0.458,-9.042 0.225,-12.292 l -7.334,3.341 -7.337,-3.341 z"
   inkscape:connector-curvature="0" />
			
				<radialGradient
   id="path3634_3_"
   cx="816.90039"
   cy="-526.87262"
   r="13.027"
   fx="816.32141"
   fy="-525.00848"
   gradientTransform="matrix(0.3898,0,0,-0.6655,-156.377,-199.0762)"
   gradientUnits="userSpaceOnUse">
				<stop
   offset="0"
   style="stop-color:#FAEDE0"
   id="stop128" />
				<stop
   offset="0.5"
   style="stop-color:#FAEDE0;stop-opacity:0.8058"
   id="stop130" />
				<stop
   offset="1"
   style="stop-color:#FAEDE0;stop-opacity:0"
   id="stop132" />
			</radialGradient>
			<path
   id="path3634_1_"
   sodipodi:nodetypes="cccccccc"
   style="fill:url(#path3634_3_)"
   d="m 160.584,141.534 c 0.684,3.25 2.592,10.555 0.227,12.292 0.292,3.158 3.195,4.353 6.77,5.047 h 0.678 c 3.576,-0.694 6.479,-1.889 6.771,-5.047 -2.366,-1.737 -0.458,-9.042 0.225,-12.292 l -7.334,3.341 -7.337,-3.341 z"
   inkscape:connector-curvature="0" />
			
				<linearGradient
   id="path3672_3_"
   gradientUnits="userSpaceOnUse"
   x1="-1320.3301"
   y1="-524.83838"
   x2="-1282.6953"
   y2="-524.83838"
   gradientTransform="matrix(-0.3898,0,0,-0.6655,-339.4111,-199.0762)">
				<stop
   offset="0"
   style="stop-color:#EBC69F"
   id="stop136" />
				<stop
   offset="1"
   style="stop-color:#EBC59E"
   id="stop138" />
			</linearGradient>
			<path
   id="path3672_1_"
   sodipodi:nodetypes="cccccccc"
   style="opacity:0.74910003;fill:url(#path3672_3_);enable-background:new"
   d="m 175.254,141.534 c -0.683,3.25 -2.591,10.555 -0.225,12.292 -0.293,3.158 -3.195,4.353 -6.771,5.047 h -0.678 c -3.574,-0.694 -6.478,-1.889 -6.77,-5.047 2.365,-1.737 0.457,-9.042 -0.227,-12.292 l 7.336,3.341 7.335,-3.341 z"
   inkscape:connector-curvature="0" />
			
				<radialGradient
   id="path2169_3_"
   cx="496.582"
   cy="-429.20651"
   r="17.991501"
   fx="501.10809"
   fy="-431.88281"
   gradientTransform="matrix(0.5631,0,0,-0.8101,-111.8784,-212.2847)"
   gradientUnits="userSpaceOnUse">
				<stop
   offset="0"
   style="stop-color:#FBF1E5"
   id="stop142" />
				<stop
   offset="0.5911"
   style="stop-color:#F8E7D4"
   id="stop144" />
				<stop
   offset="1"
   style="stop-color:#F1CFAA"
   id="stop146" />
			</radialGradient>
			<path
   id="path2169_1_"
   sodipodi:nodetypes="csssssssscc"
   style="fill:url(#path2169_3_)"
   d="m 167.648,120.841 c -3.512,0.094 -7.574,2.645 -8.986,5.78 -1.438,3.194 -1.229,7.007 -0.367,11.418 0.863,4.41 3.696,8.997 5.135,10.655 1.363,1.574 3.109,1.289 4.219,1.256 0.057,0 0.136,-10e-4 0.197,0 1.107,0.033 2.854,0.318 4.217,-1.256 1.438,-1.658 4.271,-6.245 5.135,-10.655 0.861,-4.411 1.072,-8.224 -0.367,-11.418 -1.412,-3.136 -5.475,-5.687 -8.984,-5.78 h -0.199 z"
   inkscape:connector-curvature="0" />
			<path
   id="path3347_1_"
   sodipodi:nodetypes="cscccssssccsc"
   style="fill:#ebcb79"
   d="m 167.693,120.672 c -5.668,0 -10.27,4.597 -10.27,10.262 0,1.578 -0.153,3.144 0.483,4.479 l 0.534,0.391 c 1.16,-2.051 0.415,-3.88 0.902,-5.658 0.451,-1.128 1.168,-2.104 2.256,-2.48 1.94,-0.674 4.884,1.885 6.094,1.916 1.31,0.036 4.09,-0.957 6.08,-0.373 1.1,0.323 2.004,1.356 2.257,2.481 0.474,2.105 0.72,1.595 0.903,3.86 l 0.535,-0.272 c 0.619,-1.321 0.494,-2.787 0.494,-4.343 0.002,-5.666 -4.6,-10.263 -10.268,-10.263 l 0,0 z"
   inkscape:connector-curvature="0" />
			
				<radialGradient
   id="path3358_3_"
   cx="-1365.3003"
   cy="550.25781"
   r="18.2591"
   gradientTransform="matrix(-0.393,-0.062,-0.0469,0.2974,-339.4553,-123.5547)"
   gradientUnits="userSpaceOnUse">
				<stop
   offset="0"
   style="stop-color:#E6D4C3"
   id="stop151" />
				<stop
   offset="1"
   style="stop-color:#E6D4C3;stop-opacity:0"
   id="stop153" />
			</radialGradient>
			<path
   id="path3358_1_"
   sodipodi:nodetypes="ccsssccsc"
   style="fill:url(#path3358_3_)"
   d="m 167.693,120.672 c -3.623,1.968 -4.383,3.138 -6.094,6.992 1.94,-0.674 4.884,1.885 6.094,1.916 1.31,0.036 4.354,-1.126 6.346,-0.541 1.1,0.322 2.004,1.355 2.256,2.48 0.474,2.105 0.455,1.764 0.639,4.029 l 0.535,-0.272 c 0.619,-1.321 0.494,-2.787 0.494,-4.343 0,-5.664 -4.602,-10.261 -10.27,-10.261 l 0,0 z"
   inkscape:connector-curvature="0" />
			
				<linearGradient
   id="path3441_3_"
   gradientUnits="userSpaceOnUse"
   x1="481.0889"
   y1="-559.92529"
   x2="513.73901"
   y2="-558.93341"
   gradientTransform="matrix(0.5631,0,0,-0.5627,-112.2876,-184.2051)">
				<stop
   offset="0"
   style="stop-color:#EBCB79"
   id="stop157" />
				<stop
   offset="1"
   style="stop-color:#765C44;stop-opacity:0"
   id="stop159" />
			</linearGradient>
			<path
   id="path3441_1_"
   sodipodi:nodetypes="cscccsssccssc"
   style="fill:url(#path3441_3_)"
   d="m 162.066,126.88 c -0.268,-0.012 -0.533,0.02 -0.775,0.098 -1.088,0.353 -2.005,1.627 -2.457,2.744 -0.417,1.884 0.178,2.683 -0.223,5.031 0.383,-1.366 0.315,-4.293 0.423,-4.701 0.451,-1.129 1.169,-2.104 2.257,-2.481 1.939,-0.674 4.883,1.884 6.094,1.918 1.309,0.034 4.089,-0.958 6.079,-0.375 1.101,0.324 2.005,1.357 2.257,2.481 v -0.254 c -0.252,-1.13 -1.156,-2.188 -2.257,-2.538 -1.99,-0.63 -4.571,-0.3 -5.88,-0.365 -1.059,-0.052 -3.637,-1.476 -5.518,-1.558 z"
   inkscape:connector-curvature="0" />
			
				<linearGradient
   id="path3497_3_"
   gradientUnits="userSpaceOnUse"
   x1="500.57709"
   y1="-577.24408"
   x2="492.77841"
   y2="-545.18188"
   gradientTransform="matrix(0.5631,0,0,-0.5627,-112.002,-184.2051)">
				<stop
   offset="0"
   style="stop-color:#FFFFFF"
   id="stop163" />
				<stop
   offset="1"
   style="stop-color:#FFFFFF;stop-opacity:0"
   id="stop165" />
			</linearGradient>
			<path
   id="path3497_1_"
   sodipodi:nodetypes="csscccc"
   style="opacity:0.88010003;fill:url(#path3497_3_);enable-background:new"
   d="m 171.445,128.496 c 2.479,-0.089 -2.425,-0.774 -4.07,-1.038 -2.66,-0.422 -6.207,-1.829 -6.699,-3.142 -0.324,-0.859 2.208,-2.148 2.053,-1.733 -0.296,0.841 -0.666,1.609 1.41,3.439 1.04,0.802 2.203,1.731 3.781,1.861 1.128,0.122 2.396,0.826 3.525,0.613 l 0,0 z"
   inkscape:connector-curvature="0" />
		</g>
		<g
   id="g168">
			<path
   id="path3875_1_"
   sodipodi:nodetypes="cccssccsccssccz"
   style="fill:#2374b6"
   d="m 167.917,156.372 c -4.623,0.129 -6.034,-1.783 -6.431,-3.469 -0.578,0.094 -0.92,0.552 -0.904,0.9 -3.197,1.28 -7.062,2.568 -10.494,4.287 -1.273,0.638 -2.725,2.58 -3.104,3.607 -1.154,3.138 -2.426,7.555 -2.426,7.555 l 0.677,0.79 c 7.062,4.02 16.646,3.835 22.682,3.835 6.036,0 15.62,0.185 22.683,-3.835 l 0.678,-0.79 c 0,0 -1.273,-4.417 -2.428,-7.555 -0.378,-1.027 -1.83,-2.97 -3.103,-3.607 -3.433,-1.719 -7.298,-3.007 -10.495,-4.287 0.016,-0.349 -0.325,-0.807 -0.902,-0.9 -1.09,1.687 -1.809,3.341 -6.433,3.469 l 0,0 z"
   inkscape:connector-curvature="0" />
			
				<linearGradient
   id="path3451_3_"
   gradientUnits="userSpaceOnUse"
   x1="465.18259"
   y1="-623.58063"
   x2="488.6521"
   y2="-607.54797"
   gradientTransform="matrix(0.5631,0,0,-0.5627,-112.002,-184.2051)">
				<stop
   offset="0"
   style="stop-color:#F8CCCA"
   id="stop172" />
				<stop
   offset="1"
   style="stop-color:#C9CDDC;stop-opacity:0"
   id="stop174" />
			</linearGradient>
			<path
   id="path3451_1_"
   sodipodi:nodetypes="ccccccscc"
   style="opacity:0.32210005;fill:url(#path3451_3_);enable-background:new"
   d="m 153.861,171.898 c -1.768,-5.872 -2.48,-8.944 1.596,-12.12 l 8.617,-2.552 -3.83,-2.871 -8.936,3.509 -4.789,5.742 c 0,0 -1.914,4.466 -0.639,5.103 1.277,0.64 4.469,2.552 4.469,2.552 l 3.512,0.637 0,0 z"
   inkscape:connector-curvature="0" />
			<path
   style="fill:none"
   d="m 167.922,156.373 c -4.624,0.13 -6.034,-1.783 -6.434,-3.469 -0.576,0.095 -0.918,0.552 -0.901,0.901 -3.198,1.279 -7.063,2.567 -10.495,4.286 -1.273,0.638 -2.725,2.581 -3.104,3.609 -1.153,3.136 -2.426,7.556 -2.426,7.556 l 0.677,0.79 c 7.062,4.019 16.647,3.833 22.683,3.833 6.036,0 15.619,0.186 22.682,-3.833 l 0.677,-0.79 c 0,0 -1.272,-4.42 -2.426,-7.556 -0.38,-1.028 -1.829,-2.972 -3.104,-3.609 -3.433,-1.719 -7.298,-3.007 -10.495,-4.286 0.016,-0.35 -0.326,-0.807 -0.902,-0.901 -1.089,1.688 -1.809,3.341 -6.432,3.469 z"
   id="path177"
   inkscape:connector-curvature="0" />
			
				<linearGradient
   id="path3885_4_"
   gradientUnits="userSpaceOnUse"
   x1="585.375"
   y1="-617.73242"
   x2="623.44379"
   y2="-617.73242"
   gradientTransform="matrix(0.5631,0,0,-0.5627,-159.7842,-184.2051)">
				<stop
   offset="0"
   style="stop-color:#095A91"
   id="stop180" />
				<stop
   offset="1"
   style="stop-color:#8D97B7;stop-opacity:0"
   id="stop182" />
			</linearGradient>
			<path
   id="path3885_2_"
   sodipodi:nodetypes="ccssccsccssccscsccssccsccssccc"
   style="fill:url(#path3885_4_)"
   d="m 175.252,153.806 c 0.016,-0.35 -0.326,-0.807 -0.902,-0.901 -1.09,1.688 -1.809,3.339 -6.433,3.468 -0.288,0.009 -0.567,0.008 -0.833,0 0.363,0.021 0.743,0.039 1.157,0.028 4.419,-0.125 5.108,-1.717 6.15,-3.342 0.552,0.093 0.874,0.538 0.86,0.875 3.057,1.229 6.748,2.464 10.029,4.115 1.217,0.615 2.615,2.494 2.977,3.482 1.104,3.017 2.312,7.259 2.312,7.259 l -0.648,0.763 c -6.75,3.867 -15.911,3.692 -21.681,3.692 -5.769,0 -15.608,0.733 -22.358,-3.134 l -0.689,-1.36 c 0,0 1.689,-6.753 3.112,-7.779 0.854,-0.614 1.679,-2.308 2.896,-2.923 3.28,-1.651 6.973,-2.886 10.028,-4.115 -0.01,-0.214 0.115,-0.481 0.353,-0.663 -0.039,-0.119 -0.07,-0.248 -0.098,-0.366 -0.577,0.095 -0.919,0.552 -0.903,0.901 -3.197,1.279 -7.062,2.567 -10.494,4.286 -1.273,0.638 -2.725,2.581 -3.104,3.609 -1.154,3.136 -2.426,7.556 -2.426,7.556 l 0.677,0.79 c 7.062,4.019 16.646,3.833 22.682,3.833 6.036,0 15.62,0.186 22.682,-3.833 l 0.678,-0.79 c 0,0 -1.272,-4.42 -2.427,-7.556 -0.378,-1.028 -1.83,-2.972 -3.103,-3.609"
   inkscape:connector-curvature="0" />
			
				<linearGradient
   id="path3880_3_"
   gradientUnits="userSpaceOnUse"
   x1="498.8555"
   y1="-631.59131"
   x2="486.4563"
   y2="-594.18152"
   gradientTransform="matrix(0.5631,0,0,-0.5627,-112.002,-184.2051)">
				<stop
   offset="0"
   style="stop-color:#FFFFFF"
   id="stop186" />
				<stop
   offset="1"
   style="stop-color:#FFFFFF;stop-opacity:0"
   id="stop188" />
			</linearGradient>
			<path
   id="path3880_1_"
   sodipodi:nodetypes="cccccscccscc"
   style="fill:url(#path3880_3_)"
   d="m 151.252,159.22 -0.451,0.789 c 1.822,3.661 2.35,8.187 3.356,12.391 -3.152,-0.549 -6.196,-1.468 -8.943,-3.03 v 0.197 c 7.062,4.021 16.647,3.833 22.683,3.833 6.036,0 15.619,0.188 22.682,-3.833 l 0.677,-0.791 -0.827,0.672 c -7.062,4.02 -16.496,3.816 -22.531,3.816 -3.364,0 -7.826,-0.262 -12.344,-0.906 -1.435,-6.492 -2.868,-10 -4.302,-13.138 l 0,0 z"
   inkscape:connector-curvature="0" />
			<g
   id="g191">
				<defs
   id="defs193">
					<path
   id="SVGID_3_"
   d="m 161.486,152.905 c -0.578,0.096 -0.92,0.555 -0.904,0.903 -0.035,0.014 -0.396,0.506 -0.432,0.521 0.564,1.804 2.328,3.731 7.561,3.596 5.19,-0.137 7.182,-2.379 7.753,-4.032 -0.068,-0.028 -0.144,-0.057 -0.212,-0.084 0.016,-0.349 -0.325,-0.808 -0.902,-0.903 -1.09,1.689 -1.809,3.34 -6.433,3.468 -4.623,0.128 -6.034,-1.782 -6.431,-3.469 z m -2.09,1.367 c -2.457,0.948 -5.17,1.924 -7.771,3.103 2.661,-1.005 5.246,-1.429 7.607,-2.314 -0.003,-0.102 0.114,-0.677 0.164,-0.789 z m 17.309,0.1 c 0.023,0.076 0.046,0.141 0.043,0.213 1.898,0.71 3.988,1.422 6.121,2.197 -2.092,-0.883 -4.199,-1.657 -6.164,-2.41 z"
   inkscape:connector-curvature="0" />
				</defs>
				<clipPath
   id="SVGID_4_">
					<use
   xlink:href="#SVGID_3_"
   style="overflow:visible"
   id="use197"
   x="0"
   y="0"
   width="283.45999"
   height="283.45999" />
				</clipPath>
				<path
   id="path3261_1_"
   sodipodi:nodetypes="cccscccsccccc"
   style="fill:#d4deef"
   d="m 161.486,152.905 c -0.578,0.096 -0.92,0.555 -0.904,0.903 -0.035,0.014 -0.076,0.027 -0.112,0.042 0.564,1.806 2.327,3.732 7.561,3.594 5.19,-0.135 6.241,-1.785 7.434,-3.552 -0.068,-0.028 -0.144,-0.057 -0.212,-0.084 0.016,-0.349 -0.325,-0.808 -0.902,-0.903 -1.09,1.689 -1.809,3.34 -6.433,3.468 -4.624,0.129 -6.035,-1.781 -6.432,-3.468 l 0,0 z"
   clip-path="url(#SVGID_4_)"
   inkscape:connector-curvature="0" />
			</g>
			
				<linearGradient
   id="path3498_3_"
   gradientUnits="userSpaceOnUse"
   x1="-1008.0405"
   y1="-622.12207"
   x2="-996.33313"
   y2="-606.82507"
   gradientTransform="matrix(-0.5631,0,0,-0.5627,-383.3408,-184.2051)">
				<stop
   offset="0"
   style="stop-color:#F8CCCA"
   id="stop201" />
				<stop
   offset="1"
   style="stop-color:#C9CDDC;stop-opacity:0"
   id="stop203" />
			</linearGradient>
			<path
   id="path3498_1_"
   sodipodi:nodetypes="ccccccscc"
   style="opacity:0.3;fill:url(#path3498_3_);enable-background:new"
   d="m 182.062,171.898 c 1.768,-5.872 2.48,-8.944 -1.596,-12.12 l -8.618,-2.552 3.829,-2.871 8.938,3.509 4.788,5.742 c 0,0 1.915,4.466 0.638,5.103 -1.276,0.64 -4.469,2.552 -4.469,2.552 l -3.51,0.637 0,0 z"
   inkscape:connector-curvature="0" />
		</g>
	</g>
	<g
   id="g206">
		
			<linearGradient
   id="path5430_1_"
   gradientUnits="userSpaceOnUse"
   x1="183.58791"
   y1="-250.52341"
   x2="183.43539"
   y2="-205.2289"
   gradientTransform="matrix(0.6239,0,0,-0.6239,27.5273,27.2466)">
			<stop
   offset="0"
   style="stop-color:#EBC69F"
   id="stop209" />
			<stop
   offset="1"
   style="stop-color:#EBC59E"
   id="stop211" />
		</linearGradient>
		<path
   id="path5430"
   sodipodi:nodetypes="cccssccsccsscccccc"
   style="fill:url(#path5430_1_)"
   d="m 134.005,150.112 c 0.67,3.188 2.439,9.993 0.833,12.61 -0.213,0.493 -0.563,0.771 -0.691,0.896 -3.449,1.38 -7.618,1.26 -11.321,3.112 -1.374,0.688 -2.941,2.774 -3.349,3.883 -1.244,3.384 -2.625,9.168 -2.625,9.168 l 0.738,0.849 c 7.619,4.336 17.955,4.638 24.465,4.638 6.511,0 16.861,-0.804 24.48,-5.141 l 0.723,-0.85 c 0,0 -1.364,-5.783 -2.608,-9.166 -0.409,-1.109 -1.976,-3.196 -3.351,-3.884 -3.701,-1.853 -7.87,-1.229 -11.32,-2.609 -0.388,-0.276 -0.957,-0.722 -0.975,-0.975 -0.006,0.009 -0.01,0.021 -0.016,0.031 -1.563,-2.646 0.167,-9.392 0.834,-12.563 l -7.909,3.601 -7.908,-3.6 z"
   inkscape:connector-curvature="0" />
		<g
   id="g214">
			<radialGradient
   id="SVGID_5_"
   cx="121.7046"
   cy="156.46291"
   r="19.6255"
   gradientUnits="userSpaceOnUse">
				<stop
   offset="0"
   style="stop-color:#FAEDE0"
   id="stop217" />
				<stop
   offset="0.5"
   style="stop-color:#FAEDE0;stop-opacity:0.8058"
   id="stop219" />
				<stop
   offset="1"
   style="stop-color:#FAEDE0;stop-opacity:0"
   id="stop221" />
			</radialGradient>
			<path
   style="fill:url(#SVGID_5_)"
   d="m 148.984,151.257 -7.377,3.36 -7.379,-3.36 c 0.688,3.269 3.47,9.948 0.242,12.706 l -4.708,1.697 c 0,0 0.785,11.754 1.093,14.646 -0.057,-0.588 -0.325,-4.841 3.652,-6.58 4.276,-1.872 3.473,-5.021 4.205,-5.623 l 0,0 c 0.788,0.232 1.648,0.418 2.555,0.594 h 0.681 c 3.598,-0.699 6.518,-1.898 6.811,-5.077 -2.38,-1.747 -0.461,-9.095 0.225,-12.363 z"
   id="path223"
   inkscape:connector-curvature="0" />
			<radialGradient
   id="SVGID_6_"
   cx="121.7773"
   cy="156.8447"
   r="19.332001"
   gradientUnits="userSpaceOnUse">
				<stop
   offset="0"
   style="stop-color:#FAEDE0"
   id="stop226" />
				<stop
   offset="0.5"
   style="stop-color:#FAEDE0;stop-opacity:0.8058"
   id="stop228" />
				<stop
   offset="1"
   style="stop-color:#FAEDE0;stop-opacity:0"
   id="stop230" />
			</radialGradient>
			<path
   style="fill:url(#SVGID_6_)"
   d="m 130.854,180.307 c 0.005,0.044 0.008,0.071 0.008,0.071 -0.003,-0.022 -0.005,-0.048 -0.008,-0.071 z"
   id="path232"
   inkscape:connector-curvature="0" />
		</g>
		<defs
   id="defs234">
			<filter
   id="Adobe_OpacityMaskFilter"
   filterUnits="userSpaceOnUse"
   x="116.832"
   y="150.19299"
   width="50.407001"
   height="30.125"
   color-interpolation-filters="sRGB">
				<feColorMatrix
   type="matrix"
   values="1 0 0 0 0  0 1 0 0 0  0 0 1 0 0  0 0 0 1 0"
   id="feColorMatrix237" />
			</filter>
		</defs>
		<mask
   maskUnits="userSpaceOnUse"
   x="116.832"
   y="150.193"
   width="50.407"
   height="30.125"
   id="mask4548_2_">
			
				<radialGradient
   id="path4550_1_"
   cx="-150.03909"
   cy="-150.81149"
   r="40.395"
   gradientTransform="matrix(1,0,0,-0.6974,287.6602,-10.9448)"
   gradientUnits="userSpaceOnUse">
				<stop
   offset="0"
   style="stop-color:#FFFFFF;stop-opacity:0.1527"
   id="stop241" />
				<stop
   offset="1"
   style="stop-color:#FFFFFF"
   id="stop243" />
			</radialGradient>
			<path
   id="path4550_2_"
   sodipodi:nodetypes="cccssccsccsscccccc"
   style="fill:url(#path4550_1_);filter:url(#Adobe_OpacityMaskFilter)"
   d="m 124.718,66.059 c 1.074,5.109 3.911,16.017 1.335,20.21 -0.341,0.791 -0.902,1.238 -1.108,1.436 -5.528,2.212 -12.211,2.02 -18.143,4.989 -2.203,1.104 -4.713,4.447 -5.368,6.225 -1.995,5.423 -4.207,14.691 -4.207,14.691 l 1.184,1.36 c 12.209,6.95 28.774,7.434 39.209,7.434 10.436,0 27.024,-1.289 39.235,-8.24 l 1.159,-1.361 c 0,0 -2.188,-9.267 -4.184,-14.689 -0.654,-1.778 -3.166,-5.122 -5.367,-6.225 -5.934,-2.971 -12.615,-1.972 -18.144,-4.184 -0.621,-0.44 -1.535,-1.155 -1.562,-1.562 -0.01,0.015 -0.016,0.035 -0.025,0.051 -2.508,-4.24 0.268,-15.051 1.336,-20.135 l -12.676,5.771 -12.674,-5.771 z"
   inkscape:connector-curvature="0" />
		</mask>
		<g
   id="g5440"
   transform="matrix(1.0198682,0,0,1.0198682,-26.775416,119.82257)"
   mask="url(#mask4548_2_)">
			<path
   id="path5442"
   style="fill:#eabf93"
   d="m 157.629,29.779 c 0.657,3.124 2.392,9.798 0.817,12.364 -0.209,0.485 -0.551,0.756 -0.677,0.878 -3.383,1.353 -7.471,1.235 -11.1,3.053 -1.348,0.675 -2.883,2.72 -3.284,3.807 -1.22,3.318 -2.574,8.988 -2.574,8.988 l 0.385,0.448 c 0.482,-1.9 1.351,-5.184 2.189,-7.462 0.401,-1.088 1.937,-3.133 3.284,-3.808 3.63,-1.816 8.211,-1.7 11.592,-3.053 0.126,-0.123 0.47,-0.394 0.679,-0.879 1.576,-2.564 1.814,-9.238 1.156,-12.363 l 5.288,3.529 5.288,-3.529 c -0.655,3.109 -0.378,9.723 1.156,12.316 0.007,-0.01 0.009,-0.02 0.016,-0.031 0.015,0.25 0.575,0.686 0.954,0.957 3.384,1.353 7.965,0.743 11.595,2.559 1.347,0.674 2.883,2.72 3.282,3.808 0.838,2.273 1.711,5.545 2.19,7.446 l 0.37,-0.431 c 0,0 -1.337,-5.67 -2.559,-8.987 -0.399,-1.089 -1.935,-3.133 -3.282,-3.808 -3.63,-1.817 -7.718,-1.206 -11.1,-2.559 -0.38,-0.269 -0.94,-0.707 -0.957,-0.956 -0.006,0.011 -0.009,0.02 -0.015,0.031 -1.534,-2.593 0.163,-9.207 0.818,-12.317 l -7.755,3.529 -7.756,-3.53 z"
   inkscape:connector-curvature="0" />
			<path
   id="path5444"
   style="fill:#dd9648"
   d="m 157.629,29.779 c 0.657,3.124 2.392,9.798 0.817,12.364 -0.209,0.485 -0.551,0.756 -0.677,0.878 -3.383,1.353 -7.471,1.235 -11.1,3.053 -1.348,0.675 -2.883,2.72 -3.284,3.807 -1.22,3.318 -2.574,8.988 -2.574,8.988 l 0.092,0.107 c 0.235,-0.966 1.387,-5.623 2.482,-8.602 0.401,-1.089 1.937,-3.134 3.284,-3.809 3.63,-1.815 8.164,-1.76 11.546,-3.112 0.127,-0.124 0.47,-0.395 0.678,-0.88 1.577,-2.565 -0.159,-9.237 -0.817,-12.364 l 7.308,3.593 7.307,-3.283 c -0.655,3.108 -2.352,9.723 -0.819,12.318 0.008,-0.01 0.011,-0.021 0.017,-0.032 0.016,0.25 0.575,0.687 0.955,0.956 3.383,1.353 7.918,0.495 11.548,2.312 1.347,0.675 2.883,2.72 3.282,3.807 1.096,2.978 2.236,7.637 2.468,8.603 l 0.092,-0.107 c 0,0 -1.337,-5.67 -2.559,-8.987 -0.399,-1.089 -1.935,-3.133 -3.282,-3.808 -3.63,-1.817 -7.718,-1.206 -11.1,-2.559 -0.38,-0.269 -0.94,-0.707 -0.957,-0.956 -0.006,0.011 -0.009,0.02 -0.015,0.031 -1.534,-2.593 0.163,-9.207 0.818,-12.317 l -7.755,3.529 -7.755,-3.53 z"
   inkscape:connector-curvature="0" />
		</g>
		
			<linearGradient
   id="path5450_1_"
   gradientUnits="userSpaceOnUse"
   x1="185.6904"
   y1="-262.7695"
   x2="171.78909"
   y2="-243.14709"
   gradientTransform="matrix(0.6239,0,0,-0.6239,28.6938,27.2466)">
			<stop
   offset="0"
   style="stop-color:#F7E8D7"
   id="stop250" />
			<stop
   offset="1"
   style="stop-color:#F7E8D7;stop-opacity:0"
   id="stop252" />
		</linearGradient>
		<path
   id="path5450"
   sodipodi:nodetypes="cccc"
   style="fill:url(#path5450_1_)"
   d="m 141.483,176.873 -0.849,7.959 -8.032,-0.508 c 1.282,-2.877 2.72,-6.036 8.881,-7.451 z"
   inkscape:connector-curvature="0" />
		
			<linearGradient
   id="path5454_1_"
   gradientUnits="userSpaceOnUse"
   x1="45.7812"
   y1="-291.54489"
   x2="63.826698"
   y2="-276.26401"
   gradientTransform="matrix(0.5834,0,0,-0.5834,109.1362,20.2681)">
			<stop
   offset="0"
   style="stop-color:#C39A7C"
   id="stop256" />
			<stop
   offset="1"
   style="stop-color:#C39A7C;stop-opacity:0"
   id="stop258" />
		</linearGradient>
		<path
   id="path5454"
   sodipodi:nodetypes="cccc"
   style="fill:url(#path5454_1_)"
   d="m 143.428,177.333 -1.252,7.588 8.096,-0.18 -6.844,-7.408 z"
   inkscape:connector-curvature="0" />
		<path
   style="fill:none"
   d="m 133.987,150.208 c 0.67,3.187 2.44,9.992 0.833,12.607 -0.214,0.496 -0.563,0.773 -0.692,0.897 -3.449,1.38 -7.617,1.26 -11.32,3.112 -1.374,0.688 -2.941,2.775 -3.349,3.885 -1.245,3.383 -2.625,9.166 -2.625,9.166 l 0.739,0.848 c 7.619,4.338 17.954,4.639 24.466,4.639 6.51,0 16.86,-0.803 24.481,-5.14 l 0.722,-0.85 c 0,0 -1.366,-5.784 -2.609,-9.167 -0.408,-1.11 -1.976,-3.195 -3.351,-3.883 -3.701,-1.853 -7.869,-1.23 -11.32,-2.61 -0.387,-0.275 -0.957,-0.721 -0.974,-0.975 -0.007,0.01 -0.01,0.021 -0.017,0.03 -1.564,-2.645 0.166,-9.39 0.834,-12.561 l -7.908,3.6 -7.91,-3.598 z"
   id="path261"
   inkscape:connector-curvature="0" />
		<path
   id="path5456"
   sodipodi:nodetypes="ccccsc"
   style="fill:#430e0f"
   d="m 151.196,151.215 c -0.688,1.701 -1.536,3.359 -2.808,4.895 -0.128,8.02 -1.013,14.413 -3.514,22.492 -0.316,3.229 11.273,1.403 11.055,-1.882 -0.914,-5.754 -3.949,-9.823 -4.557,-15.759 -0.324,-3.17 -0.438,-6.944 -0.176,-9.746 z"
   inkscape:connector-curvature="0" />
		<g
   id="g264">
			<defs
   id="defs266">
				<path
   id="SVGID_7_"
   d="m 134.005,150.112 c 0.67,3.188 2.439,9.994 0.833,12.61 -0.213,0.493 -0.563,0.771 -0.691,0.896 -3.449,1.38 -7.618,1.26 -11.321,3.112 -1.374,0.688 -2.941,2.774 -3.349,3.883 -1.244,3.384 -2.625,9.168 -2.625,9.168 l 0.738,0.849 c 7.619,4.337 17.955,4.638 24.465,4.638 6.511,0 16.861,-0.804 24.48,-5.141 l 0.723,-0.85 c 0,0 -1.364,-5.783 -2.608,-9.166 -0.409,-1.109 -1.976,-3.196 -3.351,-3.884 -3.701,-1.853 -7.87,-1.229 -11.32,-2.609 -0.388,-0.276 -0.957,-0.722 -0.975,-0.975 -0.006,0.009 -0.01,0.021 -0.016,0.031 -1.563,-2.646 0.167,-9.392 0.834,-12.563 l -7.909,3.601 -7.908,-3.6 z"
   inkscape:connector-curvature="0" />
			</defs>
			<clipPath
   id="SVGID_8_">
				<use
   xlink:href="#SVGID_7_"
   style="overflow:visible"
   id="use270"
   x="0"
   y="0"
   width="283.45999"
   height="283.45999" />
			</clipPath>
			<path
   id="path5458"
   sodipodi:nodetypes="cccsccccccscccc"
   style="opacity:0.17929999;fill:#140707;enable-background:new"
   d="m 128.977,164.695 c -1.38,0.018 -3.67,0.608 -5.219,1.214 0.253,5.835 0.217,11.598 -0.058,17.302 6.39,1.881 13.363,2.059 18.214,2.059 4.817,0 11.723,-0.454 18.082,-2.439 -0.263,-5.58 -0.306,-11.594 -0.058,-17.297 -1.786,-0.685 -3.824,-0.865 -5.205,-1.087 -0.135,5.852 -0.459,11.709 -1.264,17.061 -3.901,0.454 -7.62,0.494 -11.364,0.352 v -0.016 c -0.084,0.005 -0.166,-0.002 -0.25,0 -0.083,-0.002 -0.167,0.005 -0.25,0 v 0.016 c -3.745,0.143 -7.464,0.103 -11.363,-0.352 -0.805,-5.353 -1.132,-10.961 -1.265,-16.813 z"
   clip-path="url(#SVGID_8_)"
   inkscape:connector-curvature="0" />
		</g>
		<linearGradient
   id="path5460_1_"
   gradientUnits="userSpaceOnUse"
   x1="139.9951"
   y1="164.1963"
   x2="142.3705"
   y2="176.5042">
			<stop
   offset="0"
   style="stop-color:#7BB51D"
   id="stop274" />
			<stop
   offset="1"
   style="stop-color:#5E8F28"
   id="stop276" />
		</linearGradient>
		<path
   id="path5460"
   sodipodi:nodetypes="cccsccccccscccc"
   style="fill:url(#path5460_1_)"
   d="m 129.118,164.695 c -1.38,0.018 -3.67,0.608 -5.219,1.214 0.252,5.835 0.217,11.598 -0.059,17.302 6.39,1.881 13.364,2.059 18.215,2.059 4.816,0 11.724,-0.454 18.082,-2.439 -0.263,-5.58 -0.305,-11.594 -0.059,-17.297 -1.785,-0.685 -3.824,-0.865 -5.205,-1.087 -0.134,5.852 -0.459,11.709 -1.264,17.061 -3.9,0.454 -7.619,0.494 -11.364,0.352 v -0.016 c -0.083,0.005 -0.166,-0.002 -0.249,0 -0.084,-0.002 -0.166,0.005 -0.249,0 v 0.016 c -3.746,0.143 -7.464,0.103 -11.364,-0.352 -0.805,-5.353 -1.13,-10.961 -1.265,-16.813 z"
   inkscape:connector-curvature="0" />
		<g
   id="g279">
			<defs
   id="defs281">
				<path
   id="SVGID_9_"
   d="m 129.14,164.695 c -1.38,0.018 -3.67,0.608 -5.218,1.214 0.252,5.835 0.216,11.598 -0.059,17.302 6.39,1.881 13.363,2.059 18.215,2.059 4.815,0 11.724,-0.454 18.081,-2.439 -0.264,-5.58 -0.306,-11.594 -0.059,-17.297 -1.785,-0.685 -3.823,-0.865 -5.204,-1.087 -0.134,5.852 -0.46,11.709 -1.265,17.061 -3.899,0.454 -7.619,0.494 -11.362,0.352 v -0.016 c -0.084,0.005 -0.167,-0.002 -0.251,0 -0.084,-0.002 -0.166,0.005 -0.25,0 v 0.016 c -3.744,0.143 -7.463,0.103 -11.364,-0.352 -0.804,-5.353 -1.129,-10.961 -1.264,-16.813 z"
   inkscape:connector-curvature="0" />
			</defs>
			<clipPath
   id="SVGID_10_">
				<use
   xlink:href="#SVGID_9_"
   style="overflow:visible"
   id="use285"
   x="0"
   y="0"
   width="283.45999"
   height="283.45999" />
			</clipPath>
			<path
   id="path5462"
   sodipodi:nodetypes="cccsccccccscccc"
   style="fill:none;stroke:#5e8f28;stroke-width:0.8064"
   d="m 129.14,164.695 c -1.38,0.018 -3.67,0.608 -5.218,1.214 0.252,5.835 0.216,11.598 -0.059,17.302 6.39,1.881 13.363,2.059 18.215,2.059 4.815,0 11.724,-0.454 18.081,-2.439 -0.264,-5.58 -0.306,-11.594 -0.059,-17.297 -1.785,-0.685 -3.823,-0.865 -5.204,-1.087 -0.134,5.852 -0.46,11.709 -1.265,17.061 -3.899,0.454 -7.619,0.494 -11.362,0.352 v -0.016 c -0.084,0.005 -0.167,-0.002 -0.251,0 -0.084,-0.002 -0.166,0.005 -0.25,0 v 0.016 c -3.744,0.143 -7.463,0.103 -11.364,-0.352 -0.804,-5.353 -1.129,-10.961 -1.264,-16.813 z"
   clip-path="url(#SVGID_10_)"
   inkscape:connector-curvature="0" />
		</g>
		
			<linearGradient
   id="path5464_1_"
   gradientUnits="userSpaceOnUse"
   x1="61.390598"
   y1="-234.49409"
   x2="72.083702"
   y2="-281.2327"
   gradientTransform="matrix(0.5834,0,0,-0.5834,110.3022,19.6851)">
			<stop
   offset="0"
   style="stop-color:#483B15"
   id="stop289" />
			<stop
   offset="0.5"
   style="stop-color:#733716"
   id="stop291" />
			<stop
   offset="1"
   style="stop-color:#4D3219"
   id="stop293" />
		</linearGradient>
		<path
   id="path5464"
   sodipodi:nodetypes="cccscc"
   style="fill:url(#path5464_1_)"
   d="m 144.898,178.513 c 2.501,-8.078 3.375,-14.48 3.502,-22.5 1.272,-1.536 2.126,-3.19 2.813,-4.893 -0.263,2.803 -0.153,6.572 0.171,9.742 0.607,5.936 3.645,10.004 4.558,15.758 0.22,3.284 -11.361,5.124 -11.044,1.893 z"
   inkscape:connector-curvature="0" />
		<path
   id="path5466"
   sodipodi:nodetypes="cccc"
   style="fill:#ddc2a4"
   d="m 150.283,151.068 c 0.888,-0.079 1.756,-0.736 2.752,-5.635 0.097,-1.02 -1.201,-1.117 -1.273,-0.216 -0.967,1.952 -1.39,3.901 -1.479,5.851 z"
   inkscape:connector-curvature="0" />
		<path
   id="path5468"
   sodipodi:nodetypes="cccc"
   style="fill:#ddc2a4"
   d="m 132.986,151.253 c -0.89,-0.078 -1.757,-0.736 -2.754,-5.635 -0.097,-1.02 1.204,-1.115 1.274,-0.215 0.966,1.951 1.389,3.901 1.48,5.85 z"
   inkscape:connector-curvature="0" />
		<path
   style="fill:none"
   d="m 134.022,150.112 c 0.67,3.188 2.44,9.994 0.833,12.61 -0.213,0.493 -0.563,0.771 -0.692,0.896 -3.449,1.38 -7.618,1.26 -11.32,3.112 -1.375,0.688 -2.94,2.774 -3.349,3.883 -1.246,3.384 -2.625,9.168 -2.625,9.168 l 0.738,0.849 c 7.618,4.337 17.953,4.638 24.465,4.638 6.511,0 16.861,-0.804 24.48,-5.141 l 0.723,-0.85 c 0,0 -1.365,-5.783 -2.61,-9.166 -0.407,-1.109 -1.974,-3.196 -3.349,-3.884 -3.702,-1.853 -7.871,-1.229 -11.32,-2.609 -0.389,-0.276 -0.958,-0.722 -0.975,-0.975 -0.007,0.009 -0.009,0.021 -0.016,0.031 -1.564,-2.646 0.166,-9.392 0.833,-12.563 l -7.908,3.601 -7.908,-3.6 z"
   id="path298"
   inkscape:connector-curvature="0" />
		
			<radialGradient
   id="path5472_1_"
   cx="661.88483"
   cy="-425.42719"
   r="18.0991"
   gradientTransform="matrix(0.4084,0.1053,0.1451,-0.5624,-65.9067,-162.6665)"
   gradientUnits="userSpaceOnUse">
			<stop
   offset="0"
   style="stop-color:#FBF1E6"
   id="stop301" />
			<stop
   offset="0.2913"
   style="stop-color:#F7E7D6"
   id="stop303" />
			<stop
   offset="1"
   style="stop-color:#F0D0AD"
   id="stop305" />
		</radialGradient>
		<path
   id="path5472"
   sodipodi:nodetypes="csssssssscc"
   style="fill:url(#path5472_1_)"
   d="m 141.621,131.377 c -3.72,0.1 -8.025,2.216 -9.522,5.599 -1.524,3.446 -1.623,6.695 -0.389,11.377 1.453,5.523 3.917,8.701 5.44,10.491 1.446,1.697 3.297,2.397 4.47,2.36 0.061,0 0.146,-0.003 0.209,0 1.175,0.037 3.025,-0.663 4.471,-2.36 1.524,-1.79 4.668,-4.445 5.441,-10.491 0.614,-4.806 1.136,-7.931 -0.389,-11.377 -1.498,-3.383 -5.803,-5.499 -9.523,-5.599 h -0.208 z"
   inkscape:connector-curvature="0" />
		<path
   id="path5480"
   sodipodi:nodetypes="csccccsscscccsscscc"
   style="fill:#8d6b48"
   d="m 141.631,131.263 c -4.56,0 -8.063,2.654 -9.577,5.827 -1.493,3.129 -1.676,5.996 -0.549,10.167 l 0.087,0.015 0.961,-0.362 0.06,-1.927 c 2.589,-3.727 5.542,-5.356 10.053,-6.434 0.553,-0.131 1.15,-0.525 1.507,-0.948 1.09,-1.284 1.553,-2.554 1.865,-4.146 -0.248,1.625 -0.656,3.63 -1.037,4.257 -0.12,0.198 0.17,0.488 0.355,0.615 3.025,2.08 5.174,4.595 5.545,8.458 l 1.064,0.097 c 0.563,-4.046 1.004,-6.764 -0.441,-9.791 -0.943,-1.982 -2.593,-3.814 -4.858,-4.846 -0.126,-0.056 -0.392,-0.081 -0.475,-0.037 -0.056,-0.164 -0.278,-0.271 -0.468,-0.335 -1.143,-0.39 -2.434,-0.609 -3.871,-0.609 h -0.221 z"
   inkscape:connector-curvature="0" />
		
			<linearGradient
   id="path5482_1_"
   gradientUnits="userSpaceOnUse"
   x1="44.508801"
   y1="-233.49609"
   x2="56.492298"
   y2="-228.1261"
   gradientTransform="matrix(0.5867,0,0,-0.5538,111.7866,13.0361)">
			<stop
   offset="0"
   style="stop-color:#483B15"
   id="stop310" />
			<stop
   offset="0.5"
   style="stop-color:#733716"
   id="stop312" />
			<stop
   offset="1"
   style="stop-color:#4D3219"
   id="stop314" />
		</linearGradient>
		<path
   id="path5482"
   sodipodi:nodetypes="csccccsscscccsscscc"
   style="fill:url(#path5482_1_)"
   d="m 141.611,131.263 c -4.561,0 -8.064,2.654 -9.579,5.827 -1.493,3.129 -1.675,5.996 -0.549,10.167 l 0.088,0.015 0.961,-0.362 0.059,-1.927 c 2.59,-3.727 5.541,-5.356 10.054,-6.434 0.554,-0.131 1.149,-0.525 1.508,-0.948 1.09,-1.284 1.552,-2.554 1.863,-4.146 -0.247,1.625 -0.655,3.63 -1.035,4.257 -0.12,0.198 0.167,0.488 0.354,0.615 3.025,2.08 5.173,4.595 5.543,8.458 l 1.064,0.097 c 0.565,-4.046 1.006,-6.764 -0.439,-9.791 -0.945,-1.982 -2.593,-3.814 -4.859,-4.846 -0.125,-0.056 -0.392,-0.081 -0.474,-0.037 -0.055,-0.164 -0.278,-0.271 -0.468,-0.335 -1.145,-0.39 -2.434,-0.609 -3.872,-0.609 h -0.219 z"
   inkscape:connector-curvature="0" />
		<path
   style="fill:none"
   d="m 141.633,131.247 c -4.56,0 -8.063,2.653 -9.577,5.824 -1.494,3.131 -1.676,5.996 -0.55,10.169 l 0.088,0.014 0.96,-0.362 0.061,-1.926 c 2.588,-3.728 5.54,-5.358 10.052,-6.434 0.554,-0.133 1.151,-0.526 1.509,-0.95 1.089,-1.282 1.552,-2.553 1.863,-4.144 -0.247,1.623 -0.657,3.629 -1.035,4.256 -0.121,0.199 0.168,0.486 0.354,0.614 3.025,2.08 5.174,4.594 5.544,8.458 l 1.063,0.097 c 0.564,-4.045 1.005,-6.764 -0.439,-9.792 -0.945,-1.979 -2.594,-3.811 -4.859,-4.843 -0.125,-0.058 -0.392,-0.083 -0.474,-0.038 -0.056,-0.165 -0.278,-0.27 -0.468,-0.334 -1.143,-0.392 -2.434,-0.609 -3.871,-0.609 h -0.221 z"
   id="path317"
   inkscape:connector-curvature="0" />
		<path
   style="fill:#3a2613"
   d="m 141.37,130.896 c -4.561,0 -8.068,2.647 -9.582,5.818 -1.494,3.131 -1.673,6.002 -0.547,10.175 l 0.088,0.014 0.163,-0.056 c -0.851,-3.671 -0.608,-6.353 0.769,-9.239 1.514,-3.172 5.02,-5.819 9.581,-5.819 h 0.222 c 1.437,0 2.729,0.212 3.873,0.6 0.19,0.065 0.419,0.173 0.473,0.337 0.084,-0.047 0.348,-0.018 0.475,0.04 1.923,0.874 3.395,2.319 4.376,3.949 -0.945,-1.979 -2.583,-3.812 -4.851,-4.842 -0.125,-0.058 -0.389,-0.088 -0.473,-0.041 -0.055,-0.164 -0.283,-0.271 -0.473,-0.336 -1.145,-0.389 -2.437,-0.6 -3.875,-0.6 h -0.219 z"
   id="path319"
   inkscape:connector-curvature="0" />
		<path
   style="fill:#3a2613"
   d="m 146.248,133.979 c -0.271,1.386 -0.648,2.522 -1.463,3.642 0.076,0.134 0.203,0.262 0.311,0.336 0.062,0.043 0.129,0.081 0.191,0.126 0.359,-0.744 0.731,-2.582 0.961,-4.104 z"
   id="path321"
   inkscape:connector-curvature="0" />
		<path
   style="fill:#3a2613"
   d="m 149.738,143.037 c 0.465,1.002 0.781,2.121 0.9,3.378 l 0.355,0.026 c -0.222,-1.275 -0.656,-2.399 -1.255,-3.404 z"
   id="path323"
   inkscape:connector-curvature="0" />
		
			<linearGradient
   id="path5486_1_"
   gradientUnits="userSpaceOnUse"
   x1="37.0103"
   y1="-198.12109"
   x2="58.470001"
   y2="-198.12109"
   gradientTransform="matrix(0.5834,0,0,-0.5834,110.3022,20.2681)">
			<stop
   offset="0"
   style="stop-color:#000000;stop-opacity:0"
   id="stop326" />
			<stop
   offset="0.5"
   style="stop-color:#000000;stop-opacity:0.6764"
   id="stop328" />
			<stop
   offset="1"
   style="stop-color:#000000;stop-opacity:0"
   id="stop330" />
		</linearGradient>
		<path
   id="path5486"
   sodipodi:nodetypes="ccc"
   style="fill:url(#path5486_1_)"
   d="m 144.68,132.747 c -5.64,-1.389 -10.428,2.945 -12.786,6.539 2.429,-3.751 6.917,-8.111 12.786,-6.539 z"
   inkscape:connector-curvature="0" />
		
			<linearGradient
   id="path5488_1_"
   gradientUnits="userSpaceOnUse"
   x1="37.580101"
   y1="-193.4463"
   x2="56.784"
   y2="-202.28169"
   gradientTransform="matrix(0.5834,0,0,-0.5834,110.5361,20.4438)">
			<stop
   offset="0"
   style="stop-color:#FFFFFF;stop-opacity:0.1527"
   id="stop334" />
			<stop
   offset="1"
   style="stop-color:#FFFFFF"
   id="stop336" />
		</linearGradient>
		<path
   id="path5488"
   sodipodi:nodetypes="ccc"
   style="opacity:0.78530004;fill:url(#path5488_1_);enable-background:new"
   d="m 144.868,132.89 c -5.641,-1.39 -10.63,2.967 -12.831,6.337 2.117,-3.505 6.963,-7.912 12.831,-6.337 z"
   inkscape:connector-curvature="0" />
		
			<linearGradient
   id="path5490_1_"
   gradientUnits="userSpaceOnUse"
   x1="64.172897"
   y1="-272.47849"
   x2="66.926903"
   y2="-245.244"
   gradientTransform="matrix(0.5834,0,0,-0.5834,110.3022,20.2681)">
			<stop
   offset="0"
   style="stop-color:#000000;stop-opacity:0"
   id="stop340" />
			<stop
   offset="0.5"
   style="stop-color:#000000;stop-opacity:0.6764"
   id="stop342" />
			<stop
   offset="1"
   style="stop-color:#000000;stop-opacity:0"
   id="stop344" />
		</linearGradient>
		<path
   id="path5490"
   sodipodi:nodetypes="ccc"
   style="fill:url(#path5490_1_)"
   d="m 149.366,163.319 c -0.613,5.404 -0.833,10.415 -1.874,16.246 1.393,-5.288 1.248,-10.83 1.874,-16.246 z"
   inkscape:connector-curvature="0" />
		
			<linearGradient
   id="path5492_1_"
   gradientUnits="userSpaceOnUse"
   x1="64.093803"
   y1="-272.48099"
   x2="66.8479"
   y2="-245.2457"
   gradientTransform="matrix(0.5834,0,0,-0.5834,110.5361,20.2681)">
			<stop
   offset="0"
   style="stop-color:#FFFFFF;stop-opacity:0.1527"
   id="stop348" />
			<stop
   offset="1"
   style="stop-color:#FFFFFF"
   id="stop350" />
		</linearGradient>
		<path
   id="path5492"
   sodipodi:nodetypes="ccc"
   style="fill:url(#path5492_1_)"
   d="m 149.555,163.319 c -0.613,5.404 -0.834,10.415 -1.875,16.246 1.392,-5.288 1.25,-10.83 1.875,-16.246 z"
   inkscape:connector-curvature="0" />
		
			<linearGradient
   id="path5494_1_"
   gradientUnits="userSpaceOnUse"
   x1="69.042"
   y1="-242.08591"
   x2="76.8097"
   y2="-268.01901"
   gradientTransform="matrix(0.5834,0,0,-0.5834,110.3022,20.2681)">
			<stop
   offset="0"
   style="stop-color:#000000;stop-opacity:0"
   id="stop354" />
			<stop
   offset="0.5"
   style="stop-color:#000000;stop-opacity:0.6764"
   id="stop356" />
			<stop
   offset="1"
   style="stop-color:#000000;stop-opacity:0"
   id="stop358" />
		</linearGradient>
		<path
   id="path5494"
   sodipodi:nodetypes="ccc"
   style="fill:url(#path5494_1_)"
   d="m 150.705,161.356 c 0.901,5.034 3.277,8.842 4.508,15.62 -1.737,-8.273 -3.752,-9.008 -4.508,-15.62 z"
   inkscape:connector-curvature="0" />
		
			<linearGradient
   id="path5496_1_"
   gradientUnits="userSpaceOnUse"
   x1="69.417"
   y1="-242.0088"
   x2="77.185303"
   y2="-267.94379"
   gradientTransform="matrix(0.5834,0,0,-0.5834,109.9526,20.2681)">
			<stop
   offset="0"
   style="stop-color:#FFFFFF;stop-opacity:0.1527"
   id="stop362" />
			<stop
   offset="1"
   style="stop-color:#FFFFFF"
   id="stop364" />
		</linearGradient>
		<path
   id="path5496"
   sodipodi:nodetypes="ccc"
   style="fill:url(#path5496_1_)"
   d="m 150.611,161.356 c 0.902,5.034 3.229,8.842 4.461,15.62 -1.737,-8.273 -3.705,-9.008 -4.461,-15.62 z"
   inkscape:connector-curvature="0" />
		<linearGradient
   id="SVGID_11_"
   gradientUnits="userSpaceOnUse"
   x1="136.937"
   y1="137.5464"
   x2="142.82651"
   y2="139.9933">
			<stop
   offset="0"
   style="stop-color:#F7E8D7"
   id="stop368" />
			<stop
   offset="1"
   style="stop-color:#F7E8D7;stop-opacity:0"
   id="stop370" />
		</linearGradient>
		<path
   style="fill:url(#SVGID_11_)"
   d="m 145.988,132.564 c -0.312,1.593 -0.777,2.86 -1.867,4.146 -0.358,0.423 -0.947,0.809 -1.499,0.942 -4.512,1.074 -7.465,2.71 -10.056,6.438 v 0.383 c 2.59,-3.728 5.543,-5.363 10.056,-6.439 0.551,-0.133 1.14,-0.532 1.499,-0.954 0.807,-0.951 1.275,-1.886 1.588,-2.956 0.002,-0.015 0.013,-0.029 0.016,-0.045 0.098,-0.51 0.189,-1.026 0.263,-1.515 z"
   id="path372"
   inkscape:connector-curvature="0" />
		<linearGradient
   id="SVGID_12_"
   gradientUnits="userSpaceOnUse"
   x1="145.75101"
   y1="140.0088"
   x2="152.7989"
   y2="142.9369">
			<stop
   offset="0"
   style="stop-color:#F7E8D7"
   id="stop375" />
			<stop
   offset="1"
   style="stop-color:#F7E8D7;stop-opacity:0"
   id="stop377" />
		</linearGradient>
		<path
   style="fill:url(#SVGID_12_)"
   d="m 144.988,137.093 c -0.016,0.031 -0.027,0.076 -0.043,0.103 -0.121,0.199 0.182,0.489 0.367,0.617 8.385,11.963 10.688,7.825 0,-0.381 -0.109,-0.076 -0.246,-0.206 -0.324,-0.339 z"
   id="path379"
   inkscape:connector-curvature="0" />
		
			<linearGradient
   id="path5502_1_"
   gradientUnits="userSpaceOnUse"
   x1="64.7173"
   y1="-191.5576"
   x2="24.629801"
   y2="-212.9782"
   gradientTransform="matrix(0.5834,0,0,-0.5834,110.3022,20.2681)">
			<stop
   offset="0"
   style="stop-color:#FFFFFF"
   id="stop382" />
			<stop
   offset="1"
   style="stop-color:#FFFFFF;stop-opacity:0"
   id="stop384" />
		</linearGradient>
		<path
   id="path5502"
   sodipodi:nodetypes="ccc"
   style="opacity:0.625;fill:url(#path5502_1_);enable-background:new"
   d="m 143.446,135.152 c -3.979,0.419 -7.096,2.746 -9.468,4.888 2.189,-2.346 5.704,-4.987 9.468,-4.888 z"
   inkscape:connector-curvature="0" />
		
			<linearGradient
   id="path5506_1_"
   gradientUnits="userSpaceOnUse"
   x1="0.91210002"
   y1="-255.25729"
   x2="-1.5919"
   y2="-254.2442"
   gradientTransform="matrix(0.6118,0,0,-0.6118,123.8843,24.8604)">
			<stop
   offset="0"
   style="stop-color:#653515"
   id="stop388" />
			<stop
   offset="1"
   style="stop-color:#AAAAAA;stop-opacity:0"
   id="stop390" />
		</linearGradient>
		<path
   id="path5506"
   sodipodi:nodetypes="cccc"
   style="fill:url(#path5506_1_)"
   d="m 124.014,178.316 c -0.374,0.188 -1.872,4.316 -1.872,4.316 l 1.708,0.597 0.164,-4.913 z"
   inkscape:connector-curvature="0" />
		
			<linearGradient
   id="path5508_1_"
   gradientUnits="userSpaceOnUse"
   x1="-1059.6475"
   y1="-255.41409"
   x2="-1062.152"
   y2="-254.4008"
   gradientTransform="matrix(-0.6118,0,0,-0.6118,-488.7432,24.3711)">
			<stop
   offset="0"
   style="stop-color:#653515"
   id="stop394" />
			<stop
   offset="1"
   style="stop-color:#AAAAAA;stop-opacity:0"
   id="stop396" />
		</linearGradient>
		<path
   id="path5508"
   sodipodi:nodetypes="cccc"
   style="fill:url(#path5508_1_)"
   d="m 159.979,177.921 c 0.374,0.188 1.871,4.318 1.871,4.318 l -1.707,0.597 -0.164,-4.915 z"
   inkscape:connector-curvature="0" />
		
			<linearGradient
   id="path5510_1_"
   gradientUnits="userSpaceOnUse"
   x1="67.009804"
   y1="-227.77879"
   x2="71.565804"
   y2="-252.5733"
   gradientTransform="matrix(0.59,0,0,-0.6344,111.7417,31.561)">
			<stop
   offset="0"
   style="stop-color:#FFFFFF"
   id="stop400" />
			<stop
   offset="1"
   style="stop-color:#FFFFFF;stop-opacity:0"
   id="stop402" />
		</linearGradient>
		<path
   id="path5510"
   sodipodi:nodetypes="ccc"
   style="opacity:0.1929;fill:url(#path5510_1_);enable-background:new"
   d="m 150.896,169.94 c 0.078,2.782 -0.193,6.58 0.266,9.334 0.227,-3.037 -0.17,-6.556 -0.266,-9.334 z"
   inkscape:connector-curvature="0" />
	</g>
</g>
</svg>