<svg xmlns="http://www.w3.org/2000/svg" viewBox="0 0 150 150"><defs><style>.a{fill:#fff;}</style></defs><ellipse class="a" cx="74.98981" cy="80.67322" rx="9.24567" ry="9.36841"/><path class="a" d="M84.05255,102.88159c0-5.77344,1.25787-10.27069,3.53546-13.18921a6.5765,6.5765,0,0,0-3.16333-1.144,12.15212,12.15212,0,0,1-18.8695.00024,6.55952,6.55952,0,0,0-3.09259,1.09882c1.98053,2.48364,3.48486,6.564,3.48486,13.23419a9.45244,9.45244,0,0,1-1.92011,5.90058c.142.00671.28229.01666.4281.01666H85.54456c.14581,0,.28607-.00995.4281-.01666A9.45244,9.45244,0,0,1,84.05255,102.88159Z"/><path class="a" d="M112.6297,24.79681H36.38641a3.00887,3.00887,0,0,0-3,3v32.2074a3.00883,3.00883,0,0,0,3,3H112.6297a3.00879,3.00879,0,0,0,3-3V27.79681A3.00883,3.00883,0,0,0,112.6297,24.79681ZM56.771,53.46826H44.001a1.5,1.5,0,0,1,0-3h12.77a1.5,1.5,0,0,1,0,3Zm12.77-8.40674H44.001a1.5,1.5,0,0,1,0-3h25.54a1.5,1.5,0,0,1,0,3Zm0-8.40673H44.001a1.5,1.5,0,0,1,0-3h25.54a1.5,1.5,0,0,1,0,3Z"/><path class="a" d="M98.5647,88.61072a23.61168,23.61168,0,0,1,14.579-6.014,9.52833,9.52833,0,0,0,.13214-1.52014,9.24647,9.24647,0,1,0-18.49133,0A9.39846,9.39846,0,0,0,98.5647,88.61072Z"/><path class="a" d="M55.38422,88.95166a12.15223,12.15223,0,0,1-18.86951.00024c-6.34.63172-7.543,8.62726-7.543,13.92969,0,3.94782,2.57733,6.32056,6.44336,6.32056H56.50415c3.866,0,6.4433-2.37274,6.4433-6.32056C62.94745,97.559,61.74408,89.58038,55.38422,88.95166Z"/><ellipse class="a" cx="45.94934" cy="81.07652" rx="9.24567" ry="9.36836"/><path class="a" d="M90.648,106.27551a23.60173,23.60173,0,0,1,5.79358-15.50293,12.41765,12.41765,0,0,1-1.846-1.82068c-6.34.63172-7.543,8.62726-7.543,13.92969a5.82265,5.82265,0,0,0,3.723,5.85358A23.87268,23.87268,0,0,1,90.648,106.27551Z"/><path class="a" d="M122.81323,106.85413l-5.15985-5.15986c-.77777-.77783-1.41418-.51422-1.41418.58576v4.52c-2.5727.38751-4.5661.02771-5.92719-1.072-1.41943-1.14649-2.21924-3.17139-2.37793-6.01807a1.49989,1.49989,0,0,0-2.99512.167c.20752,3.729,1.38086,6.48243,3.4878,8.18457a9.14616,9.14616,0,0,0,5.92529,1.89209,15.46752,15.46752,0,0,0,1.88715-.134v4.43695c0,1.1.63641,1.36359,1.41418.58576l5.15985-5.15979A2.00586,2.00586,0,0,0,122.81323,106.85413Z"/><path class="a" d="M114.35742,85.56592a20.70947,20.70947,0,1,0,20.71,20.70947A20.73268,20.73268,0,0,0,114.35742,85.56592Zm0,38.41894a17.70947,17.70947,0,1,1,17.71-17.70947A17.7294,17.7294,0,0,1,114.35742,123.98486Z"/></svg>