<svg xmlns="http://www.w3.org/2000/svg" viewBox="0 0 150 150"><defs><style>.a{fill:#fff;}</style></defs><path class="a" d="M83.14124,96.05573c2.09533-4.88465,5.58923-7.98694,10.01782-8.98066a17.14912,17.14912,0,0,1,3.57782-19.63891q-.001-.93723-.00073-1.87433-2.36344-.85812-4.72669-1.71674a3.28861,3.28861,0,0,1-.73859-.38311,20.94069,20.94069,0,0,1-30.13256-.44117,1.80266,1.80266,0,0,0-.76941-.27063c-.13636,0-.26319.01374-.39722.01709-.06427.07428-.11981.15509-.19171.22321a3.37852,3.37852,0,0,1-1.25818.83771q-.42252.15727-.846.31207l.00012.13891q.00028.40367.0008.80726a4.29616,4.29616,0,0,1,.7348,2.3443,4.23269,4.23269,0,0,1-.40131,1.85095c.28376,1.51874.43012,2.99585.54627,4.30658.03906.44043.0625.88244.0824,1.324a4.89791,4.89791,0,0,1-.07123,1.06836,3.24078,3.24078,0,0,1-.34931.98474,17.02753,17.02753,0,0,1-1.411,10.11994c4.08393.91913,9.36975,4.00274,11.52887,13.44354h13.382A26.66363,26.66363,0,0,1,83.14124,96.05573Z"/><path class="a" d="M54.48792,90.76154a16.81884,16.81884,0,0,1-25.997.00012c-9.10944.69726-10.80652,12.07953-10.80652,19.58368,0,5.53534,3.61377,8.8623,9.03442,8.8623H56.28857c5.42066,0,9.03443-3.327,9.03443-8.8623C65.323,102.81262,63.62555,91.45526,54.48792,90.76154Z"/><ellipse class="a" cx="76.42386" cy="48.21696" rx="17.19632" ry="17.42464"/><path class="a" d="M50.46259,68.74982a4.23283,4.23283,0,0,1-.16742-1.717q.01245-.11528.03076-.22937-3.64866,1.32348-7.2959,2.6502a3.695,3.695,0,0,1-2.56567.00177l-7.206-2.61688q-.25727-.09337-.51446-.18689.00045.64929.00048,1.29871a1.27579,1.27579,0,0,0,.46161,1.01355,6.21169,6.21169,0,0,0,1.16449.785A11.37644,11.37644,0,0,0,37.767,70.679a26.61149,26.61149,0,0,0,3.9314.28649q1.1856,0,2.37384-.09692a18.03182,18.03182,0,0,0,4.04937-.72473,5.49507,5.49507,0,0,0,2.02741-1.03406A1.90029,1.90029,0,0,0,50.46259,68.74982Z"/><path class="a" d="M54.34106,78.42676a3.30458,3.30458,0,0,1-1.11621.19787,3.18974,3.18974,0,0,1-3.16211-3.15588,11.0918,11.0918,0,0,1,.033-1.39447c.03821-.48285.08539-1.00147.13855-1.53339a10.852,10.852,0,0,1-1.20257.46155,20.80228,20.80228,0,0,1-4.71875.85645c-.87866.07074-1.7583.10656-2.61456.10656a29.75436,29.75436,0,0,1-4.37391-.31927,14.12789,14.12789,0,0,1-4.279-1.20569,8.74574,8.74574,0,0,1-1.56781-1.01855,13.17586,13.17586,0,0,0,10.0116,21.48553A13.04283,13.04283,0,0,0,54.453,79.77167a13.32235,13.32235,0,0,0-.07354-1.33441C54.36688,78.43274,54.35364,78.4314,54.34106,78.42676Z"/><path class="a" d="M54.86212,61.9646q1.30976-.46471,2.613-.94794c.09265-.03448.16113-.134.24084-.20331-.08056-.0686-.15014-.16754-.24341-.20147q-7.74535-2.81671-15.49682-5.61676a.68895.68895,0,0,0-.22968-.037.6988.6988,0,0,0-.233.03766q-7.74069,2.79456-15.474,5.60956a1.06833,1.06833,0,0,0-.26337.21161,1.10642,1.10642,0,0,0,.26648.2088q7.72239,2.80856,15.44721,5.61017a.737.737,0,0,0,.2547.0484.75027.75027,0,0,0,.26007-.04987q5.86578-2.13492,11.73517-4.26c.08148-.02954.16491-.05371.24682-.0802a.31424.31424,0,0,1,.02375.06928c.002,1.25366.00482,2.50732-.00043,3.76092a.2714.2714,0,0,1-.11078.186,1.346,1.346,0,0,0-.33124,1.96521.85622.85622,0,0,1,.17719.98071c-.01428.04645-.02252.09491-.03211.1427a41.76268,41.76268,0,0,0-.6261,4.912,8.29638,8.29638,0,0,0-.02661,1.02356c.00891.19958.05854.29.1651.29a.52516.52516,0,0,0,.22754-.07757c.11463-.0614.22614-.12879.33771-.19568a1.00741,1.00741,0,0,1,1.10785-.00256c.14642.08728.29565.17053.44757.24786a.251.251,0,0,0,.1123.03119c.08252,0,.13672-.06232.15546-.16834a1.90254,1.90254,0,0,0,.02869-.41229c-.01795-.39831-.03852-.79687-.07373-1.19391a34.65363,34.65363,0,0,0-.76557-5.22558,1.39489,1.39489,0,0,0-.04791-2.33619.26673.26673,0,0,1-.07568-.18585c-.00458-1.29437-.00159-2.58874-.00714-3.88311A.23517.23517,0,0,1,54.86212,61.9646Z"/><path class="a" d="M121.49493,90.76154a16.81884,16.81884,0,0,1-25.997.00012c-9.10943.69726-10.80651,12.07953-10.80651,19.58368,0,5.53534,3.61377,8.8623,9.03442,8.8623h29.56976c5.42066,0,9.03443-3.327,9.03443-8.8623C132.33,102.81262,130.63257,91.45526,121.49493,90.76154Z"/><path class="a" d="M117.4696,68.74982a4.23318,4.23318,0,0,1-.16742-1.717q.01246-.11528.03077-.22937-3.64866,1.32348-7.2959,2.6502a3.69506,3.69506,0,0,1-2.56568.00177l-7.206-2.61688q-.25726-.09337-.51446-.18689.00045.64929.00048,1.29871a1.27576,1.27576,0,0,0,.46161,1.01355,6.21169,6.21169,0,0,0,1.16449.785,11.37644,11.37644,0,0,0,3.39655.93006,26.61146,26.61146,0,0,0,3.93139.28649q1.18562,0,2.37384-.09692a18.03181,18.03181,0,0,0,4.04938-.72473,5.49507,5.49507,0,0,0,2.02741-1.03406A1.89987,1.89987,0,0,0,117.4696,68.74982Z"/><path class="a" d="M121.34808,78.42676a3.30458,3.30458,0,0,1-1.11621.19787,3.18974,3.18974,0,0,1-3.16211-3.15588,11.0918,11.0918,0,0,1,.033-1.39447c.03821-.48285.08539-1.00147.13855-1.53339a10.852,10.852,0,0,1-1.20257.46155,20.80228,20.80228,0,0,1-4.71875.85645c-.87867.07074-1.7583.10656-2.61457.10656a29.75422,29.75422,0,0,1-4.3739-.31927,14.12781,14.12781,0,0,1-4.279-1.20569,8.74574,8.74574,0,0,1-1.56781-1.01855,13.17586,13.17586,0,0,0,10.0116,21.48553A13.04284,13.04284,0,0,0,121.46,79.77167a13.31937,13.31937,0,0,0-.07355-1.33441C121.3739,78.43274,121.36066,78.4314,121.34808,78.42676Z"/><path class="a" d="M121.86914,61.9646q1.30976-.46471,2.613-.94794c.09265-.03448.16113-.134.24084-.20331-.08057-.0686-.15015-.16754-.24341-.20147q-7.74536-2.81671-15.49682-5.61676a.68895.68895,0,0,0-.22968-.037.69876.69876,0,0,0-.233.03766q-7.74069,2.79456-15.474,5.60956a1.06815,1.06815,0,0,0-.26337.21161,1.10622,1.10622,0,0,0,.26648.2088q7.72239,2.80856,15.44721,5.61017a.737.737,0,0,0,.2547.0484.75027.75027,0,0,0,.26007-.04987q5.86578-2.13492,11.73517-4.26c.08148-.02954.16491-.05371.24682-.0802a.31481.31481,0,0,1,.02375.06928c.00195,1.25366.00482,2.50732-.00043,3.76092a.27147.27147,0,0,1-.11078.186,1.346,1.346,0,0,0-.33124,1.96521.85622.85622,0,0,1,.17719.98071,1.4595,1.4595,0,0,0-.03211.1427,41.76057,41.76057,0,0,0-.6261,4.912,8.29638,8.29638,0,0,0-.02661,1.02356c.00891.19958.05853.29.1651.29a.52516.52516,0,0,0,.22754-.07757c.11463-.0614.22614-.12879.33771-.19568a1.00741,1.00741,0,0,1,1.10785-.00256c.14642.08728.29565.17053.44757.24786a.251.251,0,0,0,.1123.03119c.08252,0,.13672-.06232.15546-.16834a1.90254,1.90254,0,0,0,.02869-.41229c-.01795-.39831-.03852-.79687-.07373-1.19391a34.65491,34.65491,0,0,0-.76557-5.22558,1.39489,1.39489,0,0,0-.04791-2.33619.26673.26673,0,0,1-.07568-.18585c-.00458-1.29437-.00159-2.58874-.00715-3.88311A.23518.23518,0,0,1,121.86914,61.9646Z"/></svg>