<svg xmlns="http://www.w3.org/2000/svg" viewBox="0 0 150 150"><defs><style>.a{fill:#fff;}</style></defs><path class="a" d="M99.6814,72.08667a20.12893,20.12893,0,0,1-2.99256,1.92657A26.82573,26.82573,0,0,1,93.944,75.2514q-.6903.26817-1.37726.50159-.68582.23438-1.361.44037A10.31513,10.31513,0,0,1,84.67419,81.988a10.73582,10.73582,0,0,1-3.05078.43634,11.30137,11.30137,0,0,1-1.384-.08588A10.11726,10.11726,0,0,1,76.23993,80.941c-.41931.01947-.83948.03552-1.26349.03552a27.06591,27.06591,0,0,1-20.598-9.54236c-15.53125.61261-18.40637,19.63135-18.40637,32.11432,0,9.0697,5.92114,14.52094,14.80285,14.52094H99.2251c8.88171,0,14.80285-5.45124,14.80285-14.52094C114.028,92.21027,111.672,75.596,99.6814,72.08667Z"/><path class="a" d="M71.155,72.71356a10.632,10.632,0,0,1,7.36395-10.848,10.76125,10.76125,0,0,1,2.49982-.4483c.21026-.0127.42059-.02381.631-.02381H81.65a10.4082,10.4082,0,0,1,7.80841,3.52558c.48407-.18988.93866-.387,1.36713-.593a13.10247,13.10247,0,0,0,3.23669-2.14258c-.09259-1.44079-.07562-2.83764-.05908-4.19464.00635-.525.01288-1.04993.01233-1.57416l-.003-2.20154c-.00494-3.35418-.00867-6.81719.01495-10.24035a21.09159,21.09159,0,0,0-38.20019.20709q.048,2.73862.09729,5.4773c.077,4.15258.15649,8.44653.21185,12.67553a6.5022,6.5022,0,0,1-.05652.88764,21.332,21.332,0,0,0,15.4264,11.44183A10.69652,10.69652,0,0,1,71.155,72.71356Z"/><path class="a" d="M106.48572,39.57239a10.40929,10.40929,0,0,0-2.6778-.31037q-.34653,0-.68884.01465-.10657.00439-.20752.00446a2.13265,2.13265,0,0,1-1.78528-.73773,3.24547,3.24547,0,0,1-.2279-.29779q-.11051-.16224-.21784-.35437-.5212-.93147-1.0935-1.80536a29.30942,29.30942,0,0,0-49.26038.5318c-.145.23175-.28857.44793-.433.64874a4.281,4.281,0,0,1-3.89276,2.06048q-.19145,0-.39447-.00946-.14631-.00686-.2909-.00683a6.22012,6.22012,0,0,0-6.12732,6.227c-.08539,4.49353-.06756,8.99054-.00421,13.48474a6.07065,6.07065,0,0,0,4.79926,6.01532,15.99842,15.99842,0,0,0,3.2005.28088c.828,0,1.65857-.03991,2.47638-.08594A2.85947,2.85947,0,0,0,52.13672,62.385c-.09418-7.19647-.25519-14.39209-.369-21.58832a2.08485,2.08485,0,0,1,.34424-.99316c5.10986-8.80414,12.75555-13.60993,22.93243-13.63129l.068-.00012c10.2033-.00018,17.86285,4.82446,22.98883,13.65039a2.314,2.314,0,0,1,.22314,1.241c-.052.85064-.28912,1.6947-.29559,2.54266-.03229,4.26782-.018,8.53607-.01337,12.80414.0022,2.04285-.09778,4.09631.08521,6.12353a2.15091,2.15091,0,0,1-.63257,1.91242c-2.63709,2.73859-5.96881,4.175-9.62683,5.22613-.21125-.3789-.33954-.61529-.47357-.84838a6.57771,6.57771,0,0,0-5.718-3.43055,6.70719,6.70719,0,0,0-1.96222.29761A6.52157,6.52157,0,0,0,80.7309,78.36877a7.26985,7.26985,0,0,0,.89251.05555A6.34658,6.34658,0,0,0,87.39636,74.895a7.11713,7.11713,0,0,0,.4126-1.00482,1.73054,1.73054,0,0,1,1.36975-1.26624c3.562-1.0332,7.07446-2.37067,9.62293-5.11206a8.13145,8.13145,0,0,1,.86987-.80273,6.65661,6.65661,0,0,1,4.47479-1.44147q.22576,0,.45868.00781c.07037.00238.14081.00354.21063.00354a6.26843,6.26843,0,0,0,6.18958-6.37q.03936-6.67439-.00189-13.34906A6.29618,6.29618,0,0,0,106.48572,39.57239Z"/></svg>