<svg xmlns="http://www.w3.org/2000/svg" viewBox="0 0 150 150"><defs><style>.a{fill:#fff;}</style></defs><path class="a" d="M109.273,52.26074V40.92639a3.00879,3.00879,0,0,0-3-3H95.19043v5.49652a4.36008,4.36008,0,0,1-8.72015,0V37.92639H62.01837v5.49652a4.36,4.36,0,1,1-8.72009,0V37.92639H42.2157a3.00879,3.00879,0,0,0-3,3V52.26074Z"/><path class="a" d="M88.12555,108.74915h-5.577V99.63953h6.39954a23.54366,23.54366,0,0,1,1.53-3.90766H82.54858v-9.1015H91.6582v7.01a23.88077,23.88077,0,0,1,3.90766-4.711v-2.299h2.87921A23.56358,23.56358,0,0,1,109.273,82.69006V55.26074H39.2157v55.91272a3.00878,3.00878,0,0,0,3,3H89.35388A23.51654,23.51654,0,0,1,88.12555,108.74915Zm7.44031-47.55091h9.10962l-.00409,9.10144H95.56586Zm0,13.0091h9.10962l-.00409,9.10962H95.56586ZM82.54858,61.19824H91.6582v9.10144H82.54858Zm0,13.0091H91.6582V83.317H82.54858ZM53.0943,108.74915H43.99292V99.63953h9.10962Zm0-13.01728H43.99292v-9.1015h9.10962Zm0-12.41491H43.99292V74.20734h9.10962Zm0-13.01728H43.99292V61.19824h9.10962Zm13.01727,38.44947H57.002V99.63953h9.10962Zm0-13.01728H57.002v-9.1015h9.10962Zm0-12.41491H57.002V74.20734h9.10962Zm0-13.01728H57.002V61.19824h9.10962Zm13.01325,38.44947H70.01923V99.63953h9.10968Zm0-13.01728H70.01923v-9.1015h9.10968Zm0-12.41491H70.01923V74.20734h9.10968Zm0-13.01728H70.01923V61.19824h9.10968Z"/><path class="a" d="M119.48438,105.624h-5.99561V95.74219a1.5,1.5,0,0,0-3,0V107.124a1.50007,1.50007,0,0,0,1.5,1.5h7.49561a1.5,1.5,0,1,0,0-3Z"/><path class="a" d="M59.01837,43.42291V33.18634a1.36,1.36,0,1,0-2.72009,0V43.42291a1.36,1.36,0,1,0,2.72009,0Z"/><path class="a" d="M92.19043,43.42291V33.18634a1.36008,1.36008,0,1,0-2.72015,0V43.42291a1.36008,1.36008,0,0,0,2.72015,0Z"/><path class="a" d="M111.98877,85.56543a20.71,20.71,0,1,0,20.70947,20.71A20.73279,20.73279,0,0,0,111.98877,85.56543Zm0,38.41992a17.71,17.71,0,1,1,17.70947-17.71A17.7295,17.7295,0,0,1,111.98877,123.98535Z"/></svg>