<svg xmlns="http://www.w3.org/2000/svg" viewBox="0 0 150 150"><defs><style>.a{fill:#fff;}</style></defs><path class="a" d="M103.68073,35.67682H46.31927a3.00883,3.00883,0,0,0-3,3v72.6463a3.00879,3.00879,0,0,0,3,3h57.36146a3.00879,3.00879,0,0,0,3-3V38.67682A3.00883,3.00883,0,0,0,103.68073,35.67682ZM60.48828,99.99707H60.209a3,3,0,0,1,0-6h.2793a3,3,0,0,1,0,6Zm0-14.001H60.209a3,3,0,1,1,0-6h.2793a3,3,0,1,1,0,6Zm0-15.001H60.209a3,3,0,1,1,0-6h.2793a3,3,0,1,1,0,6Zm7.31152-22.919-7.665,7.666-.00568.00378a1.49664,1.49664,0,0,1-2.10956.0968L54.207,52.3877A1.49959,1.49959,0,0,1,56.2207,50.165l2.75354,2.49536,6.70447-6.70532a1.49984,1.49984,0,0,1,2.12109,2.12109ZM93.53613,98.501H72.44922a1.5,1.5,0,0,1,0-3H93.53613a1.5,1.5,0,0,1,0,3Zm0-14.001H72.44922a1.5,1.5,0,0,1,0-3H93.53613a1.5,1.5,0,1,1,0,3Zm0-15.001H72.44922a1.5,1.5,0,0,1,0-3H93.53613a1.5,1.5,0,0,1,0,3Zm0-16.001H72.44922a1.5,1.5,0,0,1,0-3H93.53613a1.5,1.5,0,0,1,0,3Z"/></svg>