<svg xmlns="http://www.w3.org/2000/svg" viewBox="0 0 150 150"><defs><style>.a{fill:#fff;}</style></defs><path class="a" d="M40.4021,72.52325l7.051,2.12861q12.779,3.85794,25.56019,7.70922c.04663.00312.09332.00544.13964.00843l.09009.0058c.35291.023.712.03466,1.06745.03466a20.74948,20.74948,0,0,0,6.2055-1.04516c7.72437-2.40924,15.59589-4.76929,23.20825-7.05164q3.25077-.97467,6.50067-1.9527c-2.45629-7.01959-7.027-12.64862-15.27063-12.97107a26.18836,26.18836,0,0,1-39.9541.00019c-8.20312.32354-12.76074,5.9447-15.21533,12.94983C39.989,72.40045,40.19855,72.46185,40.4021,72.52325Z"/><ellipse class="a" cx="74.97718" cy="41.95111" rx="20.60061" ry="20.874"/><path class="a" d="M90.648,106.27551a23.73645,23.73645,0,0,1,23.70959-23.70959c.03815,0,.07569.00268.11377.00287-.00964-2.37268-.00378-2.47-.00647-5.6377-.00018-.18732-.03277-.37457-.05322-.5935-.23041.063-.38977.10284-.54651.15008-10.62488,3.20361-21.2716,6.34772-31.86035,9.65039A25.634,25.634,0,0,1,74.31049,87.41q-.69215,0-1.393-.04528a5.10808,5.10808,0,0,1-1.128-.1504Q55.37,82.27173,38.95728,77.31c-1.08539-.32758-2.17383-.64661-3.32831-.98963,0,1.27851.00067,2.47394-.00012,3.66944-.00159,2.24579-.01026,1.5661.00152,2.93567a12.49158,12.49158,0,0,1,1.95746.30474c1.83813.45533,3.63892.98377,5.35236,1.57068,6.70758,2.29749,10.81127,9.65778,8.96118,16.07245a12.3191,12.3191,0,0,1-11.9046,8.68952c-.3487,0-.702-.01447-1.0503-.043l-.22973-.0188c-1.01007-.08264-2.04285-.17218-3.09357-.29749.00268,1.45783.0119.58606-.01428,2.81867-.00611.51642.18029.71222.70471.86956q15.73855,4.72266,31.46374,9.48328c3.81684,1.15192,4.51825,1.36475,7.34546,1.36475.63629,0,1.38025-.01081,2.29163-.02405a3.38536,3.38536,0,0,0,.91235-.14667q7.95-2.3941,15.89966-4.78869A23.56152,23.56152,0,0,1,90.648,106.27551Z"/><path class="a" d="M41.32,89.53107c-1.61664-.55371-3.2688-1.035-4.93433-1.44751a7.33558,7.33558,0,0,0-1.765-.221,5.57334,5.57334,0,0,0-5.71851,4.76074c-.21033,1.33692-.33069,2.68592-.492,4.02936a7.09,7.09,0,0,0,5.87786,7.30078,49.26747,49.26747,0,0,0,5.06726.58307q.32281.02646.64155.02631a7.31706,7.31706,0,0,0,7.1004-5.07514C48.21289,95.61932,45.54828,90.97937,41.32,89.53107Z"/><path class="a" d="M138.68964,106.02643h-3.54505a20.71208,20.71208,0,0,0-19.51282-20.40094,1.50147,1.50147,0,0,0-.27142-.03955c-.154-.00684-.30389.00628-.45727.00287-.15271-.00336-.30133-.02289-.45484-.02289-.21319,0-.423.02325-.63537.02972-.31653.00946-.63184.02039-.94489.04413-.35632.027-.709.06964-1.06183.11475-.30981.03973-.61957.07721-.92523.13061-.36884.06415-.73193.14752-1.09564.23133-.27362.06341-.54877.12066-.8183.19488-.41486.11359-.82129.25061-1.22754.38965-.2052.07068-.41388.13232-.61621.20917-.49188.18591-.97241.39862-1.44885.62182-.10755.05054-.21894.09326-.3255.14563a20.698,20.698,0,0,0-4.9856,3.41516c-.02576.02387-.03528.05677-.059.082a20.63711,20.63711,0,0,0-6.54651,14.18854c-.01013.23035.00586.45728.00324.68671a1.49067,1.49067,0,0,0-.02277.2254c0,.17474.02191.344.02625.5177.0094.39624.02826.79.05987,1.18256.02326.28424.05255.566.08722.84692q.07654.6276.19067,1.24573c.04535.24377.094.48559.14789.72632q.14685.66128.33728,1.30877c.05994.20386.12159.40638.18756.60761q.22166.6785.49091,1.33862c.071.17462.143.348.21863.52027q.29232.66676.63281,1.31164c.08606.16357.17334.32568.26361.48663q.34983.62347.744,1.22345.16452.25095.33569.49634.394.56415.82666,1.10468c.13672.17065.27625.33777.41816.504.15875.18592.30145.382.46734.56318a1.50445,1.50445,0,0,0,.22656.20013,20.66187,20.66187,0,0,0,29.69239.45953,1.49984,1.49984,0,0,0-2.1211-2.12109,17.6817,17.6817,0,0,1-25.98694-1.0484q-.18017-.21112-.35376-.42633-.37041-.46235-.7102-.94916-.14511-.208-.28369-.41943-.33674-.51353-.63892-1.05048c-.07672-.13678-.15088-.2746-.22375-.41315q-.28995-.55105-.54212-1.12378c-.06439-.14685-.126-.29473-.18634-.44323q-.22924-.56341-.42-1.14551-.0846-.2591-.16077-.52087-.16158-.54987-.28723-1.11438-.06968-.31339-.12811-.62952c-.06458-.34766-.11731-.69922-.16126-1.05359-.03009-.24585-.05627-.49231-.07611-.74023-.02661-.32673-.04156-.65656-.05-.988-.01-.41132-.02392-.8222-.00555-1.23718A17.7352,17.7352,0,0,1,108.24127,89.696c.0824-.03082.16706-.05523.24994-.08483.43457-.15613.87537-.29865,1.32434-.4209.16535-.04474.33356-.07923.50031-.11914.37268-.08991.74774-.1731,1.12866-.23889.21924-.03754.44086-.06415.662-.09345.3385-.04529.6784-.08551,1.02221-.11127.2472-.01831.496-.02673.74475-.03479.32166-.01049.6446-.0141.97-.007a17.714,17.714,0,0,1,17.30115,17.44068h-3.51953c-1.1,0-1.36359.63641-.58575,1.41418l4.20385,4.20386a2.00586,2.00586,0,0,0,2.82843,0l4.20386-4.20386C140.05322,106.66284,139.78967,106.02643,138.68964,106.02643Z"/><path class="a" d="M119.79649,114.72385H109.23875a.15513.15513,0,0,0-.04213-.02727,1.67562,1.67562,0,0,1-1.39113-1.76722q-.00032-3.81771.00026-7.63541a1.68056,1.68056,0,0,1,1.75988-1.75513c.15518-.00031.31036-.00005.47719-.00005,0-.72531-.0067-1.42908.00318-2.13262a6.21762,6.21762,0,0,1,.06976-.88609,4.47256,4.47256,0,0,1,8.87645.834c.00131.66395.00021,1.3279.00021,1.99185v.19392c.21656,0,.4083-.004.59982.00068a1.66246,1.66246,0,0,1,1.6329,1.63143q.01423,3.95742.001,7.91493a1.64969,1.64969,0,0,1-1.102,1.53283C120.01645,114.6587,119.90576,114.68933,119.79649,114.72385Zm-2.29859-11.19456c0-.58136.0051-1.151-.00191-1.72053a7.5414,7.5414,0,0,0-.04715-1.02716,2.97822,2.97822,0,0,0-5.91091.55927c-.003.57648-.00056,1.153-.00059,1.72947,0,.15,0,.29994,0,.459Zm-3.72316,6.6915c0,.099-.0004.19794.00008.2969.00088.18045-.00552.36136.00507.54125a.73834.73834,0,0,0,.73106.68354.72894.72894,0,0,0,.74282-.68771c.01435-.51192.00982-1.02453.004-1.53673a.3533.3533,0,0,1,.15866-.33148,1.45594,1.45594,0,0,0,.48342-1.73183,1.49086,1.49086,0,0,0-2.81974.16975,1.45117,1.45117,0,0,0,.5553,1.57587.29868.29868,0,0,1,.142.287C113.76823,109.73152,113.77473,109.97628,113.77474,110.22079Z"/></svg>