<svg xmlns="http://www.w3.org/2000/svg" viewBox="0 0 150 150"><defs><style>.a{fill:#fff;}</style></defs><path class="a" d="M65.84668,100.49194v8.85718a3,3,0,0,0,6,0v-8.85718Z"/><path class="a" d="M24.25684,100.49194v8.85718a3,3,0,0,0,6,0v-8.85718Z"/><path class="a" d="M120.15039,100.49194v8.85718a3,3,0,0,0,6,0v-8.85718Z"/><path class="a" d="M78.56055,100.49194v8.85718a3,3,0,0,0,6,0v-8.85718Z"/><path class="a" d="M80.51428,50.25543h1.57929v-5.7796H108.576v5.7796h3.82519V41.70831a1.06075,1.06075,0,0,0-1.05767-1.05768H79.32605a1.06075,1.06075,0,0,0-1.05768,1.05768v9.19043A4.30745,4.30745,0,0,1,80.51428,50.25543Z"/><path class="a" d="M41.56128,50.25543v-5.7796H68.04376v5.7796h1.57929a4.30745,4.30745,0,0,1,2.24591.64331V41.70831a1.06075,1.06075,0,0,0-1.05768-1.05768H38.79376a1.06073,1.06073,0,0,0-1.05761,1.05768v8.54712Z"/><path class="a" d="M123.15582,84.24219H111.75348l.16864.77722,2.10522,2.10522a3,3,0,0,1-2.12127,5.12134H90.07629A3,3,0,0,1,87.955,87.12463l2.10522-2.10522.16864-.77722H76.87329l-.0155,13.24975h50.91778Z"/><path class="a" d="M122.82086,79.18976V54.60828a1.35676,1.35676,0,0,0-1.35284-1.35285H80.51428a1.35676,1.35676,0,0,0-1.35284,1.35285V79.18976a1.35676,1.35676,0,0,0,1.35284,1.35284h13.5871L92.805,86.51721,90.07629,89.246h21.82978l-2.72876-2.72876-1.29639-5.97461H121.468A1.35676,1.35676,0,0,0,122.82086,79.18976Zm-5.27051-3.91767H84.432V58.52594h33.1184Z"/><path class="a" d="M59.90851,84.24219l.16864.77722,2.10522,2.10522A3,3,0,0,1,60.0611,92.246H38.23132A3,3,0,0,1,36.11,87.12463l2.10522-2.10522.16864-.77722H26.84418L22.22449,97.49194H73.143l-.01624-13.24975Z"/><path class="a" d="M70.97589,79.18976V54.60828a1.35676,1.35676,0,0,0-1.35284-1.35285H28.66931a1.35676,1.35676,0,0,0-1.35284,1.35285V79.18976a1.35676,1.35676,0,0,0,1.35284,1.35284h13.5871L40.96,86.51721,38.23132,89.246H60.0611l-2.72876-2.72876L56.036,80.5426h13.5871A1.35676,1.35676,0,0,0,70.97589,79.18976Zm-5.27051-3.91767H32.587V58.52594h33.1184Z"/></svg>