<?xml version="1.0" encoding="utf-8"?>
<!-- Generator: Adobe Illustrator 22.1.0, SVG Export Plug-In . SVG Version: 6.00 Build 0)  -->
<svg version="1.1" id="Ebene_1" xmlns="http://www.w3.org/2000/svg" xmlns:xlink="http://www.w3.org/1999/xlink" x="0px" y="0px"
	 viewBox="0 0 50 50" style="enable-background:new 0 0 50 50;" xml:space="preserve">
<style type="text/css">
	.st0{fill:#FFFFFF;}
	.st1{fill:#7AB51D;}
	.st2{fill:#878781;}
	.st3{clip-path:url(#SVGID_2_);fill:#FFFFFF;}
	.st4{clip-path:url(#SVGID_2_);}
	.st5{clip-path:url(#SVGID_4_);fill:#76B72A;}
	.st6{clip-path:url(#SVGID_4_);fill:#87877F;}
	.st7{clip-path:url(#SVGID_4_);fill:#FFFFFF;}
</style>
<rect y="32.8" class="st0" width="50" height="1.7"/>
<path class="st1" d="M50,32.8V8.3C50,3.7,46.3,0,41.7,0H16c-4.6,0-7.7,3.1-7.7,7.7h0v0C3.7,7.7,0,11.4,0,16v16.8H50z"/>
<path class="st2" d="M0,34.6v7.1C0,46.3,3.7,50,8.3,50h25c4.6,0,8.3-3.7,8.3-8.3c4.2,0,7.6-3.1,8.2-7.1H0z"/>
<g>
	<path class="st0" d="M5.8,10.3h2.5v12.4c0,4.2,1.3,5.3,3.7,5.3c2.4,0,3.7-1.1,3.7-5.3V10.3h2.5v12.3c0,5.3-2,7.5-6.3,7.5
		s-6.3-2.1-6.3-7.5L5.8,10.3L5.8,10.3z"/>
	<path class="st0" d="M28.6,15.7c0-1.1-0.1-2.2-0.6-2.8c-0.5-0.6-1.7-0.8-2.2-0.8c-2.1,0-2.9,1.2-3,1.5c-0.1,0.2-0.6,0.7-0.6,4v5.2
		c0,4.7,1.6,5.3,3.6,5.3c0.8,0,3.1-0.3,3.2-4h2.6c0.1,6.1-4.3,6.1-5.6,6.1c-2.5,0-6.3-0.2-6.3-7.6v-5.5c0-5.5,2.5-7,6.4-7
		c4,0,5.5,2,5.2,5.7C31.2,15.7,28.6,15.7,28.6,15.7z"/>
	<path class="st0" d="M34.7,23.9v0.6c0,2.6,1.7,3.4,3.3,3.4c2,0,3.6-0.8,3.6-3.1c0-4.3-9-3.8-9-9.6c0-3.4,2.5-5.2,5.9-5.2
		c3.7,0,5.7,1.7,5.5,5.6h-2.7c0-2.1-0.7-3.5-3.1-3.5c-1.5,0-3.1,0.7-3.1,2.8c0,4.3,9,3.6,9,9.8c0,4.1-2.9,5.4-6.2,5.4
		c-5.9,0.1-5.9-4.3-5.8-6.1H34.7z"/>
</g>
<g>
	<path class="st0" d="M9.5,39.4h0.6l-1.2,3.6c-0.1,0.2-0.2,0.5-0.2,0.7c0,0.2,0.3,0.3,0.6,0.3c1.4,0,2-1.7,2-2.4
		c0-3-2.6-3.2-3.6-3.2c-2,0-3.6,1.6-3.6,3.7c0,2.1,1.6,3.7,3.6,3.7c1.5,0,2.7-0.6,3.5-1.6h0.6c-0.8,1.4-2.3,2.2-4.1,2.2
		c-2.3,0-4.2-1.9-4.2-4.3c0-2.4,1.9-4.3,4.2-4.3c2.2,0,4.2,0.9,4.2,3.6c0,1.9-1.5,3.1-2.7,3.1c-0.5,0-0.9-0.1-1-0.6
		c-0.5,0.4-0.9,0.6-1.4,0.6c-1,0-1.4-0.8-1.4-1.8c0-1.6,1-3.5,2.7-3.5c0.6,0,1,0.3,1.2,0.8L9.5,39.4z M8.2,42.9
		c0.3-0.7,0.7-2,0.7-2.4c0-0.4-0.3-0.8-0.9-0.8c-1.2,0-2,1.8-2,2.9c0,0.9,0.3,1.3,0.9,1.3C7.7,43.9,8,43.4,8.2,42.9z"/>
	<path class="st0" d="M14.5,45.3c-1.2,0-1.7-0.6-1.7-1.8h0.7c0,0.8,0.2,1.3,1.1,1.3c0.7,0,1-0.4,1-1c0-1.5-2.6-1.1-2.6-3
		c0-1.1,0.7-1.4,1.7-1.4c1.1,0,1.5,0.8,1.5,1.7h-0.7c0-0.7-0.2-1.1-1-1.1c-0.5,0-0.9,0.3-0.9,0.8c0,1.4,2.6,1.1,2.6,3
		C16.2,44.7,15.5,45.3,14.5,45.3z"/>
	<path class="st0" d="M19.9,41c0-0.7-0.2-1.2-1-1.2c-0.4,0-0.8,0.2-0.9,0.7c-0.1,0.3-0.2,1.1-0.2,1.8c0,1,0,2.4,1.1,2.4
		c0.9,0,1-0.6,1.1-1.3h0.7c0.1,1.6-1,1.8-1.6,1.8c-2,0-2-1.5-2-3c0-0.6,0-1.5,0.2-1.9c0.3-0.8,1-1.1,1.7-1.1c1,0,1.7,0.6,1.6,1.8
		L19.9,41L19.9,41z"/>
	<path class="st0" d="M21.7,45.2v-8.3h0.7v3.2h0c0.3-0.5,0.8-0.8,1.4-0.8c1.4,0,1.6,1.1,1.6,1.8v4.1h-0.7v-4c0-0.7-0.3-1.3-1.1-1.3
		c-0.6,0-1.2,0.4-1.2,1.7v3.6L21.7,45.2L21.7,45.2z"/>
	<path class="st0" d="M26.6,42.9v-1.4c0-0.7,0-2.3,2-2.3c2,0,2,1.5,2,2.3v1.4c0,1.5-0.5,2.4-2,2.4C27.1,45.3,26.6,44.4,26.6,42.9z
		 M29.7,44c0.1-0.3,0.1-1.3,0.1-1.7c0-1.7-0.2-2.4-1.3-2.4c-1.1,0-1.3,0.7-1.3,2.4c0,0.4,0,1.4,0.1,1.7c0.1,0.1,0.2,0.8,1.2,0.8
		C29.5,44.7,29.7,44.1,29.7,44z"/>
	<path class="st0" d="M31.6,42.9v-1.4c0-0.7,0-2.3,2-2.3s2,1.5,2,2.3v1.4c0,1.5-0.5,2.4-2,2.4S31.6,44.4,31.6,42.9z M34.8,44
		c0.1-0.3,0.1-1.3,0.1-1.7c0-1.7-0.2-2.4-1.3-2.4c-1.1,0-1.3,0.7-1.3,2.4c0,0.4,0,1.4,0.1,1.7c0.1,0.1,0.2,0.8,1.2,0.8
		C34.6,44.7,34.7,44.1,34.8,44z"/>
	<path class="st0" d="M37,45.2v-8.3h0.7v8.3H37z"/>
</g>
<g id="Bildmaterial_1_1_">
	<g>
		<defs>
			<rect id="SVGID_1_" x="-0.1" y="0" width="50" height="50"/>
		</defs>
		<clipPath id="SVGID_2_">
			<use xlink:href="#SVGID_1_"  style="overflow:visible;"/>
		</clipPath>
		<rect x="-0.1" y="32.8" class="st3" width="50" height="1.7"/>
		<g class="st4">
			<defs>
				<rect id="SVGID_3_" x="-0.1" y="0" width="50" height="50"/>
			</defs>
			<clipPath id="SVGID_4_">
				<use xlink:href="#SVGID_3_"  style="overflow:visible;"/>
			</clipPath>
			<path class="st5" d="M49.9,32.8V8.3c0-4.6-3.7-8.3-8.3-8.3H16c-4.6,0-7.7,3.1-7.7,7.7h0v0c-4.6,0-8.3,3.7-8.3,8.3v16.8H49.9z"/>
			<path class="st6" d="M-0.1,34.6v7.1c0,4.6,3.7,8.3,8.3,8.3h25c4.6,0,8.3-3.7,8.3-8.3c4.2,0,7.6-3.1,8.2-7.1H-0.1z"/>
			<path class="st7" d="M14.9,23.3c0,1.6-0.3,2.8-0.8,3.6c-0.5,0.7-1.3,1.1-2.3,1.1c-1.1,0-1.8-0.4-2.4-1.1c-0.6-0.8-0.9-2-0.9-3.5
				v-14H5.8v13.9c0,2.3,0.5,4.1,1.5,5.3c1,1.3,2.5,2,4.5,2c2.7,0,5.9-1.3,5.9-7.3V9.3h-2.7V23.3z"/>
			<path class="st7" d="M27.6,11.5c0.9,0,1.8,0.2,2.5,0.6l0.5,0.3l1.3-2.2l-0.5-0.3C30.4,9.3,29.1,9,27.7,9c-2.3,0-4.2,1-5.5,3
				c-1.3,1.9-1.9,4.5-1.9,7.7c0,2.2,0.3,4.1,0.9,5.6c0.6,1.6,1.5,2.9,2.6,3.8c1.1,0.9,2.5,1.3,4,1.3c1.3,0,2.5-0.2,3.3-0.7l0.3-0.2
				V27l-0.9,0.4c-0.7,0.3-1.6,0.5-2.6,0.5c-0.9,0-1.8-0.3-2.5-0.9c-0.7-0.6-1.3-1.6-1.7-2.8c-0.4-1.3-0.6-2.8-0.6-4.5
				c0-2.6,0.5-4.7,1.3-6.2C25.1,12.2,26.2,11.5,27.6,11.5"/>
			<path class="st7" d="M42.8,20.9c-0.7-0.9-1.9-1.8-3.4-2.4c-1.6-0.8-2.3-1.4-2.6-1.7c-0.4-0.5-0.6-1.2-0.6-2.2
				c0-0.9,0.3-1.6,0.8-2.2c0.5-0.5,1.3-0.8,2.2-0.8c1,0,2.1,0.2,3.1,0.7l0.6,0.3l1.1-2.4l-0.5-0.3c-0.4-0.2-1-0.4-1.7-0.6
				C40.9,9.1,40.1,9,39.2,9c-1,0-2,0.2-2.9,0.7c-0.9,0.5-1.6,1.1-2.1,2c-0.5,0.8-0.7,1.8-0.7,2.9c0,1,0.2,1.8,0.4,2.5
				c0.3,0.7,0.8,1.4,1.4,1.9c0.6,0.5,1.5,1,2.7,1.6c1.3,0.6,2.2,1.2,2.6,1.7c0.4,0.5,0.6,1.3,0.6,2.2c0,1-0.3,1.8-0.9,2.5
				c-0.6,0.6-1.3,0.9-2.3,0.9c-0.7,0-1.4-0.1-2.1-0.2c-0.7-0.1-1.3-0.3-1.7-0.6l-0.9-0.5v2.9l0.4,0.2c1.1,0.5,2.6,0.7,4.4,0.7
				c1.7,0,3.1-0.6,4.2-1.7c1.1-1.1,1.7-2.6,1.7-4.4C44,23.1,43.6,21.9,42.8,20.9"/>
			<path class="st7" d="M10.8,38.2c-0.5-0.3-1-0.5-1.5-0.5c-0.7,0-1.3,0.2-1.8,0.6c-0.5,0.4-0.9,1-1.2,1.7C6.1,40.7,6,41.6,6,42.6
				c0,1.3,0.2,2.4,0.7,3.1c0.5,0.7,1.2,1.1,2.2,1.1c0.3,0,0.6,0,0.8-0.1c0.2-0.1,0.4-0.1,0.6-0.3l0.1,0v-0.8l-0.2,0.1
				C10,45.8,9.9,45.9,9.6,46c-0.2,0.1-0.5,0.1-0.7,0.1c-0.7,0-1.2-0.3-1.6-0.9c-0.4-0.6-0.6-1.5-0.6-2.7c0-0.8,0.1-1.5,0.3-2.2
				c0.2-0.6,0.5-1.1,0.9-1.4c0.4-0.3,0.8-0.5,1.3-0.5c0.4,0,0.8,0.1,1.1,0.4c0.3,0.3,0.6,0.7,0.8,1.2c0.2,0.5,0.3,1.1,0.3,1.8
				c0,0.7-0.1,1.3-0.2,1.6c-0.1,0.5-0.4,0.5-0.5,0.5c-0.2,0-0.3-0.1-0.3-0.2c-0.1-0.1-0.1-0.3-0.1-0.6l0.1-3l-0.1,0
				c-0.3-0.1-0.7-0.2-1-0.2c-1.1,0-1.7,0.9-1.7,2.7c0,0.6,0.1,1.1,0.3,1.5c0.2,0.4,0.5,0.6,0.9,0.6c0.3,0,0.5-0.1,0.7-0.3
				c0.1-0.1,0.2-0.2,0.2-0.4c0,0.1,0.1,0.3,0.2,0.4c0.2,0.2,0.4,0.3,0.8,0.3c1,0,1.5-1,1.5-2.8c0-0.8-0.1-1.5-0.4-2.1
				C11.6,39,11.3,38.5,10.8,38.2 M9,43.8c-0.3,0-0.5-0.4-0.5-1.3c0-0.7,0.1-1.2,0.2-1.5c0.1-0.3,0.3-0.5,0.6-0.5c0.1,0,0.2,0,0.3,0
				l-0.1,1.5c0,0.6-0.1,1.1-0.2,1.3C9.2,43.7,9.1,43.8,9,43.8"/>
			<path class="st7" d="M14.8,40.3c0.3,0,0.7,0.1,1,0.3l0.1,0.1l0.4-0.7L16.2,40c-0.4-0.2-0.8-0.4-1.4-0.4c-0.5,0-0.9,0.1-1.3,0.4
				c-0.3,0.3-0.5,0.7-0.5,1.1c0,0.3,0,0.5,0.1,0.7c0.1,0.2,0.2,0.4,0.4,0.5c0.2,0.2,0.5,0.4,0.9,0.6c0.4,0.2,0.6,0.4,0.7,0.6
				c0.1,0.2,0.2,0.3,0.2,0.6c0,0.3-0.1,0.5-0.3,0.7c-0.2,0.2-0.4,0.3-0.7,0.3c-0.2,0-0.5,0-0.7-0.1c-0.2-0.1-0.4-0.2-0.5-0.3
				L13,44.6v0.9l0.1,0c0.1,0.1,0.3,0.2,0.5,0.2c0.2,0.1,0.5,0.1,0.8,0.1c0.6,0,1-0.2,1.3-0.5c0.3-0.3,0.5-0.7,0.5-1.2
				c0-0.3,0-0.5-0.1-0.7s-0.2-0.4-0.4-0.5c-0.2-0.2-0.5-0.4-0.9-0.6c-0.4-0.2-0.7-0.4-0.8-0.6c-0.1-0.2-0.2-0.3-0.2-0.6
				c0-0.3,0.1-0.5,0.3-0.6C14.3,40.4,14.5,40.3,14.8,40.3"/>
			<path class="st7" d="M19.1,40.3c0.2,0,0.4,0.1,0.7,0.2l0.1,0l0.3-0.7l-0.1-0.1c-0.3-0.1-0.6-0.2-1-0.2c-0.7,0-1.2,0.3-1.6,0.8
				C17.1,41,17,41.8,17,42.8c0,1,0.2,1.8,0.5,2.3c0.3,0.5,0.9,0.8,1.6,0.8c0.1,0,0.3,0,0.5-0.1c0.2,0,0.4-0.1,0.5-0.2l0.1,0V45
				L20,45c-0.3,0.1-0.6,0.2-0.9,0.2c-0.9,0-1.3-0.8-1.3-2.4C17.8,41.1,18.2,40.3,19.1,40.3"/>
			<path class="st7" d="M23.1,39.6c-0.3,0-0.6,0.1-0.9,0.3c-0.2,0.1-0.3,0.2-0.4,0.4c0-0.1,0-0.1,0-0.2v-2.8H21v8.6h0.8v-3.3
				c0-0.8,0.1-1.3,0.3-1.7c0.2-0.3,0.5-0.5,0.9-0.5c0.3,0,0.5,0.1,0.6,0.3c0.1,0.2,0.2,0.6,0.2,1v4.1h0.8v-4.1
				c0-0.7-0.1-1.2-0.4-1.5C24.1,39.8,23.7,39.6,23.1,39.6"/>
			<path class="st7" d="M27.9,39.6c-1.4,0-2.1,1.1-2.1,3.1c0,1,0.2,1.8,0.5,2.3c0.4,0.6,0.9,0.8,1.5,0.8c0.7,0,1.2-0.3,1.6-0.8
				c0.4-0.5,0.5-1.3,0.5-2.3c0-1-0.2-1.7-0.5-2.3C29.1,39.9,28.6,39.6,27.9,39.6 M27.9,45.2c-0.4,0-0.7-0.2-0.9-0.6
				c-0.2-0.4-0.3-1-0.3-1.9c0-0.8,0.1-1.4,0.3-1.8c0.2-0.4,0.5-0.6,0.9-0.6c0.8,0,1.3,0.8,1.3,2.4C29.2,44.4,28.8,45.2,27.9,45.2"/>
			<path class="st7" d="M33,39.6c-1.4,0-2.1,1.1-2.1,3.1c0,1,0.2,1.8,0.5,2.3c0.4,0.6,0.9,0.8,1.5,0.8c0.7,0,1.2-0.3,1.6-0.8
				c0.4-0.5,0.5-1.3,0.5-2.3c0-1-0.2-1.7-0.5-2.3C34.1,39.9,33.6,39.6,33,39.6 M32.9,45.2c-0.4,0-0.7-0.2-0.9-0.6
				c-0.2-0.4-0.3-1-0.3-1.9c0-0.8,0.1-1.4,0.3-1.8c0.2-0.4,0.5-0.6,0.9-0.6c0.8,0,1.3,0.8,1.3,2.4C34.2,44.4,33.8,45.2,32.9,45.2"/>
			<rect x="36.2" y="37.2" class="st7" width="0.8" height="8.6"/>
		</g>
	</g>
</g>
</svg>
