<svg xmlns="http://www.w3.org/2000/svg" viewBox="0 0 150 150"><defs><style>.a{fill:#fff;}</style></defs><path class="a" d="M90.648,106.27552A23.59628,23.59628,0,0,1,91.96382,98.501H72.44924a1.5,1.5,0,0,1,0-3H93.24837A23.82814,23.82814,0,0,1,106.6808,83.84864V38.67683a3.00886,3.00886,0,0,0-3-3H46.31929a3.00883,3.00883,0,0,0-3,3v72.6463a3.00879,3.00879,0,0,0,3,3H92.05641A23.59732,23.59732,0,0,1,90.648,106.27552ZM72.44924,50.49805H93.53615a1.5,1.5,0,0,1,0,3H72.44924a1.5,1.5,0,0,1,0-3Zm0,16.001H93.53615a1.5,1.5,0,1,1,0,3H72.44924a1.5,1.5,0,0,1,0-3Zm0,15.001H93.53615a1.5,1.5,0,0,1,0,3H72.44924a1.5,1.5,0,0,1,0-3ZM54.2007,47.8838a1.49984,1.49984,0,0,1,2.12109-2.1211l3.657,3.65717,3.657-3.65717a1.49984,1.49984,0,0,1,2.12109,2.1211l-3.657,3.65722,3.657,3.65723a1.49984,1.49984,0,1,1-2.12109,2.12109l-3.657-3.65716-3.657,3.65716a1.49984,1.49984,0,0,1-2.12109-2.12109l3.657-3.65723ZM67.79982,94.375l-7.66553,7.666-.00378.0025a1.49753,1.49753,0,0,1-2.11145.09809l-3.8125-3.45508a1.49992,1.49992,0,0,1,2.01465-2.22266l2.75305,2.49494,6.70447-6.7049a1.49984,1.49984,0,0,1,2.12109,2.1211ZM54.2007,78.88575a1.49984,1.49984,0,0,1,2.12109-2.12109l3.657,3.65716,3.657-3.65716a1.49984,1.49984,0,0,1,2.12109,2.12109l-3.657,3.65723,3.657,3.65722a1.49984,1.49984,0,1,1-2.12109,2.1211l-3.657-3.65717-3.657,3.65717a1.49984,1.49984,0,1,1-2.12109-2.1211l3.657-3.65722ZM67.79982,64.374l-7.66553,7.665-.00378.0025a1.49753,1.49753,0,0,1-2.11145.09809l-3.8125-3.45508a1.49992,1.49992,0,0,1,2.01465-2.22266l2.75311,2.495,6.70441-6.704A1.49984,1.49984,0,0,1,67.79982,64.374Z"/><path class="a" d="M122.81323,106.85413l-5.15985-5.15986c-.77777-.77783-1.41418-.51422-1.41418.58576v4.52c-2.5727.38751-4.5661.02771-5.92719-1.072-1.41943-1.14649-2.21924-3.17139-2.37793-6.01807a1.49989,1.49989,0,0,0-2.99512.167c.20752,3.729,1.38086,6.48243,3.4878,8.18457a9.14616,9.14616,0,0,0,5.92529,1.89209,15.46752,15.46752,0,0,0,1.88715-.134v4.43695c0,1.1.63641,1.36359,1.41418.58576l5.15985-5.15979A2.00586,2.00586,0,0,0,122.81323,106.85413Z"/><path class="a" d="M114.35742,85.56592a20.70947,20.70947,0,1,0,20.71,20.70947A20.73268,20.73268,0,0,0,114.35742,85.56592Zm0,38.41894a17.70947,17.70947,0,1,1,17.71-17.70947A17.7294,17.7294,0,0,1,114.35742,123.98486Z"/></svg>