<svg xmlns="http://www.w3.org/2000/svg" viewBox="0 0 150 150"><defs><style>.a{fill:#fff;}</style></defs><path class="a" d="M103.68079,35.67682H46.31927a3.00883,3.00883,0,0,0-3,3v72.6463a3.00879,3.00879,0,0,0,3,3h57.36152a3.00883,3.00883,0,0,0,3-3V38.67682A3.00887,3.00887,0,0,0,103.68079,35.67682Zm-49.48011,12.207a1.49984,1.49984,0,0,1,2.1211-2.12109l3.657,3.65716,3.657-3.65716a1.49984,1.49984,0,1,1,2.1211,2.12109l-3.657,3.65723,3.657,3.65722a1.49984,1.49984,0,1,1-2.1211,2.1211l-3.657-3.65717-3.657,3.65717a1.49984,1.49984,0,0,1-2.1211-2.1211l3.657-3.65722ZM67.7998,94.375l-7.66552,7.666-.00379.0025a1.49754,1.49754,0,0,1-2.11145.09808l-3.8125-3.45508a1.49992,1.49992,0,0,1,2.01465-2.22265l2.75305,2.49493,6.70447-6.70489A1.49984,1.49984,0,0,1,67.7998,94.375ZM54.20068,78.88574a1.49984,1.49984,0,0,1,2.1211-2.12109l3.657,3.65716,3.657-3.65716a1.49984,1.49984,0,0,1,2.1211,2.12109l-3.657,3.65723,3.657,3.65723a1.49984,1.49984,0,1,1-2.1211,2.12109l-3.657-3.65717-3.657,3.65717a1.49984,1.49984,0,0,1-2.1211-2.12109l3.657-3.65723ZM67.7998,64.374l-7.66552,7.665-.00379.0025a1.49753,1.49753,0,0,1-2.11145.09809l-3.8125-3.45508a1.49992,1.49992,0,0,1,2.01465-2.22266l2.75311,2.495,6.70441-6.704A1.49984,1.49984,0,1,1,67.7998,64.374ZM93.53613,98.501H72.44922a1.5,1.5,0,0,1,0-3H93.53613a1.5,1.5,0,0,1,0,3Zm0-14.001H72.44922a1.5,1.5,0,0,1,0-3H93.53613a1.5,1.5,0,1,1,0,3Zm0-15.001H72.44922a1.5,1.5,0,0,1,0-3H93.53613a1.5,1.5,0,0,1,0,3Zm0-16.001H72.44922a1.5,1.5,0,0,1,0-3H93.53613a1.5,1.5,0,0,1,0,3Z"/></svg>