<?xml version="1.0" encoding="UTF-8" standalone="no"?>
<svg
   xmlns:dc="http://purl.org/dc/elements/1.1/"
   xmlns:cc="http://creativecommons.org/ns#"
   xmlns:rdf="http://www.w3.org/1999/02/22-rdf-syntax-ns#"
   xmlns:svg="http://www.w3.org/2000/svg"
   xmlns="http://www.w3.org/2000/svg"
   xmlns:sodipodi="http://sodipodi.sourceforge.net/DTD/sodipodi-0.dtd"
   xmlns:inkscape="http://www.inkscape.org/namespaces/inkscape"
   width="56"
   height="52"
   id="svg2"
   version="1.1"
   inkscape:version="0.91 r13725"
   sodipodi:docname="school.svg">
  <metadata
     id="metadata65">
    <rdf:RDF>
      <cc:Work
         rdf:about="">
        <dc:format>image/svg+xml</dc:format>
        <dc:type
           rdf:resource="http://purl.org/dc/dcmitype/StillImage" />
        <dc:title></dc:title>
      </cc:Work>
    </rdf:RDF>
  </metadata>
  <sodipodi:namedview
     pagecolor="#ffffff"
     bordercolor="#666666"
     borderopacity="1"
     objecttolerance="10"
     gridtolerance="10"
     guidetolerance="10"
     inkscape:pageopacity="0"
     inkscape:pageshadow="2"
     inkscape:window-width="944"
     inkscape:window-height="1045"
     id="namedview63"
     showgrid="false"
     inkscape:zoom="4.9166667"
     inkscape:cx="27.852632"
     inkscape:cy="40.271186"
     inkscape:window-x="2326"
     inkscape:window-y="0"
     inkscape:window-maximized="0"
     inkscape:current-layer="svg2" />
  <defs
     id="defs4">
    <linearGradient
       id="a"
       y1="543.79999"
       y2="503.79999"
       x1="434.57001"
       gradientUnits="userSpaceOnUse"
       x2="384.57001">
      <stop
         stop-color="#343b40"
         id="stop7" />
      <stop
         offset="1"
         stop-color="#555e63"
         id="stop9" />
    </linearGradient>
    <linearGradient
       id="b"
       y1="44"
       y2="4"
       gradientUnits="userSpaceOnUse"
       x2="0"
       gradientTransform="translate(384.57,499.8)">
      <stop
         stop-color="#bd8d48"
         id="stop12" />
      <stop
         offset="1"
         stop-color="#e8b971"
         id="stop14" />
    </linearGradient>
    <linearGradient
       id="c"
       y1="17"
       x1="17"
       y2="40"
       x2="40"
       gradientUnits="userSpaceOnUse">
      <stop
         stop-color="#383e51"
         id="stop17" />
      <stop
         offset="1"
         stop-color="#655c6f"
         stop-opacity="0"
         id="stop19" />
    </linearGradient>
  </defs>
  <g
     transform="translate(-380.57,-497.79999)"
     id="g21">
    <g
       id="g23"
       style="stroke-width:2.79999995;stroke-opacity:0.55">
      <rect
         width="48"
         x="384.57001"
         y="503.79999"
         height="40"
         id="rect25"
         style="fill:url(#a)" />
      <path
         d="m 384.57,503.8 0,40 48,0 0,-40 -46,0 z m 2,2 44,0 0,36 -44,0 z"
         id="path27"
         inkscape:connector-curvature="0"
         style="fill:url(#b)" />
    </g>
    <path
       d="m 6,25 0,16 -1,0 0,3 43,0 0,-16 -3,-3 -3.805,0 C 31.987,27.61 31.624,39.545 26.511,39.508 21.401,39.47 18.641,27.603 8.917,25 Z"
       transform="translate(384.57,499.8)"
       id="path29"
       inkscape:connector-curvature="0"
       style="opacity:0.2;fill:url(#c);fill-rule:evenodd" />
    <g
       id="g31"
       style="fill:#aa7f41">
      <rect
         width="48"
         x="384.57001"
         y="542.79999"
         height="1"
         id="rect33"
         style="stroke-width:2.79999995;stroke-opacity:0.55" />
      <path
         d="M 2,6 2,42 46,42 46,6 3,6 Z m 1,1 42,0 0,34 -42,0 z"
         transform="translate(384.57,499.8)"
         id="path35"
         inkscape:connector-curvature="0"
         style="color:#000000;color-interpolation:sRGB;color-interpolation-filters:linearRGB;fill-opacity:0.49800002;color-rendering:auto;image-rendering:auto;shape-rendering:auto;text-rendering:auto" />
    </g>
    <g
       id="g37"
       style="fill:none;stroke-width:0.98400003">
      <path
         d="m 389.57,524.29 c 13.01,0 15.772,14.973 21.511,15.02 5.739,0.042 5.484,-15.02 18.489,-15.02"
         id="path39"
         inkscape:connector-curvature="0"
         style="stroke:#787e82" />
      <path
         d="m 389.57,523.31 c 13.01,0 15.772,-10.274 21.511,-10.316 5.739,-0.042 5.484,10.316 18.489,10.316"
         id="path41"
         inkscape:connector-curvature="0"
         style="stroke:#5090c3" />
    </g>
    <rect
       width="1"
       x="389.57001"
       y="506.79999"
       height="34"
       id="rect43"
       style="color:#000000;color-interpolation:sRGB;color-interpolation-filters:linearRGB;fill:#d6d6d6;color-rendering:auto;image-rendering:auto;shape-rendering:auto;text-rendering:auto" />
    <path
       d="m 389.57,523.31 c 13.01,0 15.772,-14.973 21.511,-15.02 5.739,-0.042 5.484,15.02 18.489,15.02"
       id="path45"
       inkscape:connector-curvature="0"
       style="fill:none;stroke:#d6d6d6;stroke-width:0.98400003" />
    <g
       id="g47"
       style="color:#000000;color-interpolation:sRGB;color-interpolation-filters:linearRGB;color-rendering:auto;image-rendering:auto;shape-rendering:auto;text-rendering:auto">
      <rect
         width="4"
         x="419.57001"
         y="539.79999"
         height="1"
         id="rect49"
         style="fill:#007ad9" />
      <rect
         width="4"
         x="424.57001"
         y="539.79999"
         height="1"
         id="rect51"
         style="fill:#ffffff" />
      <g
         id="g53"
         style="fill:#d6d6d6">
        <rect
           width="39"
           x="390.57001"
           y="523.79999"
           height="1"
           id="rect55" />
        <rect
           width="1"
           x="396.57001"
           y="522.79999"
           height="3"
           id="rect57" />
        <rect
           width="1"
           x="410.57001"
           y="522.79999"
           height="3"
           id="rect59" />
        <rect
           width="1"
           x="424.57001"
           y="522.79999"
           height="3"
           id="rect61" />
      </g>
    </g>
  </g>
</svg>
