<svg id="typo_cond" data-name="typo cond" xmlns="http://www.w3.org/2000/svg" width="63.46mm" height="15.04mm" viewBox="0 0 179.89 42.63"><defs><style>.cls-1{fill:#fff;}.cls-2{fill:#76b728;}.cls-3{fill:#86857e;}.cls-4{fill:#858485;stroke:#858485;stroke-miterlimit:10;stroke-width:0.5px;}</style></defs><title>univention_app_logo_ucsschool-kelvin-rest-api</title><g id="ucsschool"><rect class="cls-1" y="27.99" width="42.63" height="1.49"/><path class="cls-2" d="M42.69,28V7.12A7.11,7.11,0,0,0,35.58,0H13.73A6.23,6.23,0,0,0,7.16,6.57h0a7.11,7.11,0,0,0-7.1,7.1V28Z" transform="translate(-0.05 -0.01)"/><path class="cls-3" d="M.05,29.49v6.05a7.11,7.11,0,0,0,7.11,7.1H28.47a7.1,7.1,0,0,0,7.11-7.1,7.1,7.1,0,0,0,7-6.05Z" transform="translate(-0.05 -0.01)"/><path class="cls-1" d="M12.82,19.87a5.24,5.24,0,0,1-.72,3.05,2.23,2.23,0,0,1-2,.92,2.38,2.38,0,0,1-2-.93,5,5,0,0,1-.75-3V8H5V19.78a7.17,7.17,0,0,0,1.28,4.54A4.65,4.65,0,0,0,10.13,26c2.28,0,5-1.08,5-6.2V8h-2.3Z" transform="translate(-0.05 -0.01)"/><path class="cls-1" d="M23.67,9.83a4.2,4.2,0,0,1,2.14.54l.46.27,1.1-1.91-.47-.27a6.49,6.49,0,0,0-3.21-.78A5.44,5.44,0,0,0,19,10.21a11.58,11.58,0,0,0-1.66,6.59,13.94,13.94,0,0,0,.75,4.82,7.11,7.11,0,0,0,2.2,3.22A5.39,5.39,0,0,0,23.67,26a6,6,0,0,0,2.83-.58l.28-.15V23.07l-.75.35a5.41,5.41,0,0,1-2.25.42,3.09,3.09,0,0,1-2.1-.79,5.19,5.19,0,0,1-1.47-2.38,12.23,12.23,0,0,1-.54-3.84,10.14,10.14,0,0,1,1.15-5.26A3.21,3.21,0,0,1,23.67,9.83Z" transform="translate(-0.05 -0.01)"/><path class="cls-1" d="M36.63,17.82a7.56,7.56,0,0,0-2.93-2.08,6.28,6.28,0,0,1-2.22-1.46,3,3,0,0,1-.5-1.86,2.45,2.45,0,0,1,.69-1.85,2.5,2.5,0,0,1,1.84-.69,6.19,6.19,0,0,1,2.62.61l.49.22.9-2-.45-.23a7.49,7.49,0,0,0-1.49-.51,8.86,8.86,0,0,0-2.07-.23,5.11,5.11,0,0,0-2.43.59A4.3,4.3,0,0,0,29.32,10a4.82,4.82,0,0,0-.63,2.46,5.67,5.67,0,0,0,.38,2.16,4.45,4.45,0,0,0,1.19,1.62,9.23,9.23,0,0,0,2.26,1.35,6.13,6.13,0,0,1,2.25,1.47,2.89,2.89,0,0,1,.53,1.87A3,3,0,0,1,34.54,23a2.5,2.5,0,0,1-1.93.8,9.41,9.41,0,0,1-1.81-.18,6.05,6.05,0,0,1-1.49-.49l-.77-.39v2.43l.32.14a9.45,9.45,0,0,0,3.75.63,4.84,4.84,0,0,0,3.58-1.43,5.08,5.08,0,0,0,1.41-3.72A4.82,4.82,0,0,0,36.63,17.82Z" transform="translate(-0.05 -0.01)"/><path class="cls-1" d="M9.35,32.55A2.06,2.06,0,0,0,8,32.1a2.38,2.38,0,0,0-1.51.52,3.23,3.23,0,0,0-1,1.46A6.78,6.78,0,0,0,5.2,36.3,4.67,4.67,0,0,0,5.83,39a2.12,2.12,0,0,0,1.85.94,3.21,3.21,0,0,0,.67-.07,2.21,2.21,0,0,0,.55-.23l.06,0v-.69L8.79,39a1.31,1.31,0,0,1-.46.21,2,2,0,0,1-.61.09,1.52,1.52,0,0,1-1.35-.78,4.37,4.37,0,0,1-.5-2.27,5.58,5.58,0,0,1,.28-1.85,2.78,2.78,0,0,1,.76-1.23A1.69,1.69,0,0,1,8,32.72a1.4,1.4,0,0,1,.93.35,2.24,2.24,0,0,1,.64,1,4.33,4.33,0,0,1,.24,1.5A4.8,4.8,0,0,1,9.69,37c-.12.4-.32.4-.39.4A.33.33,0,0,1,9,37.22a.87.87,0,0,1-.12-.53L9,34.15l-.08,0A2.63,2.63,0,0,0,8.06,34c-.94,0-1.42.76-1.42,2.27a2.58,2.58,0,0,0,.25,1.26.87.87,0,0,0,.78.48.74.74,0,0,0,.61-.26,1.27,1.27,0,0,0,.18-.35,1,1,0,0,0,.16.32A.77.77,0,0,0,9.3,38c.82,0,1.24-.81,1.24-2.41a5,5,0,0,0-.3-1.79A2.79,2.79,0,0,0,9.35,32.55ZM7.77,37.36c-.28,0-.42-.37-.42-1.08A3.38,3.38,0,0,1,7.54,35c.11-.26.27-.39.47-.39a.94.94,0,0,1,.25,0l-.07,1.3A4.94,4.94,0,0,1,8,37.05C8,37.25,7.87,37.36,7.77,37.36Z" transform="translate(-0.05 -0.01)"/><path class="cls-1" d="M12.72,34.41a1.56,1.56,0,0,1,.82.24l.09.05.36-.56-.09-.06a2.19,2.19,0,0,0-1.16-.3,1.56,1.56,0,0,0-1.08.38,1.24,1.24,0,0,0-.44,1,1.44,1.44,0,0,0,.12.61,1.72,1.72,0,0,0,.34.46,4.33,4.33,0,0,0,.79.53,2.49,2.49,0,0,1,.63.49.79.79,0,0,1,.15.49.84.84,0,0,1-.21.6.76.76,0,0,1-.59.22,1.7,1.7,0,0,1-.59-.1,1.18,1.18,0,0,1-.46-.25L11.22,38v.8l0,0a1.84,1.84,0,0,0,.46.2,2.4,2.4,0,0,0,.69.09,1.57,1.57,0,0,0,1.12-.38,1.39,1.39,0,0,0,.4-1.06,1.5,1.5,0,0,0-.11-.58,1.46,1.46,0,0,0-.32-.47,5.42,5.42,0,0,0-.77-.54,2.22,2.22,0,0,1-.69-.51.74.74,0,0,1-.15-.48.67.67,0,0,1,.21-.52A.9.9,0,0,1,12.72,34.41Z" transform="translate(-0.05 -0.01)"/><path class="cls-1" d="M16.39,34.41a1.5,1.5,0,0,1,.58.13l.09,0,.28-.57-.1,0a2.13,2.13,0,0,0-.89-.18A1.48,1.48,0,0,0,15,34.5a3.78,3.78,0,0,0-.44,2,3.75,3.75,0,0,0,.43,2,1.49,1.49,0,0,0,1.33.69,2.47,2.47,0,0,0,.44,0,2,2,0,0,0,.43-.14l.06,0v-.58l-.14,0a2.39,2.39,0,0,1-.74.14c-.74,0-1.1-.68-1.1-2.06S15.65,34.41,16.39,34.41Z" transform="translate(-0.05 -0.01)"/><path class="cls-1" d="M19.8,33.78a1.42,1.42,0,0,0-.74.22,1.3,1.3,0,0,0-.34.32v-2.6H18v7.34h.69V36.24A2.82,2.82,0,0,1,19,34.82a.88.88,0,0,1,.79-.42.61.61,0,0,1,.54.24,1.62,1.62,0,0,1,.18.89v3.53h.68V35.53a2.21,2.21,0,0,0-.31-1.29A1.25,1.25,0,0,0,19.8,33.78Z" transform="translate(-0.05 -0.01)"/><path class="cls-1" d="M23.93,33.78c-1.18,0-1.78.9-1.78,2.68a3.75,3.75,0,0,0,.44,2,1.49,1.49,0,0,0,1.32.71,1.52,1.52,0,0,0,1.34-.71,3.65,3.65,0,0,0,.45-2,3.49,3.49,0,0,0-.46-2A1.49,1.49,0,0,0,23.93,33.78Zm0,4.75a.83.83,0,0,1-.79-.49,3.59,3.59,0,0,1-.27-1.58,3.51,3.51,0,0,1,.27-1.57.82.82,0,0,1,.79-.48c.72,0,1.07.67,1.07,2.05S24.64,38.53,23.92,38.53Z" transform="translate(-0.05 -0.01)"/><path class="cls-1" d="M28.21,33.78c-1.18,0-1.78.9-1.78,2.68a3.65,3.65,0,0,0,.45,2,1.47,1.47,0,0,0,1.31.71,1.52,1.52,0,0,0,1.34-.71,3.65,3.65,0,0,0,.45-2,3.58,3.58,0,0,0-.45-2A1.51,1.51,0,0,0,28.21,33.78Zm0,4.75a.81.81,0,0,1-.78-.49,3.59,3.59,0,0,1-.27-1.58,3.53,3.53,0,0,1,.26-1.57.82.82,0,0,1,.79-.48c.72,0,1.07.67,1.07,2.05S28.92,38.53,28.2,38.53Z" transform="translate(-0.05 -0.01)"/><rect class="cls-1" x="30.92" y="31.71" width="0.69" height="7.34"/><path class="cls-4" d="M59.45,30.58H58l-4.62-8.9L51.83,23.5v7.08H50.52V12.73h1.31v9.45q.69-1.17,5.81-9.45h1.43l-4.93,7.85Z" transform="translate(-0.05 -0.01)"/><path class="cls-4" d="M65.53,30.82A4.06,4.06,0,0,1,62,29a8.66,8.66,0,0,1-1.24-5,10,10,0,0,1,1.1-5.18A3.55,3.55,0,0,1,65,17.08a3.25,3.25,0,0,1,2.86,1.57,7.48,7.48,0,0,1,1,4.23V24H62a8.69,8.69,0,0,0,.9,4.33,2.89,2.89,0,0,0,2.64,1.45,6.15,6.15,0,0,0,2.89-.82V30A5.84,5.84,0,0,1,65.53,30.82ZM65,18.13q-2.62,0-2.88,4.77h5.6a7.05,7.05,0,0,0-.74-3.48A2.2,2.2,0,0,0,65,18.13Z" transform="translate(-0.05 -0.01)"/><path class="cls-4" d="M73.45,30.58H72.18v-19h1.27Z" transform="translate(-0.05 -0.01)"/><path class="cls-4" d="M79,30.58,75.54,17.34h1.28L79,25.86c.25,1,.49,2.05.72,3.22h.11c.06-.42.15-.9.27-1.42s1-4,2.65-10.32H84L80.49,30.58Z" transform="translate(-0.05 -0.01)"/><path class="cls-4" d="M85.93,13.66a1.27,1.27,0,0,1,.25-.85.75.75,0,0,1,.63-.31.66.66,0,0,1,.58.31,1.46,1.46,0,0,1,.22.85,1.49,1.49,0,0,1-.22.84.69.69,0,0,1-.58.31.78.78,0,0,1-.63-.31A1.29,1.29,0,0,1,85.93,13.66Zm1.46,16.92H86.12V17.34h1.27Z" transform="translate(-0.05 -0.01)"/><path class="cls-4" d="M97.86,30.58V21.45c0-2.2-.71-3.3-2.14-3.3a2.6,2.6,0,0,0-2.4,1.24,7.65,7.65,0,0,0-.76,3.91v7.28H91.29V17.34h1.07l.11,1.84h.12a3.45,3.45,0,0,1,1.31-1.55,3.35,3.35,0,0,1,1.84-.55,3.08,3.08,0,0,1,2.54,1,5.23,5.23,0,0,1,.85,3.31v9.16Z" transform="translate(-0.05 -0.01)"/><path class="cls-4" d="M109.65,22.78v7.8h-1.31V12.73H111A6,6,0,0,1,115.23,14a4.8,4.8,0,0,1,1.33,3.68,5.81,5.81,0,0,1-.73,3.05,4.38,4.38,0,0,1-2.43,1.8l3.89,8.08h-1.47l-3.67-7.8Zm0-1.1h1.84a3.67,3.67,0,0,0,2.76-1,4.15,4.15,0,0,0,1-3,3.76,3.76,0,0,0-1-2.9,4.53,4.53,0,0,0-3.11-.89h-1.47Z" transform="translate(-0.05 -0.01)"/><path class="cls-4" d="M127.14,30.58H120V12.73h7.12v1.15h-5.8v6.78h5.48V21.8h-5.48v7.63h5.8Z" transform="translate(-0.05 -0.01)"/><path class="cls-4" d="M138.13,25.9a4.81,4.81,0,0,1-1.34,3.56,4.57,4.57,0,0,1-3.41,1.36,9.44,9.44,0,0,1-3.77-.62V28.91a7,7,0,0,0,1.73.56,10.24,10.24,0,0,0,2,.21,3.23,3.23,0,0,0,2.47-1,3.69,3.69,0,0,0,1-2.64,3.66,3.66,0,0,0-.69-2.34,6.9,6.9,0,0,0-2.61-1.73,9.92,9.92,0,0,1-2.27-1.35,4.2,4.2,0,0,1-1.12-1.52,5.42,5.42,0,0,1-.36-2.08,4.62,4.62,0,0,1,.59-2.34A4,4,0,0,1,132,13a4.94,4.94,0,0,1,2.32-.56,8.33,8.33,0,0,1,2.08.23,7.1,7.1,0,0,1,1.47.5l-.51,1.15a7,7,0,0,0-3-.7,3.1,3.1,0,0,0-3.26,3.27,3.65,3.65,0,0,0,.66,2.33A7.26,7.26,0,0,0,134.31,21a7.37,7.37,0,0,1,2.9,2.05A4.48,4.48,0,0,1,138.13,25.9Z" transform="translate(-0.05 -0.01)"/><path class="cls-4" d="M144.73,30.58h-1.32V13.88H139.5V12.73h9.13v1.15h-3.9Z" transform="translate(-0.05 -0.01)"/><path class="cls-4" d="M163.61,30.58l-1.73-6.47h-4.77l-1.71,6.47H154l4.73-17.85h1.36L165,30.58Zm-2-7.68-1.74-6.65c-.17-.75-.31-1.46-.41-2.13a17.63,17.63,0,0,1-.38,2.13l-1.68,6.65Z" transform="translate(-0.05 -0.01)"/><path class="cls-4" d="M175.32,17.86a5.31,5.31,0,0,1-1.39,4.05,5.82,5.82,0,0,1-4.12,1.3h-1.4v7.37H167.1V12.73h2.68A6,6,0,0,1,174,14,5.1,5.1,0,0,1,175.32,17.86Zm-6.91,4.25h1.32a4.48,4.48,0,0,0,3.28-1,4.59,4.59,0,0,0,1-3.26,4.05,4.05,0,0,0-1-3.09,4.36,4.36,0,0,0-3.09-.94h-1.47Z" transform="translate(-0.05 -0.01)"/><path class="cls-4" d="M178.38,30.58V12.73h1.31V30.58Z" transform="translate(-0.05 -0.01)"/></g></svg>