<svg xmlns="http://www.w3.org/2000/svg" viewBox="0 0 150 150"><defs><style>.a{fill:#fff;}</style></defs><path class="a" d="M107.39166,46.17139H106.256v60.90088a6.0068,6.0068,0,0,1-6,6H53.87964v.24365a3.00879,3.00879,0,0,0,3,3h50.512a3.00883,3.00883,0,0,0,3-3V49.17139A3.00886,3.00886,0,0,0,107.39166,46.17139Z"/><path class="a" d="M93.12036,33.68408h-50.512a3.00883,3.00883,0,0,0-3,3v64.14447a3.00882,3.00882,0,0,0,3,3h50.512a3.00878,3.00878,0,0,0,3-3V36.68408A3.00879,3.00879,0,0,0,93.12036,33.68408ZM67.86426,76.5H51.332a1.5,1.5,0,0,1,0-3H67.86426a1.5,1.5,0,0,1,0,3Zm16.53222-8.91992H51.332a1.5,1.5,0,0,1,0-3H84.39648a1.5,1.5,0,0,1,0,3Zm0-8.91895H51.332a1.5,1.5,0,0,1,0-3H84.39648a1.5,1.5,0,0,1,0,3Zm0-8.91992H51.332a1.5,1.5,0,0,1,0-3H84.39648a1.5,1.5,0,0,1,0,3Z"/><path class="a" d="M100.256,39.92773H99.12036v60.90082a6.0068,6.0068,0,0,1-6,6H46.744v.24372a3.00883,3.00883,0,0,0,3,3h50.512a3.00886,3.00886,0,0,0,3-3V42.92773A3.00883,3.00883,0,0,0,100.256,39.92773Z"/></svg>