<svg xmlns="http://www.w3.org/2000/svg" xmlns:xlink="http://www.w3.org/1999/xlink" contentStyleType="text/css" height="95px" preserveAspectRatio="none" style="width:788px;height:95px;background:#FFFFFF;" version="1.1" viewBox="0 0 788 95" width="788px" zoomAndPan="magnify"><defs/><g><!--entity Teacher--><g id="elem_Teacher"><rect fill="#EFF3F7" height="35.1328" rx="3" ry="3" style="stroke:#14568C;stroke-width:1.0;" width="79.3379" x="6" y="46.5"/><text fill="#1A1A1A" font-family="Helvetica" font-size="13" lengthAdjust="spacing" textLength="59.3379" x="16" y="68.5669">Lehrkraft</text></g><!--entity Module--><g id="elem_Module"><rect fill="#EFF3F7" height="35.1328" rx="3" ry="3" style="stroke:#14568C;stroke-width:1.0;" width="138.8979" x="121" y="46.5"/><text fill="#1A1A1A" font-family="Helvetica" font-size="13" lengthAdjust="spacing" textLength="118.8979" x="131" y="68.5669">Materialverteilung</text></g><!--entity IAM--><g id="elem_IAM"><rect fill="#EFF3F7" height="50.2656" rx="3" ry="3" style="stroke:#14568C;stroke-width:1.0;" width="133.896" x="296" y="12"/><text fill="#1A1A1A" font-family="Helvetica" font-size="13" lengthAdjust="spacing" textLength="113.896" x="306" y="34.0669">IAM-Gruppen und</text><text fill="#1A1A1A" font-family="Helvetica" font-size="13" lengthAdjust="spacing" textLength="103.5747" x="306" y="49.1997">Berechtigungen</text></g><!--entity Share--><g id="elem_Share"><rect fill="#EFF3F7" height="50.2656" rx="3" ry="3" style="stroke:#14568C;stroke-width:1.0;" width="174.5464" x="466" y="39"/><text fill="#1A1A1A" font-family="Helvetica" font-size="13" lengthAdjust="spacing" textLength="88.2578" x="476" y="61.0669">Klassen- oder</text><text fill="#1A1A1A" font-family="Helvetica" font-size="13" lengthAdjust="spacing" textLength="154.5464" x="476" y="76.1997">Arbeitsgruppenfreigabe</text></g><!--entity Students--><g id="elem_Students"><rect fill="#EFF3F7" height="50.2656" rx="3" ry="3" style="stroke:#14568C;stroke-width:1.0;" width="105.1602" x="677" y="39"/><text fill="#1A1A1A" font-family="Helvetica" font-size="13" lengthAdjust="spacing" textLength="85.1602" x="687" y="61.0669">Sch&#252;lerinnen</text><text fill="#1A1A1A" font-family="Helvetica" font-size="13" lengthAdjust="spacing" textLength="77.6953" x="687" y="76.1997">und Sch&#252;ler</text></g><polygon fill="#14568C" points="120.7397,64,111.7397,60,115.7397,64,111.7397,68,120.7397,64" style="stroke:#14568C;stroke-width:1.0;"/><path d="M85.1979,64 C96.1989,64 102.5227,64 114.7397,64 " fill="none" style="stroke:#14568C;stroke-width:1.0;"/><polygon fill="#14568C" points="295.9268,47.4632,286.4119,44.9201,290.9883,48.2452,287.6632,52.8217,295.9268,47.4632" style="stroke:#14568C;stroke-width:1.0;"/><path d="M260.3574,53.0959 C272.095,51.2372 278.3373,50.2486 290.0006,48.4017 " fill="none" style="stroke:#14568C;stroke-width:1.0;"/><polygon fill="#14568C" points="465.8612,69.5676,456.6751,66.0156,460.8672,69.8138,457.0691,74.0059,465.8612,69.5676" style="stroke:#14568C;stroke-width:1.0;"/><path d="M260.0452,69.2496 C272.0228,69.9788 284.3694,70.6109 296,71 C355.5223,72.9913 370.4687,72.6995 430,71 C441.6049,70.6687 447.8279,70.4567 459.8685,69.863 " fill="none" style="stroke:#14568C;stroke-width:1.0;"/><polygon fill="#14568C" points="465.9538,51.6035,457.6119,46.3678,461.0044,50.8945,456.4776,54.287,465.9538,51.6035" style="stroke:#14568C;stroke-width:1.0;"/><path d="M430.193,46.4812 C441.756,48.1375 447.9996,49.0318 460.0145,50.7527 " fill="none" style="stroke:#14568C;stroke-width:1.0;"/><polygon fill="#14568C" points="676.5953,64,667.5953,60,671.5953,64,667.5953,68,676.5953,64" style="stroke:#14568C;stroke-width:1.0;"/><path d="M641.2451,64 C653.3331,64 659.4276,64 670.5953,64 " fill="none" style="stroke:#14568C;stroke-width:1.0;"/><!--SRC=[LL0nRiCm4DlrYajszma5qgKeMa_9QA2usBGaL3aRfrE1_ArRFrR5JW1taKIAF5BQpSh-mfJuEXMZV86niDj5wLCPG9_PhWbFiLoIInYDR2ADFXWDKT5RdCIvsu759z3-0q6_b4VR4sSwWVi0tGfQDcZaz0qrn5J4Byfs6ah2LlXsQ9jNBVCCeI939o-ejy6Yhnx8uggQhUKzSSwGXgO1sib1puYM_JfaL4JFPop6Os3zbtRim-zFgir489tKG7fGgy7gRuXbv-vlegPvVhHUjuMvDTh0DQUI6xIiAxuF_GC0]--></g></svg>