<svg xmlns="http://www.w3.org/2000/svg" xmlns:xlink="http://www.w3.org/1999/xlink" contentStyleType="text/css" height="580px" preserveAspectRatio="none" style="width:229px;height:580px;background:#FFFFFF;" version="1.1" viewBox="0 0 229 580" width="229px" zoomAndPan="magnify"><defs/><g><!--entity Client--><g id="elem_Client"><rect fill="#EFF3F7" height="35.1328" rx="3" ry="3" style="stroke:#14568C;stroke-width:1.0;" width="95.2642" x="113" y="12"/><text fill="#1A1A1A" font-family="Helvetica" font-size="13" lengthAdjust="spacing" textLength="75.2642" x="123" y="34.0669">HTTP Client</text></g><!--entity Kelvin--><g id="elem_Kelvin"><rect fill="#EFF3F7" height="35.1328" rx="3" ry="3" style="stroke:#14568C;stroke-width:1.0;" width="121.9497" x="99.5" y="83"/><text fill="#1A1A1A" font-family="Helvetica" font-size="13" lengthAdjust="spacing" textLength="101.9497" x="109.5" y="105.0669">Kelvin REST API</text></g><!--entity Lib--><g id="elem_Lib"><rect fill="#EFF3F7" height="50.2656" rx="3" ry="3" style="stroke:#14568C;stroke-width:1.0;" width="187.2734" x="6" y="154"/><text fill="#1A1A1A" font-family="Helvetica" font-size="13" lengthAdjust="spacing" textLength="167.2734" x="16" y="176.0669">UCS@school-Bibliotheken</text><text fill="#1A1A1A" font-family="Helvetica" font-size="13" lengthAdjust="spacing" textLength="102.9653" x="16" y="191.1997">und Importlogik</text></g><!--entity UDM--><g id="elem_UDM"><rect fill="#EFF3F7" height="35.1328" rx="3" ry="3" style="stroke:#14568C;stroke-width:1.0;" width="113.0122" x="44" y="240"/><text fill="#1A1A1A" font-family="Helvetica" font-size="13" lengthAdjust="spacing" textLength="93.0122" x="54" y="262.0669">UDM REST API</text></g><!--entity LDAP--><g id="elem_LDAP"><rect fill="#EFF3F7" height="35.1328" rx="3" ry="3" style="stroke:#14568C;stroke-width:1.0;" width="88.707" x="60" y="311"/><text fill="#1A1A1A" font-family="Helvetica" font-size="13" lengthAdjust="spacing" textLength="68.707" x="70" y="333.0669">OpenLDAP</text></g><!--entity Events--><g id="elem_Events"><rect fill="#EFF3F7" height="35.1328" rx="3" ry="3" style="stroke:#14568C;stroke-width:1.0;" width="147.2705" x="33" y="382"/><text fill="#1A1A1A" font-family="Helvetica" font-size="13" lengthAdjust="spacing" textLength="127.2705" x="43" y="404.0669">Provisioning Events</text></g><!--entity Consumer--><g id="elem_Consumer"><rect fill="#EFF3F7" height="35.1328" rx="3" ry="3" style="stroke:#14568C;stroke-width:1.0;" width="169.5444" x="22.5" y="453"/><text fill="#1A1A1A" font-family="Helvetica" font-size="13" lengthAdjust="spacing" textLength="149.5444" x="32.5" y="475.0669">Provisioning Consumer</text></g><!--entity Cache--><g id="elem_Cache"><rect fill="#EFF3F7" height="50.2656" rx="3" ry="3" style="stroke:#14568C;stroke-width:1.0;" width="118.9282" x="105" y="524"/><text fill="#1A1A1A" font-family="Helvetica" font-size="13" lengthAdjust="spacing" textLength="98.9282" x="115" y="546.0669">SQL-Lesecache</text><text fill="#1A1A1A" font-family="Helvetica" font-size="13" lengthAdjust="spacing" textLength="69.9194" x="115" y="561.1997">(Kelvin v2)</text></g><polygon fill="#14568C" points="160.5,82.9508,164.5,73.9508,160.5,77.9508,156.5,73.9508,160.5,82.9508" style="stroke:#14568C;stroke-width:1.0;"/><path d="M160.5,47.203 C160.5,58.0515 160.5,66.1331 160.5,76.9508 " fill="none" style="stroke:#14568C;stroke-width:1.0;"/><polygon fill="#14568C" points="118.7314,153.8819,127.4699,149.3389,121.8487,149.9726,121.215,144.3513,118.7314,153.8819" style="stroke:#14568C;stroke-width:1.0;"/><path d="M147.2639,118.0994 C138.9243,128.558 131.7578,137.5455 122.4721,149.1907 " fill="none" style="stroke:#14568C;stroke-width:1.0;"/><polygon fill="#14568C" points="100.2805,239.7118,104.1626,230.6602,100.2152,234.7122,96.1633,230.7648,100.2805,239.7118" style="stroke:#14568C;stroke-width:1.0;"/><path d="M99.8164,204.2051 C99.9675,215.7613 100.0661,223.3043 100.2021,233.7123 " fill="none" style="stroke:#14568C;stroke-width:1.0;"/><polygon fill="#14568C" points="103.5406,310.9508,107.0131,301.7344,103.2513,305.9592,99.0265,302.1974,103.5406,310.9508" style="stroke:#14568C;stroke-width:1.0;"/><path d="M101.4683,275.203 C102.0972,286.0515 102.5663,294.1431 103.1934,304.9609 " fill="none" style="stroke:#14568C;stroke-width:1.0;"/><polygon fill="#14568C" points="106.0203,381.9508,109.7579,372.8387,105.8754,376.9529,101.7612,373.0705,106.0203,381.9508" style="stroke:#14568C;stroke-width:1.0;"/><path d="M104.9841,346.203 C105.2986,357.0515 105.5329,365.1356 105.8465,375.9534 " fill="none" style="stroke:#14568C;stroke-width:1.0;"/><polygon fill="#14568C" points="107.2602,452.9508,111.1293,443.8938,107.1877,447.9514,103.1302,444.0098,107.2602,452.9508" style="stroke:#14568C;stroke-width:1.0;"/><path d="M106.7421,417.203 C106.8993,428.0515 107.0164,436.1337 107.1732,446.9515 " fill="none" style="stroke:#14568C;stroke-width:1.0;"/><polygon fill="#14568C" points="146.5296,523.8819,144.3598,514.275,143.5422,519.8725,137.9448,519.0549,146.5296,523.8819" style="stroke:#14568C;stroke-width:1.0;"/><path d="M119.8682,488.0994 C127.6609,498.558 134.2679,507.4254 142.9448,519.0706 " fill="none" style="stroke:#14568C;stroke-width:1.0;"/><polygon fill="#14568C" points="181.899,523.8696,190.1835,518.5435,184.6441,519.6906,183.497,514.1513,181.899,523.8696" style="stroke:#14568C;stroke-width:1.0;"/><path d="M176.8031,118.1085 C185.4273,127.8168 195.4539,140.742 201.5,154 C220.7586,196.2307 221.5,210.0853 221.5,256.5 C221.5,256.5 221.5,256.5 221.5,400.5 C221.5,440.3918 216.6165,451.0832 201.5,488 C196.3988,500.4579 192.1442,508.2728 185.1932,518.8548 " fill="none" style="stroke:#14568C;stroke-width:1.0;"/><!--SRC=[TL31JiCm3BttAxoTu50EV01YT9EOAABGSfk4iinghQLErIILzlSqIOUo0uSapy_FZfzNmoZQNe0I5-qic1wjO96jYALo9uGVOoyA7yZrAij6b7EsLGZhrwQfe524RDSWp09JnHkgYHY-TdK3cseVL95BLTz5_MnafxNAN-YeIDiEpyW7Tdo2VJ_eqIhTqZcKbtIygTs-txQVYJJ_CI2NsqqLQsUG9gjHJsH8Ct4BksaUtWHTXFyg2yt6zJX6qqkGgklFCY_He1IommFVBMkO7kzZYQUpBAuBylpfkfD5vnblSpu1UqlUP-2z1N-5Q1aqFe7v6-SA8Xj-JDe7uXS0]--></g></svg>