<svg xmlns="http://www.w3.org/2000/svg" xmlns:xlink="http://www.w3.org/1999/xlink" contentStyleType="text/css" height="136px" preserveAspectRatio="none" style="width:625px;height:136px;background:#FFFFFF;" version="1.1" viewBox="0 0 625 136" width="625px" zoomAndPan="magnify"><defs/><g><!--entity User--><g id="elem_User"><rect fill="#EFF3F7" height="35.1328" rx="3" ry="3" style="stroke:#14568C;stroke-width:1.0;" width="78.6587" x="6" y="53.5"/><text fill="#1A1A1A" font-family="Helvetica" font-size="13" lengthAdjust="spacing" textLength="58.6587" x="16" y="75.5669">Benutzer</text></g><!--entity Client--><g id="elem_Client"><rect fill="#EFF3F7" height="35.1328" rx="3" ry="3" style="stroke:#14568C;stroke-width:1.0;" width="164.7393" x="121" y="53.5"/><text fill="#1A1A1A" font-family="Helvetica" font-size="13" lengthAdjust="spacing" textLength="144.7393" x="131" y="75.5669">Windows-/Linux-Client</text></g><!--entity SchoolServer--><g id="elem_SchoolServer"><rect fill="#EFF3F7" height="35.1328" rx="3" ry="3" style="stroke:#14568C;stroke-width:1.0;" width="96.6416" x="322" y="53.5"/><text fill="#1A1A1A" font-family="Helvetica" font-size="13" lengthAdjust="spacing" textLength="76.6416" x="332" y="75.5669">Schulserver</text></g><!--entity LocalLDAP--><g id="elem_LocalLDAP"><rect fill="#EFF3F7" height="50.2656" rx="3" ry="3" style="stroke:#14568C;stroke-width:1.0;" width="164.3521" x="455" y="12"/><text fill="#1A1A1A" font-family="Helvetica" font-size="13" lengthAdjust="spacing" textLength="47.6455" x="465" y="34.0669">Lokaler</text><text fill="#1A1A1A" font-family="Helvetica" font-size="13" lengthAdjust="spacing" textLength="144.3521" x="465" y="49.1997">LDAP-Replikatbestand</text></g><!--entity Samba--><g id="elem_Samba"><rect fill="#EFF3F7" height="50.2656" rx="3" ry="3" style="stroke:#14568C;stroke-width:1.0;" width="125.625" x="474" y="80"/><text fill="#1A1A1A" font-family="Helvetica" font-size="13" lengthAdjust="spacing" textLength="53.6123" x="484" y="102.0669">Samba /</text><text fill="#1A1A1A" font-family="Helvetica" font-size="13" lengthAdjust="spacing" textLength="105.625" x="484" y="117.1997">Anmeldedienste</text></g><polygon fill="#14568C" points="120.7397,71,111.7397,67,115.7397,71,111.7397,75,120.7397,71" style="stroke:#14568C;stroke-width:1.0;"/><path d="M85.0618,71 C95.9792,71 102.2955,71 114.7397,71 " fill="none" style="stroke:#14568C;stroke-width:1.0;"/><polygon fill="#14568C" points="321.5916,71,312.5916,67,316.5916,71,312.5916,75,321.5916,71" style="stroke:#14568C;stroke-width:1.0;"/><path d="M286.0332,71 C298.2119,71 304.4186,71 315.5916,71 " fill="none" style="stroke:#14568C;stroke-width:1.0;"/><polygon fill="#14568C" points="454.7402,53.7953,445.1169,51.6998,449.8437,54.8074,446.7361,59.5342,454.7402,53.7953" style="stroke:#14568C;stroke-width:1.0;"/><path d="M419.0802,61.1658 C430.2771,58.8515 436.6474,57.5349 448.8644,55.0098 " fill="none" style="stroke:#14568C;stroke-width:1.0;"/><polygon fill="#14568C" points="473.8169,92.1476,465.8129,86.4087,468.9204,91.1355,464.1936,94.2431,473.8169,92.1476" style="stroke:#14568C;stroke-width:1.0;"/><path d="M419.0802,80.8342 C436.1602,84.3644 449.8059,87.1848 467.9411,90.9331 " fill="none" style="stroke:#14568C;stroke-width:1.0;"/><!--SRC=[PKv1JWCn3Bpd5MxleJz0Ad3S0w92N2eXTsEsLXsdIXoWl9xTB8YjEDcU6S_CwfnnY0Y2brGDIYH3HRTYxQK6WjTY5w4Rhb6Sq9k19SWy70q2P-gDapetBQY34AplIAjzKLu35dWkb9Va2sj87yLlEjRwwU-5IQqfvtMftVN7AkF_-u_NUASakmOiTLqweL3UQ_UmVVHFT1O-eHseZ8BGFhlKeqpibJt60y9chrkD9872c5-CvgY9Ssvg3zxV_fQRHqEkoYoFnlu5_gEQzJS0]--></g></svg>