<svg xmlns="http://www.w3.org/2000/svg" xmlns:xlink="http://www.w3.org/1999/xlink" contentStyleType="text/css" height="453px" preserveAspectRatio="none" style="width:210px;height:453px;background:#FFFFFF;" version="1.1" viewBox="0 0 210 453" width="210px" zoomAndPan="magnify"><defs/><g><!--entity Clients--><g id="elem_Clients"><rect fill="#EFF3F7" height="50.2656" rx="3" ry="3" style="stroke:#14568C;stroke-width:1.0;" width="139.4883" x="36" y="12"/><text fill="#1A1A1A" font-family="Helvetica" font-size="13" lengthAdjust="spacing" textLength="119.4883" x="46" y="34.0669">Benutzer, Admins,</text><text fill="#1A1A1A" font-family="Helvetica" font-size="13" lengthAdjust="spacing" textLength="94.231" x="46" y="49.1997">Fachverfahren</text></g><!--entity UIs--><g id="elem_UIs"><rect fill="#EFF3F7" height="50.2656" rx="3" ry="3" style="stroke:#14568C;stroke-width:1.0;" width="165.3232" x="23" y="98"/><text fill="#1A1A1A" font-family="Helvetica" font-size="13" lengthAdjust="spacing" textLength="145.3232" x="33" y="120.0669">UMC, Management UI,</text><text fill="#1A1A1A" font-family="Helvetica" font-size="13" lengthAdjust="spacing" textLength="115.7876" x="33" y="135.1997">Kelvin API, Import</text></g><!--entity Logic--><g id="elem_Logic"><rect fill="#EFF3F7" height="35.1328" rx="3" ry="3" style="stroke:#14568C;stroke-width:1.0;" width="168.002" x="21.5" y="184"/><text fill="#1A1A1A" font-family="Helvetica" font-size="13" lengthAdjust="spacing" textLength="148.002" x="31.5" y="206.0669">UCS@school-Fachlogik</text></g><!--entity UDM--><g id="elem_UDM"><rect fill="#EFF3F7" height="35.1328" rx="3" ry="3" style="stroke:#14568C;stroke-width:1.0;" width="156.3984" x="27.5" y="255"/><text fill="#1A1A1A" font-family="Helvetica" font-size="13" lengthAdjust="spacing" textLength="136.3984" x="37.5" y="277.0669">UDM / UDM REST API</text></g><!--entity LDAP--><g id="elem_LDAP"><rect fill="#EFF3F7" height="35.1328" rx="3" ry="3" style="stroke:#14568C;stroke-width:1.0;" width="88.707" x="61" y="326"/><text fill="#1A1A1A" font-family="Helvetica" font-size="13" lengthAdjust="spacing" textLength="68.707" x="71" y="348.0669">OpenLDAP</text></g><!--entity Services--><g id="elem_Services"><rect fill="#EFF3F7" height="50.2656" rx="3" ry="3" style="stroke:#14568C;stroke-width:1.0;" width="198.9277" x="6" y="397"/><text fill="#1A1A1A" font-family="Helvetica" font-size="13" lengthAdjust="spacing" textLength="178.9277" x="16" y="419.0669">Schulserver, Samba, Proxy,</text><text fill="#1A1A1A" font-family="Helvetica" font-size="13" lengthAdjust="spacing" textLength="144.6567" x="16" y="434.1997">RADIUS, Veyon, Portal</text></g><polygon fill="#14568C" points="105.5,97.7583,109.5,88.7583,105.5,92.7583,101.5,88.7583,105.5,97.7583" style="stroke:#14568C;stroke-width:1.0;"/><path d="M105.5,62.2963 C105.5,73.4407 105.5,80.6206 105.5,91.7583 " fill="none" style="stroke:#14568C;stroke-width:1.0;"/><polygon fill="#14568C" points="105.5,183.7118,109.5,174.7118,105.5,178.7118,101.5,174.7118,105.5,183.7118" style="stroke:#14568C;stroke-width:1.0;"/><path d="M105.5,148.2051 C105.5,159.7613 105.5,167.3038 105.5,177.7118 " fill="none" style="stroke:#14568C;stroke-width:1.0;"/><polygon fill="#14568C" points="105.5,254.9508,109.5,245.9508,105.5,249.9508,101.5,245.9508,105.5,254.9508" style="stroke:#14568C;stroke-width:1.0;"/><path d="M105.5,219.203 C105.5,230.0515 105.5,238.1331 105.5,248.9508 " fill="none" style="stroke:#14568C;stroke-width:1.0;"/><polygon fill="#14568C" points="105.5,325.9508,109.5,316.9508,105.5,320.9508,101.5,316.9508,105.5,325.9508" style="stroke:#14568C;stroke-width:1.0;"/><path d="M105.5,290.203 C105.5,301.0515 105.5,309.1331 105.5,319.9508 " fill="none" style="stroke:#14568C;stroke-width:1.0;"/><polygon fill="#14568C" points="105.5,396.8819,109.5,387.8819,105.5,391.8819,101.5,387.8819,105.5,396.8819" style="stroke:#14568C;stroke-width:1.0;"/><path d="M105.5,361.0994 C105.5,371.558 105.5,379.2367 105.5,390.8819 " fill="none" style="stroke:#14568C;stroke-width:1.0;"/><!--SRC=[LKzTJuGm47pdL-pTSz5_O4Jm4k8HoLLyCZ6rjq9ZFqWBHFprReicTm-Tx7PsPcTtenUz4Q35wkO9Wi59M97jb9LwFYEyXsdLUADcexFCeoIsrmZx1xJpz8EUGN4soWRsPWz23WlwJp5uj7iG0Kgjq4xXKjSr9OE6LlHeY8Ek9kKJwaLPADgQGMr6vwSax-fhQSdlWnoSqtbSfLslljBSaIfvDLarS0iHJu_y9VfkVbLpEVKyeZrMHRjvK759SZdCEg1VuebSc0_1eFNkUwMufwAgEyxW5LTdwPlo2frSE0cKn91bVwT3dj-bE-YbUikQSECeKmoQk9WXGkh-lNu1]--></g></svg>